<svg xmlns="http://www.w3.org/2000/svg" width="98.813" height="104" viewBox="0 0 98.813 104">
  <defs>
    <style>
      .cls-1 {
        fill: #fff;
      }

      .cls-1, .cls-2, .cls-3 {
        fill-rule: evenodd;
      }

      .cls-2 {
        fill: none;
        stroke: #000;
        stroke-width: 2.083px;
      }
    </style>
  </defs>
  <path id="menu_box" data-name="menu box" class="cls-1" d="M0,0H98.824V104H0V0Z"/>
  <g id="menu_lines" data-name="menu lines">
    <path class="cls-2" d="M33.883,37.946H62.118"/>
    <path id="Shape_1_copy" data-name="Shape 1 copy" class="cls-2" d="M33.883,47.784H62.118"/>
    <path id="Shape_1_copy_2" data-name="Shape 1 copy 2" class="cls-2" d="M33.883,56.216H62.118"/>
  </g>
  <path id="MENU" class="cls-3" d="M23.069,88.472V82.661l3.974,5.566H27.07l3.965-5.566v5.811h3.91v-14.8H33.373L27.052,82.3,20.73,73.675H19.159v14.8h3.91Zm24.448,0V84.834H41.835v-2.11h4.677V79.478H41.835V77.45h5.682V73.812H37.97v14.66h9.547Zm6.552,0.009V81.315l7.567,7.3h1.24V73.794h-3.91v7.148l-7.546-7.275H50.159V88.481h3.91Zm12.2-3.024a5.432,5.432,0,0,0,1.311,1.823,6.1,6.1,0,0,0,1.952,1.173,6.819,6.819,0,0,0,4.753,0,6.1,6.1,0,0,0,1.953-1.173,5.434,5.434,0,0,0,1.311-1.823,5.566,5.566,0,0,0,.486-2.314V73.812H74.077v9.322a1.845,1.845,0,0,1-.661,1.451,2.239,2.239,0,0,1-1.518.578,2.212,2.212,0,0,1-1.513-.573,1.858,1.858,0,0,1-.647-1.455V73.812H65.782v9.331A5.566,5.566,0,0,0,66.268,85.457Z"/>
</svg>
