<svg id="menu-toggle-close" xmlns="http://www.w3.org/2000/svg" width="98.824" height="104" viewBox="0 0 98.824 104">
  <path id="menu_box" data-name="menu box" d="M0,0H98.824V104H0Z" fill="#fff" fill-rule="evenodd"/>
  <g id="menu_lines" data-name="menu lines">
    <path id="Path_1" data-name="Path 1" d="M33.883,37.946H62.118" fill="none" stroke="#000" stroke-width="2.083" fill-rule="evenodd"/>
    <path id="Shape_1_copy" data-name="Shape 1 copy" d="M33.883,47.784H62.118" fill="none" stroke="#000" stroke-width="2.083" fill-rule="evenodd"/>
    <path id="Shape_1_copy_2" data-name="Shape 1 copy 2" d="M33.883,56.216H62.118" fill="none" stroke="#000" stroke-width="2.083" fill-rule="evenodd"/>
  </g>
  <path id="close" d="M.581,7.285A6.733,6.733,0,0,1,1.546,3.74,6.857,6.857,0,0,1,4.2,1.222,7.715,7.715,0,0,1,7.944.3,7.079,7.079,0,0,1,10.55.857a8.015,8.015,0,0,1,2.341,1.462L10.849,4.933a4.914,4.914,0,0,0-1.395-.9,3.8,3.8,0,0,0-1.5-.331,3.864,3.864,0,0,0-1.884.472,3.653,3.653,0,0,0-1.378,1.3A3.42,3.42,0,0,0,4.175,7.31,3.38,3.38,0,0,0,4.7,9.148a3.677,3.677,0,0,0,1.374,1.3,3.719,3.719,0,0,0,1.8.46,4.489,4.489,0,0,0,2.988-1.3l2.025,2.709A7.194,7.194,0,0,1,7.877,14.3a7.709,7.709,0,0,1-2.208-.321,7.177,7.177,0,0,1-1.995-.941,7.7,7.7,0,0,1-1.611-1.458A6.311,6.311,0,0,1,.974,9.63,6.98,6.98,0,0,1,.581,7.285ZM14.41,14V.619h3.553V10.68h5.122V14Zm9.4-6.666a6.972,6.972,0,0,1,.569-2.8,6.836,6.836,0,0,1,1.544-2.248A7.193,7.193,0,0,1,28.256.807a7.981,7.981,0,0,1,5.794,0,7.193,7.193,0,0,1,2.337,1.479A6.836,6.836,0,0,1,37.93,4.534a6.971,6.971,0,0,1,.569,2.8,6.817,6.817,0,0,1-3.615,6.09,7.715,7.715,0,0,1-3.74.916,7.8,7.8,0,0,1-2.9-.539,7.175,7.175,0,0,1-2.337-1.468,6.744,6.744,0,0,1-1.54-2.23A6.885,6.885,0,0,1,23.807,7.334ZM27.4,7.31A3.464,3.464,0,0,0,28.48,9.9a3.933,3.933,0,0,0,5.346,0A3.464,3.464,0,0,0,34.9,7.31a3.487,3.487,0,0,0-1.079-2.6,3.922,3.922,0,0,0-5.346,0A3.487,3.487,0,0,0,27.4,7.31Zm12.136,4.362,2.15-2.1a2.82,2.82,0,0,0,1.139.946,3.6,3.6,0,0,0,1.569.345,2.434,2.434,0,0,0,1.058-.211.653.653,0,0,0,.442-.593.635.635,0,0,0-.1-.325,1.176,1.176,0,0,0-.321-.329q-.225-.166-.425-.3a5.505,5.505,0,0,0-.579-.313q-.379-.183-.6-.28t-.663-.292A8.831,8.831,0,0,1,42,7.6a5.728,5.728,0,0,1-.983-.784,3.113,3.113,0,0,1-.7-1.052,3.468,3.468,0,0,1-.244-1.316A3.529,3.529,0,0,1,40.73,2.37,4.335,4.335,0,0,1,42.465.93,5.413,5.413,0,0,1,44.8.42a5.16,5.16,0,0,1,2.625.65,3.322,3.322,0,0,1,1.524,1.686L46.911,4.731A1.751,1.751,0,0,0,46.019,4a3.072,3.072,0,0,0-1.174-.256,1.605,1.605,0,0,0-.9.236.682.682,0,0,0-.358.577.508.508,0,0,0,.054.236.648.648,0,0,0,.175.2,2,2,0,0,0,.254.175,2.933,2.933,0,0,0,.367.171q.233.093.437.17t.527.2q.323.126.579.231,3.467,1.429,3.467,4.044a3.674,3.674,0,0,1-.708,2.225,4.474,4.474,0,0,1-1.847,1.471,6.107,6.107,0,0,1-2.489.5,6.549,6.549,0,0,1-3.013-.69A3.787,3.787,0,0,1,39.537,11.671ZM51.1,14V.619h8.674v3.32H54.611V5.791h4.25V8.754h-4.25V10.68h5.163V14Z" transform="translate(18 74)"/>
</svg>
