<?xml version="1.0" encoding="UTF-8" ?>
<!DOCTYPE svg PUBLIC "-//W3C//DTD SVG 1.1//EN" "http://www.w3.org/Graphics/SVG/1.1/DTD/svg11.dtd">
<svg width="643pt" height="434pt" viewBox="0 0 643 434" version="1.1" xmlns="http://www.w3.org/2000/svg">
<g id="#231f20ff">
<path fill="#231f20" opacity="1.00" d=" M 519.16 0.00 L 521.26 0.00 C 524.98 2.29 529.06 3.80 533.31 4.79 C 538.27 5.95 541.81 9.97 546.62 11.48 C 553.32 13.76 559.17 18.07 566.13 19.63 C 570.25 20.69 572.29 24.94 573.05 28.79 C 576.45 44.94 579.15 61.25 583.52 77.18 C 582.78 78.16 582.05 79.15 581.32 80.13 C 584.58 81.71 588.12 82.48 591.56 83.55 C 603.23 87.04 613.93 93.00 624.93 98.12 C 629.66 99.69 632.86 103.97 633.00 108.96 C 634.57 119.76 637.02 130.40 639.20 141.08 C 639.86 144.48 641.50 147.56 643.00 150.65 L 643.00 152.94 C 640.61 154.75 641.43 157.86 643.00 159.91 L 643.00 162.69 C 641.26 165.11 638.57 166.51 636.15 168.11 C 625.68 174.83 615.91 182.55 605.96 189.99 C 603.28 192.02 600.33 193.64 597.33 195.12 C 598.24 211.65 604.39 227.19 609.06 242.89 C 611.33 243.07 613.52 243.74 615.51 244.87 C 612.93 249.93 608.65 253.80 604.25 257.26 C 596.84 263.01 588.59 267.55 581.17 273.27 C 576.73 276.47 574.22 281.66 569.43 284.45 C 565.78 286.67 566.29 291.53 567.26 295.08 C 570.01 305.99 572.68 316.92 575.44 327.83 C 576.22 331.44 578.66 334.99 577.68 338.76 C 575.80 341.67 572.06 342.40 569.29 344.22 C 555.32 352.65 544.22 365.04 534.63 378.09 C 532.08 377.80 529.73 376.79 527.66 375.30 C 522.69 371.88 516.71 370.58 511.02 368.88 C 501.94 366.14 492.90 363.24 484.00 359.97 C 481.41 358.82 478.40 359.25 476.32 361.20 C 467.05 368.66 457.63 375.93 448.45 383.50 C 444.90 386.30 442.65 390.35 439.21 393.25 C 437.70 394.34 435.90 393.20 434.48 392.56 C 422.77 386.09 409.43 383.77 396.59 380.62 C 388.10 378.58 380.18 374.85 372.13 371.58 C 364.56 378.90 356.77 385.99 348.79 392.86 C 343.39 397.44 338.92 402.96 333.82 407.84 C 332.47 409.49 330.57 408.12 329.29 407.20 C 332.14 399.39 338.63 393.84 345.30 389.28 C 353.97 383.07 361.13 375.07 368.17 367.14 C 370.13 365.26 369.41 362.42 369.08 360.06 C 366.69 346.43 364.39 332.77 362.35 319.08 C 361.95 314.35 358.36 310.73 354.22 308.85 C 343.24 303.64 332.01 298.97 320.86 294.16 C 317.09 292.46 312.34 292.17 309.01 294.97 C 304.76 298.48 299.99 301.25 295.40 304.27 C 286.97 310.49 279.10 317.42 271.06 324.12 C 267.11 326.78 268.79 332.09 269.01 336.04 C 271.26 349.43 273.96 362.76 276.98 375.99 C 277.90 380.73 275.10 385.72 271.13 388.24 C 264.22 392.81 257.98 398.35 252.36 404.42 C 246.99 410.73 240.48 415.89 233.91 420.87 C 230.52 419.79 227.66 421.62 225.82 424.38 C 209.41 415.77 194.31 404.40 176.52 398.62 C 175.37 398.05 174.14 398.38 173.21 399.20 C 158.66 409.53 145.77 421.93 132.68 434.00 L 132.43 434.00 C 115.66 426.00 98.69 418.29 80.88 412.86 C 77.17 411.65 72.08 410.58 71.36 405.98 C 68.70 391.33 66.40 376.61 63.82 361.95 C 63.18 358.67 63.00 355.33 62.95 352.00 C 55.47 347.11 48.04 342.13 40.38 337.52 C 34.55 334.04 27.68 332.87 20.97 332.93 C 17.55 332.87 12.70 332.69 11.69 328.58 C 7.24 311.36 3.20 294.02 0.00 276.52 L 0.00 274.71 C 0.96 272.85 2.20 271.14 3.64 269.63 C 14.13 258.39 26.49 249.15 38.09 239.12 C 41.03 236.37 45.87 236.61 48.15 233.08 C 49.27 231.18 51.49 230.75 53.43 230.15 C 64.06 242.29 80.20 246.48 94.90 251.45 C 98.62 252.53 102.99 255.57 106.64 252.75 C 118.78 243.87 130.77 234.77 143.02 226.04 C 145.95 224.18 147.77 220.59 146.48 217.16 C 142.47 204.14 140.06 190.63 139.34 177.02 C 139.11 171.59 141.22 166.04 145.52 162.59 C 158.44 152.19 168.85 139.04 182.12 129.04 C 194.42 132.61 206.65 136.47 218.97 139.99 C 225.83 141.86 233.20 142.13 239.71 145.17 C 242.98 147.05 240.31 151.11 240.91 153.99 C 242.93 165.78 244.94 177.67 249.04 188.94 C 251.47 195.65 253.81 202.40 255.84 209.24 C 266.74 211.80 275.38 219.47 285.80 223.24 C 290.54 224.93 295.19 226.91 300.04 228.26 C 302.28 228.87 304.05 226.93 305.64 225.68 C 316.89 215.48 328.66 205.83 341.08 197.08 C 342.20 196.35 343.40 195.41 344.85 195.82 C 349.67 196.38 354.53 197.10 359.14 198.70 C 374.05 203.71 388.63 209.66 403.02 216.01 C 415.46 204.66 428.39 193.83 441.98 183.89 C 445.14 181.70 445.61 177.54 444.54 174.10 C 441.26 161.22 438.98 148.11 436.95 134.99 C 436.32 132.45 437.46 129.98 439.14 128.14 C 448.98 116.67 460.09 106.35 471.80 96.82 C 474.61 94.29 477.75 92.08 480.22 89.20 C 482.41 81.20 480.41 72.78 478.10 65.02 C 475.55 56.55 473.14 48.04 471.11 39.43 C 478.26 33.11 485.08 26.38 492.78 20.69 C 497.29 17.18 502.40 14.50 506.79 10.84 C 511.04 7.36 514.83 3.37 519.16 0.00 M 511.97 12.93 C 500.40 20.87 488.22 28.37 478.82 38.96 C 476.55 41.36 475.88 44.94 477.11 48.01 C 480.02 57.23 482.83 66.50 484.87 75.96 C 486.16 82.00 486.34 88.28 485.14 94.35 C 494.41 97.81 504.56 98.01 513.99 100.94 C 520.91 103.54 527.44 107.11 534.45 109.45 C 538.98 110.94 543.13 108.12 546.63 105.61 C 554.73 100.23 562.99 94.73 569.26 87.18 C 572.38 83.40 576.43 80.35 581.16 78.94 C 579.00 77.21 577.79 74.70 577.39 71.99 C 574.51 58.34 571.82 44.64 568.97 30.98 C 568.48 28.56 567.37 25.98 565.00 24.89 C 562.80 24.04 560.37 23.83 558.30 22.63 C 546.59 16.11 534.35 10.40 521.48 6.57 C 516.89 5.38 515.15 10.87 511.97 12.93 M 569.78 93.75 C 561.94 101.11 553.11 107.35 543.99 112.99 C 541.81 114.49 537.85 115.53 538.64 118.95 C 540.58 133.36 542.77 147.73 544.86 162.11 C 545.18 166.41 548.59 170.17 552.90 170.72 C 559.88 171.77 566.10 175.29 572.84 177.17 C 581.82 178.40 589.43 183.87 596.60 189.06 C 609.94 179.44 623.47 170.07 636.93 160.62 C 634.72 143.33 633.28 125.75 627.93 109.07 C 626.74 104.83 622.72 102.63 619.02 100.89 C 609.31 95.29 598.81 91.13 588.08 87.96 C 584.90 86.90 581.61 84.55 578.15 85.78 C 574.58 87.50 572.64 91.18 569.78 93.75 M 479.21 97.22 C 474.77 101.12 470.62 105.38 465.78 108.79 C 457.82 114.39 451.41 121.80 444.89 128.94 C 442.08 131.87 440.49 136.04 441.38 140.09 C 443.78 152.13 446.52 164.10 449.15 176.09 C 449.59 178.23 450.38 180.48 452.26 181.78 C 467.29 191.14 483.71 197.95 500.11 204.51 C 502.36 204.93 504.04 202.96 505.64 201.71 C 515.22 192.61 524.45 183.14 534.36 174.39 C 537.89 171.22 541.68 167.14 541.19 162.00 C 538.60 147.36 536.16 132.68 533.66 118.02 C 533.42 116.13 532.40 114.29 530.57 113.54 C 526.39 111.62 522.00 110.19 517.94 108.00 C 511.80 104.77 504.74 104.42 498.01 103.44 C 491.43 102.52 484.96 100.60 479.21 97.22 M 176.99 139.94 C 167.86 148.47 158.89 157.16 149.78 165.71 C 147.08 168.10 144.33 171.15 144.64 175.04 C 145.47 189.78 146.45 205.19 153.52 218.48 C 155.56 222.77 160.69 223.27 164.00 226.14 C 167.36 228.67 170.86 231.18 174.92 232.46 C 183.53 235.20 192.67 236.20 200.91 240.08 C 204.29 241.75 208.06 240.03 210.28 237.30 C 216.35 230.27 223.51 224.17 231.60 219.59 C 238.00 216.17 242.59 210.40 247.84 205.55 C 242.92 186.28 237.85 167.05 232.89 147.79 C 227.89 149.07 222.70 148.07 218.07 146.01 C 208.80 141.77 198.72 139.89 188.99 137.07 C 184.81 135.61 180.13 136.93 176.99 139.94 M 541.38 175.55 C 528.91 184.90 518.45 196.58 507.58 207.68 C 505.90 209.28 504.39 211.43 505.17 213.88 C 507.55 226.97 509.68 240.11 512.39 253.14 C 513.14 256.70 514.30 260.38 516.95 263.01 C 520.10 266.15 524.72 266.68 528.63 268.42 C 537.80 272.28 547.15 275.69 556.24 279.73 C 559.04 281.00 562.34 281.54 565.27 280.33 C 569.62 278.66 572.51 274.81 575.85 271.75 C 581.68 266.18 588.38 261.63 595.07 257.18 C 598.35 254.95 602.71 253.19 603.82 248.99 C 604.87 244.59 602.94 240.24 601.76 236.07 C 597.46 223.42 593.61 210.61 590.65 197.57 C 589.68 194.51 589.53 190.32 586.19 188.80 C 581.94 186.76 578.11 183.85 573.58 182.43 C 570.90 181.55 567.81 182.48 565.38 180.84 C 560.07 177.52 553.75 176.86 547.84 175.25 C 545.73 174.66 543.29 174.13 541.38 175.55 M 447.35 185.96 C 445.00 188.43 442.65 190.99 439.69 192.74 C 427.82 200.17 417.37 209.63 407.66 219.66 C 405.95 221.33 404.49 223.65 405.20 226.15 C 407.61 237.81 410.02 249.48 412.91 261.04 C 414.45 267.20 415.93 274.62 422.11 277.83 C 430.23 281.69 438.25 285.75 446.37 289.63 C 454.90 293.78 464.08 296.38 473.15 299.04 C 475.22 298.04 476.30 295.56 478.06 294.05 C 487.88 284.53 497.98 275.12 505.84 263.85 C 507.51 261.56 508.24 258.63 507.57 255.84 C 505.28 243.85 503.48 231.77 500.78 219.86 C 499.69 214.89 496.90 210.11 492.25 207.75 C 481.74 202.24 470.34 198.67 459.82 193.19 C 455.51 191.03 451.64 188.14 447.35 185.96 M 340.27 204.24 C 330.16 210.90 320.81 218.65 312.35 227.31 C 309.21 230.63 304.10 233.68 305.03 239.00 C 306.82 253.90 308.98 268.77 310.54 283.70 C 327.92 290.58 345.05 298.08 362.08 305.77 C 364.28 307.01 366.96 306.45 368.73 304.75 C 381.39 294.08 394.09 283.44 406.76 272.78 C 408.38 271.52 409.05 269.37 408.46 267.41 C 405.26 253.24 402.07 239.05 398.83 224.89 C 398.25 221.01 394.52 219.05 391.27 217.68 C 379.17 212.28 367.31 205.76 354.16 203.30 C 349.59 202.69 344.41 201.58 340.27 204.24 M 247.31 210.02 C 246.86 213.58 245.42 217.15 242.45 219.34 C 236.65 223.77 229.69 226.44 224.06 231.12 C 218.48 235.82 213.26 240.94 208.11 246.10 C 205.31 248.62 206.23 252.64 206.61 255.91 C 208.40 268.91 209.30 282.04 211.29 295.00 C 212.41 301.36 219.11 303.44 224.55 304.64 C 238.19 309.79 251.55 315.68 265.08 321.14 C 275.95 311.53 287.34 302.44 299.97 295.22 C 303.05 293.58 306.79 291.00 306.01 286.95 C 303.51 272.01 300.94 257.04 299.76 241.92 C 299.60 237.45 297.68 232.37 293.00 230.95 C 277.03 225.72 262.35 217.38 247.31 210.02 M 145.50 230.32 C 133.97 239.17 122.25 247.77 110.86 256.80 C 108.62 258.51 106.59 260.98 106.76 263.98 C 109.60 281.16 115.71 297.68 117.74 315.03 C 129.59 319.52 141.39 324.12 153.20 328.71 C 155.64 329.74 158.30 330.81 159.94 332.99 C 161.22 334.74 160.04 336.77 159.29 338.44 C 145.72 330.06 130.47 324.87 115.12 320.85 C 107.08 325.90 98.77 330.53 90.88 335.79 C 83.78 342.08 76.74 348.46 69.80 354.93 C 67.46 357.05 68.43 360.32 68.96 362.99 C 71.91 377.53 74.60 392.12 77.63 406.64 C 83.37 408.09 88.77 410.58 94.27 412.72 C 105.21 417.06 116.10 421.53 127.06 425.82 C 129.36 426.84 132.21 427.04 134.19 425.25 C 145.67 415.42 156.37 404.64 168.53 395.64 C 171.63 393.48 172.78 389.45 171.84 385.87 C 168.78 368.44 166.01 350.95 162.08 333.68 C 165.59 334.26 169.34 333.42 171.75 330.65 C 178.43 323.68 185.06 316.34 193.65 311.66 C 198.63 309.14 203.38 306.20 207.95 303.00 C 202.48 284.07 203.85 264.08 200.00 244.87 C 188.98 241.67 177.30 240.19 167.01 234.85 C 163.05 233.01 160.23 229.49 156.41 227.45 C 152.55 225.63 148.53 228.02 145.50 230.32 M 12.26 269.26 C 9.58 272.64 5.79 276.19 6.47 280.92 C 7.29 289.99 10.00 298.73 12.43 307.46 C 14.36 313.81 16.03 320.25 18.22 326.53 C 23.89 328.03 29.92 327.36 35.48 329.35 C 42.55 331.74 48.55 336.37 54.99 340.03 C 59.61 342.59 63.86 345.72 67.98 349.04 C 71.74 345.39 75.87 342.16 79.86 338.78 C 85.62 333.83 91.38 328.71 98.26 325.35 C 103.39 322.75 109.17 319.46 110.64 313.43 C 111.93 307.47 110.48 301.37 109.33 295.51 C 106.77 285.32 103.98 275.20 101.47 265.01 C 100.80 262.59 100.32 259.52 97.74 258.38 C 90.03 255.07 81.85 252.98 73.99 250.07 C 65.45 247.00 58.11 241.51 50.10 237.37 C 37.37 247.83 22.99 256.53 12.26 269.26 M 510.25 268.40 C 498.24 280.31 487.35 293.39 475.24 305.24 C 471.88 308.18 470.46 312.77 471.40 317.12 C 472.94 327.27 473.05 337.66 475.58 347.64 C 476.16 349.15 476.23 351.35 478.04 351.96 C 484.65 354.69 491.15 357.77 497.98 359.93 C 507.65 362.83 517.38 365.55 527.01 368.59 C 528.99 369.16 530.99 369.88 533.08 369.85 C 535.97 369.19 537.45 366.29 539.27 364.23 C 547.32 353.59 558.16 345.63 568.73 337.71 C 571.13 336.29 571.17 333.36 570.40 330.99 C 567.27 318.47 564.24 305.93 561.54 293.32 C 560.63 288.46 556.19 285.60 551.80 284.21 C 539.45 279.32 527.28 274.01 515.05 268.86 C 513.54 268.38 511.72 267.27 510.25 268.40 M 405.42 281.29 C 394.53 290.41 383.67 299.57 372.81 308.73 C 370.78 310.44 368.84 312.45 368.05 315.05 C 366.74 319.00 368.32 323.05 368.95 326.97 C 371.18 339.39 373.37 351.84 376.22 364.14 C 376.83 367.49 379.68 370.04 382.93 370.83 C 401.04 375.96 419.19 380.97 437.09 386.79 C 447.74 377.82 458.42 368.89 469.04 359.89 C 471.30 358.16 472.32 355.15 471.47 352.40 C 467.37 336.55 467.70 320.00 464.54 303.99 C 463.97 300.99 460.32 300.80 458.04 299.76 C 443.11 295.29 429.84 286.96 415.99 280.07 C 412.61 278.41 408.25 278.69 405.42 281.29 M 208.58 309.54 C 199.71 313.43 191.17 318.37 184.19 325.14 C 179.02 330.33 173.71 335.39 168.66 340.70 C 172.27 356.40 174.91 372.32 177.46 388.22 C 177.95 392.15 181.26 394.95 184.94 395.89 C 199.55 400.62 211.23 411.66 226.08 415.78 C 227.56 415.98 229.42 417.11 230.66 415.71 C 242.96 405.40 255.02 394.79 266.89 383.99 C 269.79 381.23 271.29 377.05 270.40 373.09 C 267.18 357.96 265.03 342.62 262.45 327.37 C 250.48 320.84 237.88 315.53 225.04 310.99 C 219.81 309.31 213.94 307.25 208.58 309.54 Z" />
<path fill="#231f20" opacity="1.00" d=" M 520.77 16.82 C 522.04 16.03 524.27 15.21 525.26 16.81 C 526.65 18.44 524.97 20.61 523.62 21.64 C 517.33 25.70 510.19 28.45 504.52 33.44 C 500.43 37.01 496.60 40.86 492.76 44.68 C 490.86 46.29 491.50 48.90 492.18 50.92 C 495.28 60.69 495.56 71.30 500.41 80.50 C 502.00 83.08 498.53 84.74 497.06 86.33 C 495.21 83.40 493.47 80.33 492.80 76.88 C 490.57 67.42 488.71 57.88 486.40 48.44 C 485.77 45.94 485.56 42.67 488.02 41.06 C 492.04 38.46 494.76 34.43 498.48 31.48 C 505.33 25.76 513.18 21.45 520.77 16.82 Z" />
<path fill="#231f20" opacity="1.00" d=" M 576.93 94.86 C 579.11 92.99 582.04 94.11 584.08 95.59 C 576.32 103.32 567.95 110.41 560.12 118.07 C 558.06 120.12 555.10 121.27 553.75 123.99 C 551.90 127.26 552.66 131.16 553.63 134.58 C 556.10 143.14 556.47 152.37 560.80 160.32 C 561.80 162.21 562.89 165.09 560.82 166.66 C 559.01 167.83 557.27 166.06 556.28 164.68 C 554.84 162.14 554.17 159.26 553.40 156.48 C 551.07 146.99 548.89 137.46 546.56 127.97 C 546.11 126.00 545.56 123.71 546.89 121.95 C 548.98 119.38 551.76 117.48 554.17 115.22 C 561.83 108.51 568.97 101.21 576.93 94.86 Z" />
<path fill="#231f20" opacity="1.00" d=" M 448.19 132.07 C 450.50 131.89 453.16 132.68 453.64 135.28 C 456.76 146.34 458.73 157.69 460.88 168.98 C 460.79 170.62 462.67 170.76 463.76 171.33 C 475.23 175.73 486.20 181.39 496.62 187.90 C 495.84 189.04 495.54 190.84 494.01 191.21 C 491.75 191.77 489.72 190.24 487.85 189.23 C 479.03 183.26 468.78 180.02 459.08 175.84 C 455.78 174.52 455.45 170.50 454.77 167.49 C 453.86 157.20 451.62 147.08 448.81 137.15 C 448.31 135.50 448.18 133.78 448.19 132.07 Z" />
<path fill="#231f20" opacity="1.00" d=" M 181.64 147.62 C 183.70 145.58 186.70 146.28 189.12 147.12 C 188.71 149.09 187.50 150.75 186.01 152.06 C 178.00 159.10 169.70 165.82 161.74 172.92 C 162.65 173.86 163.56 174.80 164.46 175.75 C 162.28 177.94 161.12 181.13 162.22 184.15 C 164.59 192.24 168.17 199.95 170.56 208.04 C 171.11 210.39 168.71 211.40 166.99 212.15 C 163.51 209.43 163.14 204.80 161.79 200.91 C 159.13 192.76 157.29 184.35 155.77 175.92 C 155.09 172.62 156.81 169.37 159.30 167.29 C 166.75 160.74 174.06 154.02 181.64 147.62 Z" />
<path fill="#231f20" opacity="1.00" d=" M 444.32 196.32 C 445.75 194.64 448.45 194.56 450.03 196.08 C 451.23 198.98 448.12 200.71 446.47 202.51 C 439.53 209.54 432.67 216.66 425.62 223.59 C 423.05 225.98 421.16 229.51 422.06 233.10 C 425.47 244.32 428.10 255.84 433.39 266.39 C 432.33 267.66 431.19 268.87 430.02 270.04 C 426.53 265.66 424.82 260.25 422.85 255.10 C 419.48 245.25 416.04 235.27 414.88 224.87 C 423.03 220.27 428.62 212.60 435.07 206.05 C 438.20 202.86 441.14 199.47 444.32 196.32 Z" />
<path fill="#231f20" opacity="1.00" d=" M 514.25 214.15 C 516.50 213.99 517.98 215.75 518.13 217.88 C 519.92 228.11 521.63 238.39 524.52 248.37 C 525.52 251.76 528.65 254.12 532.05 254.75 C 543.74 257.20 555.59 259.22 566.84 263.32 C 568.70 264.02 570.15 265.44 571.62 266.73 C 570.18 267.80 568.95 269.65 566.96 269.58 C 564.07 268.90 561.47 267.41 558.66 266.51 C 547.27 262.46 534.85 262.14 523.70 257.30 C 519.52 255.15 518.54 250.15 517.90 245.93 C 516.31 237.31 514.83 228.67 513.10 220.07 C 512.61 218.02 513.45 216.00 514.25 214.15 Z" />
<path fill="#231f20" opacity="1.00" d=" M 238.40 233.39 C 240.84 231.17 243.10 228.63 246.05 227.05 C 247.52 225.90 249.16 227.20 250.55 227.77 C 250.00 231.06 246.95 232.64 244.80 234.80 C 237.81 241.46 230.65 247.95 223.67 254.61 C 221.54 256.48 221.29 259.54 222.20 262.08 C 224.57 270.43 226.31 278.98 229.33 287.13 C 230.41 289.28 228.20 291.77 225.99 291.62 C 224.21 291.83 223.86 289.67 223.33 288.46 C 220.03 277.57 216.63 266.65 215.05 255.34 C 222.88 248.08 230.59 240.69 238.40 233.39 Z" />
<path fill="#231f20" opacity="1.00" d=" M 316.20 235.15 L 316.90 234.60 C 317.34 234.74 318.22 235.02 318.66 235.16 C 321.53 245.00 324.39 254.86 326.68 264.85 C 327.87 269.53 327.31 276.02 332.42 278.50 C 340.65 281.80 349.17 284.33 357.43 287.55 C 358.99 288.17 361.03 288.88 361.06 290.94 C 361.56 293.40 358.10 294.79 356.23 293.71 C 346.76 290.26 337.35 286.68 327.94 283.09 C 325.30 282.23 323.29 279.84 323.10 277.04 C 321.75 265.76 318.77 254.76 315.12 244.02 C 314.17 241.12 312.99 237.08 316.20 235.15 Z" />
<path fill="#231f20" opacity="1.00" d=" M 42.27 254.38 C 44.26 253.66 47.76 253.04 48.32 255.87 C 46.87 259.29 43.40 261.24 40.95 263.90 C 36.25 268.53 31.13 272.76 26.61 277.58 C 23.11 281.39 21.80 287.12 23.88 291.95 C 26.84 299.04 28.20 306.64 30.13 314.05 C 30.60 315.61 30.98 318.23 28.87 318.76 C 26.22 319.94 23.97 317.36 23.49 314.99 C 20.79 303.95 18.49 292.80 15.47 281.84 C 14.82 279.27 16.91 277.07 19.01 275.96 C 27.93 270.11 34.47 261.50 42.27 254.38 Z" />
<path fill="#231f20" opacity="1.00" d=" M 115.79 266.97 C 115.73 264.65 118.57 263.69 120.40 264.51 C 121.84 266.33 121.79 268.83 122.45 270.98 C 125.01 280.96 127.71 290.90 130.20 300.90 C 130.52 302.02 130.69 303.43 132.01 303.85 C 144.02 309.54 157.56 311.48 169.05 318.40 C 168.17 320.37 166.99 322.18 165.76 323.94 C 155.98 317.14 144.08 314.94 132.98 311.24 C 129.94 310.08 124.44 310.61 124.19 306.20 C 123.79 292.69 117.85 280.19 115.79 266.97 Z" />
<path fill="#231f20" opacity="1.00" d=" M 507.62 282.66 C 508.32 281.82 509.41 280.82 510.60 281.36 C 512.92 282.18 512.03 285.28 510.71 286.65 C 503.79 294.75 496.11 302.20 489.67 310.70 C 486.68 315.48 489.55 321.09 490.62 326.01 C 492.52 334.58 496.06 342.96 495.87 351.86 C 494.93 352.72 494.00 353.61 493.09 354.51 C 491.83 353.27 490.06 352.14 490.20 350.13 C 489.02 337.74 484.68 325.99 481.88 313.94 C 481.05 311.95 482.28 310.03 483.52 308.56 C 491.47 299.85 499.73 291.42 507.62 282.66 Z" />
<path fill="#231f20" opacity="1.00" d=" M 412.36 289.45 C 414.31 288.62 416.24 289.86 418.05 290.48 C 417.48 291.44 416.86 292.37 416.02 293.12 C 408.67 300.07 401.08 306.76 393.80 313.79 C 391.69 315.66 388.87 316.95 387.69 319.68 C 386.07 322.88 386.83 326.57 387.73 329.86 C 390.24 338.54 390.63 347.92 395.07 355.97 C 396.26 357.96 396.96 361.63 393.99 362.39 C 390.40 362.04 389.34 357.92 388.41 355.03 C 385.51 344.13 383.09 333.10 380.44 322.14 C 379.57 319.69 380.58 317.08 382.58 315.55 C 390.82 308.48 398.65 300.96 406.74 293.74 C 408.54 292.23 410.22 290.48 412.36 289.45 Z" />
<path fill="#231f20" opacity="1.00" d=" M 282.30 331.44 C 284.39 330.51 285.94 332.70 286.40 334.47 C 288.22 340.64 289.97 346.83 291.52 353.07 C 292.35 358.12 292.81 363.63 296.26 367.73 C 300.35 372.79 307.10 374.11 313.12 375.42 C 319.34 376.86 325.94 375.21 332.02 377.45 C 333.90 378.02 335.64 380.34 334.32 382.23 C 333.75 383.79 331.81 384.08 330.48 383.38 C 326.48 381.75 322.13 381.85 317.90 381.67 C 309.28 381.24 301.40 377.25 293.00 375.76 C 291.04 375.41 289.96 373.44 289.54 371.67 C 287.53 362.83 286.81 353.73 284.48 344.97 C 283.35 340.64 280.11 336.33 281.65 331.71 L 282.30 331.44 Z" />
<path fill="#231f20" opacity="1.00" d=" M 106.35 339.27 C 107.81 338.08 109.67 338.67 111.35 338.81 C 112.75 342.52 109.17 344.91 106.39 346.44 C 98.19 350.82 90.94 356.93 85.16 364.21 C 83.79 365.81 83.36 368.09 84.32 370.02 C 86.82 376.73 89.53 383.36 91.91 390.12 C 92.73 392.39 92.94 394.92 92.34 397.28 C 91.26 399.30 87.57 399.69 86.81 397.16 C 83.47 386.74 80.43 376.22 77.29 365.73 C 76.54 363.13 78.96 361.18 80.69 359.67 C 89.03 352.62 96.84 344.77 106.35 339.27 Z" />
<path fill="#231f20" opacity="1.00" d=" M 183.13 344.94 C 184.25 345.74 185.85 346.18 186.28 347.66 C 188.58 353.92 190.77 360.24 192.61 366.65 C 193.49 370.90 192.69 375.79 195.75 379.32 C 199.83 384.19 206.38 385.63 211.93 388.17 C 217.22 390.58 223.07 391.89 227.96 395.10 C 230.12 396.72 228.02 399.32 226.90 400.89 C 217.03 397.01 207.21 392.96 197.74 388.16 C 194.10 386.31 188.87 384.92 188.31 380.14 C 187.59 371.67 186.63 362.99 182.70 355.31 C 180.88 352.06 180.10 347.74 183.13 344.94 Z" />
<path fill="#231f20" opacity="1.00" d=" M 278.45 382.44 C 280.90 380.90 283.72 382.86 286.03 383.81 C 297.16 389.45 309.16 392.92 321.04 396.53 C 323.65 397.19 326.04 398.47 328.22 400.05 C 327.87 402.88 325.18 405.26 322.36 403.54 C 309.00 397.46 294.10 395.19 281.37 387.69 C 279.68 386.65 276.57 384.69 278.45 382.44 Z" />
</g>
</svg>
