<?xml version="1.0" encoding="UTF-8" ?>
<!DOCTYPE svg PUBLIC "-//W3C//DTD SVG 1.1//EN" "http://www.w3.org/Graphics/SVG/1.1/DTD/svg11.dtd">
<svg width="1855pt" height="194pt" viewBox="0 0 1855 194" version="1.1" xmlns="http://www.w3.org/2000/svg">
<g id="#ffffffff">
<path fill="#ffffff" opacity="1.00" d=" M 0.00 0.00 L 1854.35 0.00 C 1841.46 14.03 1826.46 26.02 1810.98 37.07 C 1796.44 47.22 1780.81 56.13 1763.86 61.54 C 1751.76 65.37 1738.70 67.15 1726.18 64.44 C 1711.37 61.35 1698.09 53.60 1685.51 45.49 C 1669.37 35.17 1653.90 23.49 1636.18 15.91 C 1623.61 10.49 1609.71 7.64 1596.04 9.35 C 1581.90 11.16 1568.44 16.87 1556.55 24.62 C 1541.65 34.45 1529.76 48.18 1520.05 63.03 C 1499.32 94.80 1486.49 131.19 1463.76 161.72 C 1447.62 182.78 1420.96 193.89 1394.79 194.00 L 1389.53 194.00 C 1367.61 192.94 1345.29 186.09 1328.52 171.52 C 1322.23 166.26 1317.69 159.37 1313.26 152.58 C 1295.05 124.40 1277.66 95.56 1256.37 69.55 C 1242.46 52.59 1227.12 36.52 1209.05 23.93 C 1193.42 13.06 1175.24 5.02 1156.03 3.98 C 1136.06 3.28 1115.95 5.77 1096.84 11.65 C 1069.49 19.92 1045.16 35.25 1019.74 47.87 C 991.47 61.90 960.99 73.63 929.03 74.01 C 885.76 75.04 844.23 58.99 801.02 59.35 C 780.31 59.44 759.63 63.98 740.88 72.80 C 722.31 81.39 705.94 94.11 691.47 108.47 C 679.75 119.72 669.24 132.18 657.08 142.97 C 649.15 149.84 639.74 156.08 628.94 156.60 C 617.04 157.26 605.90 151.47 596.87 144.20 C 583.36 133.22 572.84 119.15 562.86 105.03 C 551.98 89.52 542.10 73.32 530.96 57.99 C 522.57 47.31 509.50 41.75 496.76 38.19 C 478.62 33.25 459.72 31.83 440.99 31.46 C 413.61 31.07 386.26 33.21 359.09 36.52 C 351.53 37.48 343.91 38.28 336.52 40.28 C 320.62 44.33 305.95 51.89 291.33 59.14 C 277.74 65.92 264.03 72.53 249.75 77.75 C 225.88 86.62 200.74 91.84 175.41 94.18 C 154.29 96.10 132.78 97.02 111.88 92.70 C 82.28 87.02 54.76 71.79 33.89 50.10 C 20.95 36.76 10.22 21.28 2.25 4.50 C 1.51 3.13 1.32 1.31 0.00 0.34 L 0.00 0.00 Z" />
</g>
</svg>
