
<svg xmlns="http://www.w3.org/2000/svg" width="359" height="52" viewBox="0 0 359 52">
  <defs>
    <style>
      .cls-1 {
        fill-opacity: 0;
        stroke: #000;
        stroke-linejoin: round;
        stroke-width: 3px;
        fill-rule: evenodd;
      }
    </style>
  </defs>
  <path id="INSTAGRAM" class="cls-1" d="M338.984,880.453v-40.22H328.306v40.22h10.678Zm18.942,0.025V860.817l20.667,20.035h3.385V840.183H371.3v19.611l-20.609-19.96h-3.443v40.644h10.678Zm35.8-1.549A19.681,19.681,0,0,0,402.776,881a18.376,18.376,0,0,0,7.481-1.507,13.455,13.455,0,0,0,5.551-4.421,11.041,11.041,0,0,0,2.129-6.688q0-7.86-10.422-12.157-0.771-.317-1.741-0.7t-1.584-.61q-0.613-.231-1.314-0.513a8.866,8.866,0,0,1-1.1-.512,6.087,6.087,0,0,1-.764-0.525,1.949,1.949,0,0,1-.526-0.611,1.531,1.531,0,0,1-.162-0.708,2.048,2.048,0,0,1,1.076-1.732,4.825,4.825,0,0,1,2.7-.708,9.221,9.221,0,0,1,3.528.769,5.261,5.261,0,0,1,2.681,2.209l6.135-5.939a9.993,9.993,0,0,0-4.58-5.067,15.513,15.513,0,0,0-7.889-1.952,16.261,16.261,0,0,0-7.031,1.532,13.018,13.018,0,0,0-5.213,4.33,10.6,10.6,0,0,0-1.966,6.241,10.439,10.439,0,0,0,.732,3.955,9.376,9.376,0,0,0,2.1,3.161,17.214,17.214,0,0,0,2.956,2.355,26.42,26.42,0,0,0,3.626,1.879q1.315,0.587,1.992.88t1.815,0.842a16.388,16.388,0,0,1,1.741.94q0.6,0.39,1.277.89a3.547,3.547,0,0,1,.964.989,1.909,1.909,0,0,1,.288.976,1.962,1.962,0,0,1-1.328,1.782,7.3,7.3,0,0,1-3.18.635,10.824,10.824,0,0,1-4.717-1.038,8.476,8.476,0,0,1-3.423-2.843l-6.462,6.312A11.383,11.383,0,0,0,393.721,878.929Zm37.669-28.716v30.24h10.678v-30.24h9.656v-9.98H421.709v9.98h9.681Zm34.86,30.24,2.046-4.691h15.02l2.021,4.691h11.7l-18.713-40.719h-5.065l-18.688,40.719H466.25Zm9.556-22.031,4.117,9.531h-8.259Zm31.18,16.779a22.126,22.126,0,0,0,7.148,4.516,23.6,23.6,0,0,0,8.883,1.684,22.326,22.326,0,0,0,8.046-1.447,20.332,20.332,0,0,0,6.574-4.017,18.242,18.242,0,0,0,4.417-6.375,20.939,20.939,0,0,0,1.621-8.3,27.151,27.151,0,0,0-.324-3.917H522.717v7.959h9.207a5.441,5.441,0,0,1-2.445,4.462,10.256,10.256,0,0,1-6.038,1.651,13.032,13.032,0,0,1-4.99-.941,10.98,10.98,0,0,1-3.793-2.491,11.433,11.433,0,0,1-2.333-3.532,10.429,10.429,0,0,1-.835-4.089,10.62,10.62,0,0,1,1.559-5.614,11.35,11.35,0,0,1,4.142-4.042,11.028,11.028,0,0,1,5.551-1.472,11.633,11.633,0,0,1,4.479.936,13.207,13.207,0,0,1,3.954,2.507l5.914-8.108a19.166,19.166,0,0,0-6.488-3.78,23.491,23.491,0,0,0-7.859-1.535,22.623,22.623,0,0,0-8.707,1.7,22.1,22.1,0,0,0-7.061,4.553,21.312,21.312,0,0,0-4.666,6.749,20.013,20.013,0,0,0,0,16.243A21,21,0,0,0,506.986,875.2Zm43.256,5.252h10.679V863.2l10.758,17.251h12.5l-10.778-15.946a11.827,11.827,0,0,0,5.014-4.312,11.524,11.524,0,0,0,1.963-6.556,12.532,12.532,0,0,0-1.9-6.741,13.507,13.507,0,0,0-5.331-4.861,16.263,16.263,0,0,0-7.679-1.8H550.192Zm10.629-30.24h4.366a4.528,4.528,0,0,1,3.057,1.109,3.866,3.866,0,0,1,.012,5.767,4.512,4.512,0,0,1-2.994,1.11h-0.075l-4.366-.025v-7.961ZM598,880.453l2.046-4.691h15.02l2.021,4.691h11.7l-18.712-40.719h-5.065l-18.688,40.719H598Zm9.556-22.031,4.117,9.531h-8.259Zm37.205,22.031V864.51l10.854,15.269h0.075L666.52,864.51v15.943H677.2V839.859h-4.292l-17.265,23.653-17.266-23.653h-4.291v40.594h10.678Z" transform="translate(-323 -834)"/>
</svg>
