<?xml version="1.0" encoding="UTF-8" ?>
<!DOCTYPE svg PUBLIC "-//W3C//DTD SVG 1.1//EN" "http://www.w3.org/Graphics/SVG/1.1/DTD/svg11.dtd">
<svg width="730pt" height="644pt" viewBox="0 0 730 644" version="1.1" xmlns="http://www.w3.org/2000/svg">
<g id="#ffffffff">
<path fill="#ffffff" opacity="1.00" d=" M 346.43 0.00 L 352.52 0.00 C 356.83 0.10 360.82 3.35 360.65 7.88 C 360.53 14.85 361.34 22.02 359.83 28.87 C 357.40 35.82 348.75 34.01 343.02 34.52 C 342.48 23.12 341.93 11.72 341.38 0.32 C 343.06 0.21 344.74 0.09 346.43 0.00 M 347.83 4.51 C 348.07 12.98 348.30 21.44 348.59 29.91 C 350.43 29.58 352.93 29.98 353.99 28.03 C 355.13 25.15 354.48 21.96 354.61 18.94 C 354.40 14.96 354.89 10.91 354.18 6.97 C 353.44 4.17 350.04 4.66 347.83 4.51 Z" />
<path fill="#ffffff" opacity="1.00" d=" M 312.26 2.92 C 314.18 2.68 316.11 2.44 318.05 2.21 C 319.37 13.55 320.70 24.90 322.04 36.24 C 319.95 36.52 317.86 36.78 315.78 37.07 C 312.44 29.34 309.12 21.60 305.56 13.97 C 307.27 21.90 308.31 29.96 309.65 37.95 C 307.90 38.24 306.16 38.53 304.41 38.82 C 302.42 27.57 300.44 16.31 298.46 5.06 C 300.87 4.66 303.29 4.27 305.71 3.88 C 309.28 11.17 312.50 18.62 315.65 26.10 C 314.22 18.42 313.32 10.66 312.26 2.92 Z" />
<path fill="#ffffff" opacity="1.00" d=" M 409.25 3.82 C 414.53 5.06 421.26 4.39 424.92 9.11 C 426.85 13.43 425.37 19.75 421.00 22.08 C 424.67 25.14 423.33 30.19 422.07 34.10 C 421.25 36.79 418.90 39.06 416.01 39.23 C 411.96 39.43 408.03 38.19 404.04 37.70 C 405.78 26.41 407.51 15.11 409.25 3.82 M 414.59 9.03 C 414.00 12.24 413.41 15.46 412.96 18.69 C 414.55 18.73 416.23 19.22 417.79 18.69 C 419.66 17.11 419.80 14.29 419.84 12.01 C 419.38 9.59 416.44 9.63 414.59 9.03 M 412.23 22.67 C 411.53 26.59 410.84 30.50 410.22 34.43 C 412.18 34.41 415.21 35.65 416.25 33.20 C 417.16 30.95 417.62 28.49 417.60 26.07 C 417.39 23.39 414.18 23.29 412.23 22.67 Z" />
<path fill="#ffffff" opacity="1.00" d=" M 266.52 11.73 C 269.56 10.84 273.31 10.84 275.69 13.25 C 278.54 16.14 278.74 20.46 279.83 24.16 C 280.78 28.80 282.56 33.31 282.75 38.06 C 282.80 44.29 275.21 47.29 269.97 46.00 C 265.91 44.65 264.72 40.06 263.61 36.42 C 262.21 31.28 260.15 26.31 259.15 21.07 C 258.34 16.45 262.29 12.64 266.52 11.73 M 267.42 16.54 C 265.19 17.11 264.98 19.73 265.66 21.54 C 267.38 27.40 268.90 33.34 270.85 39.13 C 271.64 42.60 277.55 41.50 276.91 37.98 C 275.61 31.59 273.72 25.31 272.00 19.02 C 271.68 16.91 269.37 15.58 267.42 16.54 Z" />
<path fill="#ffffff" opacity="1.00" d=" M 453.98 13.76 C 456.84 14.62 459.70 15.50 462.55 16.38 C 461.24 27.95 459.63 39.48 457.86 50.99 C 455.97 50.36 454.07 49.73 452.18 49.10 C 452.64 46.04 453.11 42.98 453.58 39.92 C 451.73 39.35 449.87 38.78 448.02 38.21 C 446.73 41.01 445.44 43.81 444.16 46.61 C 442.29 46.09 440.42 45.56 438.55 45.03 C 443.51 34.51 448.66 24.09 453.98 13.76 M 450.14 33.68 C 451.55 34.14 452.97 34.60 454.40 35.05 C 455.16 29.95 456.02 24.86 456.79 19.76 C 454.56 24.40 452.46 29.09 450.14 33.68 Z" />
<path fill="#ffffff" opacity="1.00" d=" M 226.88 25.91 C 229.72 24.75 232.56 23.61 235.42 22.49 C 239.54 33.16 243.63 43.83 247.75 54.50 C 246.05 55.17 244.35 55.85 242.65 56.52 C 239.08 47.64 235.34 38.81 232.09 29.81 C 233.76 39.37 236.48 48.72 238.62 58.18 C 236.95 58.90 235.28 59.62 233.61 60.35 C 228.45 52.09 223.30 43.82 217.84 35.76 C 221.86 44.50 226.11 53.15 230.03 61.95 C 228.44 62.69 226.85 63.44 225.26 64.18 C 220.31 53.89 215.40 43.57 210.43 33.28 C 213.30 31.88 216.21 30.55 219.13 29.24 C 223.54 35.73 227.90 42.26 231.84 49.05 C 229.91 41.40 228.40 33.65 226.88 25.91 Z" />
<path fill="#ffffff" opacity="1.00" d=" M 489.89 28.83 C 493.99 27.06 498.88 29.21 501.76 32.28 C 504.34 35.13 502.76 39.11 501.36 42.12 C 499.46 41.30 497.58 40.43 495.71 39.57 C 496.25 37.73 498.37 34.53 495.62 33.45 C 492.89 32.11 491.41 35.83 491.09 37.95 C 491.44 41.57 494.47 44.15 495.68 47.48 C 497.71 51.91 495.51 57.03 492.41 60.36 C 488.53 64.32 481.92 62.15 478.69 58.44 C 476.13 55.42 477.72 51.39 478.98 48.20 C 480.80 48.97 482.64 49.74 484.47 50.51 C 483.73 52.59 481.80 56.01 484.73 57.29 C 487.07 58.67 488.95 55.90 489.58 53.95 C 491.47 49.82 487.78 46.28 486.14 42.80 C 483.20 38.19 485.38 31.55 489.89 28.83 Z" />
<path fill="#ffffff" opacity="1.00" d=" M 508.84 74.02 C 514.49 64.09 520.13 54.15 525.79 44.21 C 530.50 46.90 535.16 49.69 539.75 52.58 C 538.86 53.98 537.98 55.37 537.10 56.77 C 534.39 55.06 531.65 53.38 528.90 51.74 C 527.40 54.26 525.90 56.78 524.40 59.29 C 526.93 60.82 529.46 62.36 531.97 63.93 C 531.11 65.30 530.27 66.67 529.43 68.05 C 526.90 66.57 524.41 65.03 521.90 63.52 C 520.06 66.60 518.21 69.69 516.42 72.79 C 519.22 74.42 521.98 76.13 524.72 77.87 C 523.63 79.11 522.54 80.36 521.46 81.60 C 517.31 78.98 513.09 76.47 508.84 74.02 Z" />
<path fill="#ffffff" opacity="1.00" d=" M 182.69 48.12 C 187.85 56.52 192.84 65.02 197.93 73.45 C 200.69 71.82 203.47 70.22 206.27 68.64 C 206.90 70.11 207.53 71.57 208.16 73.04 C 203.85 75.48 199.57 77.97 195.39 80.62 C 189.27 70.96 183.26 61.23 177.17 51.55 C 179.01 50.41 180.86 49.27 182.69 48.12 Z" />
<path fill="#ffffff" opacity="1.00" d=" M 538.30 93.06 C 545.07 83.84 551.80 74.59 558.58 65.38 C 563.04 69.22 569.51 71.93 571.24 78.03 C 571.84 83.45 566.86 87.01 564.01 90.96 C 560.54 94.69 557.73 100.37 552.08 100.89 C 546.46 100.75 542.73 95.86 538.30 93.06 M 545.79 93.11 C 547.73 94.42 550.38 96.72 552.59 94.52 C 555.82 91.37 558.28 87.54 561.20 84.11 C 562.60 82.17 564.59 80.44 565.10 78.01 C 565.08 75.61 562.66 74.40 561.17 72.93 C 556.03 79.65 550.90 86.37 545.79 93.11 Z" />
<path fill="#ffffff" opacity="1.00" d=" M 153.20 68.03 C 162.19 75.43 170.59 83.56 179.08 91.54 C 177.39 92.75 175.72 93.97 174.05 95.21 C 171.77 93.12 169.70 90.80 167.22 88.96 C 165.56 90.04 164.05 91.32 162.50 92.54 C 164.06 95.20 165.59 97.88 167.11 100.56 C 165.53 101.84 163.95 103.12 162.36 104.40 C 156.69 94.22 151.14 83.98 145.89 73.58 C 148.33 71.73 150.66 69.74 153.20 68.03 M 152.60 74.69 C 155.08 79.18 157.64 83.63 160.08 88.15 C 161.31 87.22 162.54 86.29 163.77 85.36 C 160.03 81.82 156.35 78.22 152.60 74.69 Z" />
<path fill="#ffffff" opacity="1.00" d=" M 346.33 114.37 C 351.35 110.05 357.06 105.41 363.98 105.14 C 370.88 105.49 376.59 110.06 381.68 114.30 C 394.36 125.62 404.38 139.54 413.61 153.71 C 422.84 146.79 432.26 140.01 442.50 134.64 C 446.42 132.75 450.51 130.62 454.97 130.65 C 458.28 130.73 460.83 133.73 461.03 136.92 C 461.64 143.52 459.45 149.98 457.25 156.12 C 453.57 165.51 448.96 174.67 442.60 182.56 C 440.82 184.49 438.94 187.22 435.95 186.92 C 432.74 186.68 430.69 182.44 432.83 179.91 C 435.98 176.64 438.92 173.15 441.12 169.16 C 446.25 160.02 450.72 150.26 452.39 139.84 C 440.08 145.33 429.18 153.48 418.37 161.43 C 425.29 173.12 431.53 185.23 436.74 197.78 C 441.08 192.25 447.21 188.16 454.09 186.60 C 465.20 183.97 476.69 185.61 487.96 185.86 C 500.80 186.42 513.85 185.27 526.03 180.98 C 529.16 179.49 532.99 182.61 532.15 185.98 C 529.97 203.14 522.00 219.55 509.81 231.84 C 500.50 241.16 488.29 248.23 474.97 249.32 C 466.58 250.06 458.06 247.92 450.88 243.56 C 455.14 266.12 454.81 290.69 443.82 311.38 C 448.44 321.99 450.45 334.56 445.50 345.43 C 440.52 356.73 429.75 364.10 418.51 368.31 C 411.66 370.31 411.28 378.43 406.83 382.94 C 399.17 391.59 386.86 393.15 375.99 394.05 C 361.95 394.64 347.36 394.96 333.96 390.12 C 326.68 387.59 321.17 381.57 318.36 374.50 C 316.65 369.48 311.15 368.18 306.88 366.16 C 296.51 361.71 287.33 353.41 283.64 342.55 C 280.30 332.71 282.03 321.89 286.03 312.53 C 275.22 291.29 275.11 266.38 279.41 243.42 C 270.70 248.86 259.93 250.74 249.88 248.59 C 236.19 245.77 224.24 237.20 215.46 226.54 C 205.99 215.00 199.78 200.78 197.92 185.97 C 197.08 182.66 200.82 179.53 203.93 180.96 C 216.09 185.23 229.10 186.42 241.92 185.87 C 253.41 185.63 265.13 183.91 276.45 186.71 C 283.09 188.34 289.01 192.32 293.24 197.67 C 294.62 194.12 296.14 190.63 297.75 187.18 C 293.78 186.92 291.53 183.34 289.26 180.58 C 283.31 172.47 278.79 163.35 275.38 153.90 C 273.50 148.19 271.59 142.13 272.55 136.06 C 273.02 133.00 275.80 130.51 278.94 130.59 C 283.41 130.76 287.54 132.78 291.49 134.70 C 300.53 139.37 308.87 145.25 317.05 151.25 C 325.56 138.05 334.71 125.04 346.33 114.37 M 361.40 116.73 C 354.76 120.35 349.67 126.15 344.70 131.72 C 333.83 144.49 324.78 158.72 316.76 173.42 C 305.34 194.70 296.11 217.33 291.05 241.01 C 286.86 261.21 285.61 282.99 293.43 302.50 C 304.54 303.72 315.98 304.49 326.98 302.02 C 332.04 301.16 334.81 296.40 339.09 294.07 C 348.80 287.81 360.85 287.26 372.04 288.04 C 381.07 288.68 390.09 292.01 396.69 298.35 C 399.83 301.77 404.64 302.50 409.01 303.07 C 417.98 304.07 427.04 303.61 435.99 302.63 C 444.87 282.49 443.38 259.54 438.67 238.54 C 431.48 207.91 417.61 179.12 400.14 153.07 C 391.76 141.00 382.76 129.06 371.27 119.77 C 368.48 117.81 364.97 114.72 361.40 116.73 M 281.02 139.74 C 281.93 146.65 284.56 153.18 287.35 159.52 C 290.83 167.01 294.78 174.56 301.00 180.17 C 304.53 172.98 308.31 165.91 312.35 158.98 C 302.37 151.89 292.37 144.50 281.02 139.74 M 208.00 191.63 C 211.86 207.77 221.13 222.93 234.90 232.44 C 244.14 238.81 256.10 242.60 267.17 239.19 C 273.07 237.57 277.76 233.52 282.34 229.70 C 283.49 226.32 284.27 222.83 285.34 219.43 C 278.56 216.66 271.09 218.08 263.99 217.37 C 253.11 216.33 241.88 217.06 231.40 213.46 C 225.27 211.37 219.30 207.11 217.40 200.63 C 219.72 202.26 221.23 204.83 223.72 206.27 C 229.42 209.83 236.42 210.15 242.95 210.08 C 250.00 210.00 257.01 209.15 264.01 208.41 C 272.00 207.67 280.76 209.03 286.96 214.51 C 287.68 212.33 288.44 210.16 289.19 207.98 C 286.76 203.62 283.57 199.44 279.01 197.16 C 270.95 193.15 261.64 194.12 252.95 194.39 C 237.94 195.27 222.64 195.55 208.00 191.63 M 482.92 194.66 C 473.49 194.41 463.80 193.03 454.59 195.69 C 448.40 197.49 443.76 202.46 440.87 208.05 C 441.65 210.18 442.42 212.33 443.14 214.49 C 447.74 210.38 453.94 208.61 460.00 208.27 C 469.05 208.13 477.98 210.18 487.05 210.07 C 495.83 210.38 506.27 209.17 511.56 201.19 C 511.86 201.19 512.44 201.20 512.74 201.21 C 510.63 205.93 506.90 209.85 502.17 211.99 C 491.24 217.17 478.83 216.21 467.10 217.30 C 459.70 218.09 452.01 216.71 444.87 219.26 C 445.79 222.84 446.90 226.37 447.88 229.94 C 451.79 232.81 455.32 236.33 459.93 238.11 C 470.15 242.59 482.06 240.22 491.43 234.78 C 507.24 225.66 517.88 209.16 522.07 191.62 C 509.32 194.98 496.02 195.37 482.92 194.66 M 339.88 304.80 C 336.01 308.87 330.50 310.69 325.10 311.60 C 315.47 313.19 305.66 312.76 295.99 311.88 C 293.05 318.87 290.15 326.28 290.99 334.03 C 291.59 342.41 297.09 349.64 303.84 354.27 C 309.66 358.39 317.00 359.77 322.52 364.39 C 335.46 359.44 349.15 356.16 363.03 355.73 C 378.33 355.45 393.49 358.99 407.75 364.37 C 413.28 359.76 420.62 358.38 426.45 354.25 C 432.61 349.97 437.80 343.62 439.01 336.05 C 440.48 327.69 437.67 319.33 434.10 311.87 C 424.72 312.78 415.20 313.14 405.86 311.72 C 400.16 310.84 394.32 308.99 390.25 304.69 C 383.61 298.24 373.95 296.57 365.03 296.78 C 356.11 296.58 346.49 298.34 339.88 304.80 M 327.19 372.27 C 330.31 380.10 338.86 383.21 346.59 384.21 C 359.31 385.85 372.32 385.90 385.01 383.99 C 392.33 382.94 400.13 379.60 403.08 372.28 C 390.89 367.79 378.01 364.79 364.98 364.71 C 352.05 364.84 339.28 367.83 327.19 372.27 Z" />
<path fill="#ffffff" opacity="1.00" d=" M 79.16 274.40 C 110.20 274.41 141.25 274.40 172.29 274.41 C 172.29 275.10 172.28 276.47 172.28 277.16 C 141.23 277.16 110.19 277.16 79.15 277.16 C 79.15 276.47 79.16 275.09 79.16 274.40 Z" />
<path fill="#ffffff" opacity="1.00" d=" M 554.16 274.40 C 585.20 274.41 616.25 274.40 647.29 274.41 C 647.29 275.10 647.28 276.47 647.28 277.16 C 616.24 277.16 585.20 277.16 554.16 277.16 C 554.16 276.47 554.16 275.09 554.16 274.40 Z" />
<path fill="#ffffff" opacity="1.00" d=" M 107.74 294.78 C 109.47 291.53 114.12 291.27 117.06 292.88 C 119.61 294.42 119.38 297.74 119.62 300.32 C 117.98 300.33 116.35 300.35 114.71 300.36 C 114.44 298.98 114.73 297.38 113.81 296.22 C 111.49 295.95 111.73 299.22 112.44 300.62 C 114.70 303.52 118.75 305.17 119.63 309.05 C 120.20 312.25 120.31 316.36 117.52 318.61 C 115.10 320.24 111.68 320.24 109.13 318.91 C 106.40 317.33 106.53 313.83 106.37 311.10 C 108.06 311.06 109.76 311.05 111.46 311.03 C 111.55 312.74 111.49 317.21 114.32 315.03 C 116.01 311.11 112.55 308.26 109.87 306.08 C 106.45 303.49 106.08 298.47 107.74 294.78 Z" />
<path fill="#ffffff" opacity="1.00" d=" M 160.09 292.37 C 164.03 292.69 168.63 291.40 172.02 293.98 C 175.01 297.20 173.75 302.01 174.04 305.99 C 173.77 310.15 175.10 315.68 171.09 318.45 C 167.70 320.13 163.73 319.21 160.09 319.44 C 160.09 310.41 160.09 301.39 160.09 292.37 M 165.42 296.33 C 165.31 302.73 165.28 309.14 165.44 315.54 C 166.75 315.09 168.78 314.85 168.62 313.01 C 168.81 308.29 168.77 303.57 168.64 298.86 C 168.87 296.93 166.74 296.73 165.42 296.33 Z" />
<path fill="#ffffff" opacity="1.00" d=" M 81.12 292.38 C 84.83 292.37 88.54 292.37 92.25 292.38 C 92.25 293.91 92.25 295.45 92.25 296.99 C 90.29 296.99 88.32 297.00 86.36 297.02 C 86.37 298.98 86.38 300.94 86.38 302.91 C 88.23 302.90 90.08 302.90 91.94 302.91 C 91.94 304.43 91.94 305.97 91.94 307.50 C 90.08 307.50 88.23 307.50 86.38 307.50 C 86.38 309.93 86.38 312.37 86.37 314.81 C 88.55 314.81 90.72 314.81 92.90 314.81 C 92.69 316.35 92.49 317.89 92.28 319.44 C 88.56 319.44 84.84 319.44 81.12 319.44 C 81.12 310.42 81.13 301.40 81.12 292.38 Z" />
<path fill="#ffffff" opacity="1.00" d=" M 133.00 292.38 C 137.38 292.37 141.77 292.37 146.16 292.38 C 146.15 293.91 146.16 295.45 146.16 297.00 C 144.83 297.00 143.51 297.00 142.19 297.00 C 142.19 304.48 142.19 311.96 142.19 319.44 C 140.44 319.43 138.69 319.44 136.94 319.44 C 136.94 311.96 136.94 304.48 136.94 297.00 C 135.62 297.00 134.31 297.00 133.00 297.00 C 133.00 295.45 133.00 293.91 133.00 292.38 Z" />
<path fill="#ffffff" opacity="1.00" d=" M 558.49 293.67 C 561.55 292.01 566.65 292.39 568.00 296.13 C 569.02 299.38 568.69 303.15 566.79 306.03 C 564.93 308.93 562.66 311.62 561.53 314.93 C 564.02 314.97 566.53 314.97 569.04 314.97 C 568.83 316.45 568.60 317.92 568.40 319.40 C 564.20 319.41 559.99 319.41 555.79 319.40 C 555.75 314.38 558.03 309.85 560.98 305.95 C 562.97 303.47 564.03 300.21 563.03 297.08 C 560.17 296.17 560.81 299.43 560.44 301.16 C 558.88 301.16 557.33 301.15 555.79 301.15 C 555.98 298.52 555.88 295.21 558.49 293.67 Z" />
<path fill="#ffffff" opacity="1.00" d=" M 586.40 293.42 C 589.20 292.25 593.07 292.49 595.03 295.07 C 596.71 297.35 596.31 300.35 596.39 303.02 C 596.26 307.01 596.65 311.04 596.11 315.01 C 595.24 321.21 584.56 321.57 583.33 315.42 C 582.63 310.66 583.15 305.81 582.99 301.01 C 582.84 298.17 583.50 294.70 586.40 293.42 M 588.69 297.58 L 588.31 297.98 C 587.97 303.52 587.88 309.15 588.36 314.69 C 588.72 314.87 589.45 315.23 589.81 315.41 L 590.77 315.02 C 591.64 309.70 591.08 304.19 591.10 298.80 C 591.39 297.46 589.53 296.63 588.69 297.58 Z" />
<path fill="#ffffff" opacity="1.00" d=" M 612.80 293.79 C 615.80 292.02 620.91 292.29 622.39 295.94 C 623.58 299.27 623.17 303.21 621.19 306.16 C 619.30 308.98 617.19 311.68 615.96 314.88 C 618.47 314.98 620.99 314.97 623.51 314.98 C 623.30 316.45 623.09 317.93 622.88 319.41 C 618.68 319.40 614.47 319.43 610.28 319.38 C 610.47 315.86 611.21 312.29 613.22 309.33 C 615.49 305.69 619.16 301.94 617.54 297.25 C 614.87 295.91 615.13 299.57 614.91 301.16 C 613.35 301.15 611.80 301.15 610.26 301.15 C 610.46 298.57 610.34 295.36 612.80 293.79 Z" />
<path fill="#ffffff" opacity="1.00" d=" M 640.41 293.67 C 644.10 291.51 650.15 293.10 650.65 297.85 C 650.96 303.51 651.02 309.24 650.61 314.91 C 649.82 321.40 638.48 321.53 637.70 314.97 C 637.20 310.33 637.58 305.65 637.46 301.00 C 637.37 298.32 637.86 295.12 640.41 293.67 M 643.27 297.34 C 642.11 298.96 642.76 301.15 642.58 303.01 C 642.80 307.01 642.12 311.12 643.00 315.05 C 643.51 315.07 644.52 315.12 645.03 315.14 C 646.46 311.03 645.26 306.32 645.67 301.98 C 645.63 300.26 646.18 296.31 643.27 297.34 Z" />
<path fill="#ffffff" opacity="1.00" d=" M 319.41 327.52 C 324.93 326.85 330.56 327.37 336.12 327.23 C 338.45 326.96 340.90 328.53 341.23 330.94 C 341.77 333.50 339.62 336.25 336.96 336.17 C 331.31 336.22 325.64 336.38 320.01 336.07 C 315.78 335.42 315.33 328.78 319.41 327.52 Z" />
<path fill="#ffffff" opacity="1.00" d=" M 392.27 327.40 C 397.84 327.00 403.46 327.27 409.05 327.25 C 411.31 327.08 413.51 328.85 413.71 331.15 C 414.15 333.84 411.71 336.45 408.99 336.19 C 403.35 336.14 397.67 336.49 392.06 335.99 C 387.92 334.91 388.06 328.24 392.27 327.40 Z" />
<path fill="#ffffff" opacity="1.00" d=" M 79.15 334.07 C 110.20 334.05 141.24 334.06 172.29 334.06 C 172.29 334.74 172.27 336.11 172.27 336.79 C 141.23 336.77 110.20 336.78 79.16 336.78 C 79.16 336.10 79.15 334.75 79.15 334.07 Z" />
<path fill="#ffffff" opacity="1.00" d=" M 554.15 334.07 C 585.19 334.05 616.24 334.06 647.29 334.06 C 647.28 334.74 647.28 336.10 647.28 336.78 C 616.24 336.78 585.20 336.78 554.16 336.78 C 554.16 336.10 554.15 334.75 554.15 334.07 Z" />
<path fill="#ffffff" opacity="1.00" d=" M 464.52 469.65 C 475.54 447.74 499.42 432.96 524.02 433.41 C 541.00 433.31 557.71 440.40 569.93 452.10 C 582.55 464.24 590.40 481.44 590.52 499.03 C 590.83 511.81 587.16 524.58 580.33 535.36 C 569.83 552.36 551.34 564.17 531.48 566.45 C 530.27 557.72 529.78 548.75 531.52 540.06 C 532.17 537.62 532.83 534.63 535.31 533.40 C 538.43 532.52 540.93 535.47 543.92 535.42 C 547.35 533.62 547.85 529.32 549.34 526.12 C 551.03 520.79 554.62 516.32 556.11 510.93 C 559.12 501.03 557.51 489.85 551.77 481.25 C 545.73 471.96 535.13 465.84 524.06 465.34 C 510.87 464.43 497.61 471.68 491.20 483.22 C 485.91 492.39 485.14 503.96 489.05 513.78 C 493.34 524.97 504.52 532.23 507.43 544.10 C 508.68 548.41 507.22 552.74 506.43 556.97 C 506.15 559.95 510.17 561.03 511.91 558.94 C 514.30 556.41 512.03 552.91 511.93 549.98 C 510.93 543.74 513.40 535.80 519.98 533.74 C 522.79 532.65 523.53 536.14 524.13 538.09 C 526.42 547.46 526.73 557.25 526.04 566.84 C 513.04 567.39 499.98 563.88 488.94 557.02 C 474.81 548.45 464.31 534.34 459.61 518.55 C 454.95 502.42 456.60 484.49 464.52 469.65 M 518.36 441.65 C 518.05 446.24 517.78 450.84 517.52 455.44 C 518.44 455.50 520.28 455.63 521.20 455.69 C 521.36 453.34 521.50 451.00 521.72 448.67 C 522.98 450.67 524.10 452.76 525.33 454.80 C 526.71 452.85 528.09 450.90 529.55 449.00 C 529.47 451.39 529.34 453.77 529.21 456.16 C 530.14 456.21 531.99 456.31 532.91 456.37 C 533.19 451.76 533.49 447.17 533.73 442.57 C 532.84 442.52 531.07 442.44 530.18 442.39 C 528.69 444.34 527.18 446.27 525.67 448.20 C 524.38 446.10 523.12 444.00 521.87 441.89 C 520.70 441.80 519.52 441.72 518.36 441.65 M 546.18 446.74 C 544.24 450.89 542.32 455.06 540.40 459.22 C 541.23 459.62 542.88 460.41 543.71 460.80 C 545.72 456.63 547.67 452.43 549.54 448.20 C 548.42 447.70 547.30 447.22 546.18 446.74 M 487.38 453.48 C 482.15 455.56 481.81 463.75 486.86 466.26 C 491.33 469.06 497.77 465.32 497.56 460.04 C 497.81 454.99 491.88 451.20 487.38 453.48 M 550.22 464.48 C 552.74 466.83 555.30 469.14 557.90 471.42 C 558.65 470.58 559.42 469.74 560.18 468.91 C 558.55 467.41 556.91 465.93 555.30 464.42 C 557.62 461.84 559.98 459.30 562.24 456.67 C 561.55 456.07 560.19 454.87 559.50 454.27 C 556.37 457.64 553.31 461.07 550.22 464.48 M 472.38 468.91 C 471.82 469.98 471.26 471.05 470.72 472.14 C 473.00 473.34 475.31 474.52 477.57 475.79 C 474.42 476.25 471.27 476.65 468.13 477.12 C 467.54 478.20 466.96 479.28 466.39 480.36 C 470.42 482.58 474.55 484.63 478.61 486.80 C 479.22 485.72 479.83 484.65 480.44 483.59 C 478.19 482.37 475.91 481.21 473.72 479.90 C 476.70 479.34 479.74 479.14 482.71 478.50 C 483.74 477.74 484.00 476.29 484.71 475.26 C 480.59 473.16 476.51 470.99 472.38 468.91 M 561.67 476.32 C 562.20 477.42 562.76 478.53 563.32 479.63 C 564.75 478.91 566.20 478.21 567.65 477.50 C 566.86 479.40 566.02 481.30 565.38 483.27 C 565.58 484.94 566.71 486.36 567.38 487.89 C 568.54 485.06 569.58 482.20 570.70 479.36 C 573.62 479.98 576.54 480.64 579.47 481.22 C 578.85 479.88 578.23 478.56 577.61 477.23 C 575.43 476.72 573.25 476.29 571.06 475.86 C 572.62 475.06 574.18 474.26 575.74 473.44 C 575.32 472.63 574.49 471.02 574.07 470.21 C 569.93 472.23 565.79 474.26 561.67 476.32 Z" />
<path fill="#ffffff" opacity="1.00" d=" M 0.00 438.82 C 0.77 437.24 1.96 435.56 3.96 435.75 C 12.64 435.60 21.33 435.70 30.01 435.70 C 32.52 435.35 35.08 437.33 34.89 439.97 C 35.02 452.65 34.89 465.33 34.93 478.01 C 34.94 479.72 35.21 481.42 35.56 483.11 C 38.46 480.14 40.80 476.70 43.31 473.41 C 51.77 462.21 60.21 450.98 68.68 439.78 C 70.54 437.10 73.77 435.66 77.00 435.85 C 88.03 435.91 99.06 435.69 110.08 435.96 C 111.74 435.82 112.48 437.62 112.37 439.02 C 111.60 441.13 109.92 442.72 108.59 444.49 C 94.31 462.27 80.08 480.08 65.83 497.88 C 63.59 500.09 63.94 503.72 66.33 505.68 C 83.32 523.68 100.16 541.85 117.07 559.93 C 118.44 561.24 118.19 564.53 115.88 564.51 C 103.90 564.71 91.91 564.53 79.93 564.60 C 76.87 564.75 73.72 563.66 71.74 561.24 C 60.73 548.92 49.69 536.62 38.69 524.28 C 37.77 523.26 36.77 522.23 35.37 521.96 C 34.30 534.89 35.36 547.95 34.84 560.92 C 34.77 563.32 32.30 564.82 30.07 564.58 C 21.43 564.58 12.80 564.65 4.17 564.55 C 2.21 564.75 0.94 563.25 0.00 561.76 L 0.00 438.82 Z" />
<path fill="#ffffff" opacity="1.00" d=" M 130.46 436.51 C 131.73 435.47 133.48 435.76 135.00 435.67 C 143.33 435.75 151.67 435.57 160.00 435.75 C 162.16 435.76 163.91 437.85 163.81 439.96 C 163.92 469.31 163.77 498.65 163.88 528.00 C 163.72 530.23 165.69 532.32 167.96 532.14 C 185.65 532.27 203.34 532.12 221.04 532.21 C 223.18 532.07 225.31 533.84 225.31 536.05 C 225.46 544.03 225.37 552.03 225.35 560.01 C 225.64 562.52 223.42 564.80 220.91 564.60 C 191.63 564.63 162.35 564.65 133.07 564.59 C 130.61 564.76 128.64 562.48 128.90 560.09 C 128.83 520.73 128.91 481.36 128.86 442.00 C 128.88 440.09 128.71 437.76 130.46 436.51 Z" />
<path fill="#ffffff" opacity="1.00" d=" M 241.12 436.28 C 249.98 435.27 259.06 436.12 268.01 435.83 C 270.66 435.38 273.96 436.93 273.81 439.99 C 273.88 480.03 273.84 520.08 273.82 560.12 C 274.05 562.37 272.18 564.60 269.88 564.55 C 260.95 564.64 252.02 564.60 243.10 564.57 C 240.65 564.78 238.66 562.46 238.93 560.09 C 238.88 520.40 238.92 480.71 238.91 441.02 C 238.78 439.20 239.33 437.11 241.12 436.28 Z" />
<path fill="#ffffff" opacity="1.00" d=" M 299.51 436.80 C 300.73 435.67 302.48 435.93 304.00 435.86 C 311.32 435.89 318.63 435.86 325.95 435.87 C 328.85 435.70 331.77 437.12 333.39 439.55 C 344.63 455.93 355.78 472.39 367.05 488.75 C 367.95 490.73 370.96 491.12 371.96 489.00 C 382.42 473.77 392.83 458.50 403.25 443.24 C 404.86 440.95 406.23 438.26 408.83 436.93 C 410.97 435.62 413.57 435.89 415.98 435.86 C 423.00 435.92 430.03 435.81 437.06 435.90 C 439.82 435.66 441.77 438.45 441.37 441.02 C 441.39 479.69 441.35 518.36 441.39 557.04 C 441.63 559.90 441.46 564.25 437.71 564.53 C 428.82 564.74 419.93 564.59 411.04 564.60 C 408.43 564.88 406.12 562.54 406.43 559.94 C 406.36 541.32 406.46 522.70 406.38 504.08 C 407.12 501.29 403.10 500.98 402.18 503.12 C 392.19 518.88 382.50 534.83 372.54 550.60 C 371.14 553.03 367.21 552.40 366.18 549.94 C 356.56 534.50 346.97 519.03 337.34 503.59 C 336.63 501.99 334.78 501.06 333.23 502.21 C 332.73 504.76 332.97 507.37 332.93 509.95 C 332.92 526.66 332.97 543.38 332.91 560.09 C 333.11 562.37 331.24 564.62 328.90 564.57 C 319.95 564.67 310.99 564.66 302.04 564.57 C 299.67 564.63 297.75 562.36 298.00 560.04 C 297.92 520.70 298.01 481.37 297.96 442.03 C 297.94 440.20 297.87 438.01 299.51 436.80 Z" />
<path fill="#ffffff" opacity="1.00" d=" M 608.85 440.98 C 608.47 438.45 610.16 435.60 612.97 435.75 C 621.65 435.60 630.34 435.70 639.02 435.70 C 642.19 435.58 645.19 437.31 646.91 439.94 C 661.57 460.65 676.30 481.31 690.93 502.03 C 691.96 503.40 692.99 505.22 695.02 504.94 C 695.72 501.66 695.38 498.29 695.44 494.97 C 695.46 476.67 695.39 458.37 695.47 440.08 C 695.25 437.61 697.49 435.44 699.96 435.72 C 707.97 435.61 715.99 435.73 724.01 435.67 C 726.54 435.32 729.05 436.34 730.00 438.84 L 730.00 561.46 C 729.22 563.08 727.89 564.69 725.91 564.56 C 717.28 564.70 708.63 564.63 700.00 564.59 C 695.80 564.70 692.86 561.28 690.83 558.04 C 676.34 537.61 661.87 517.17 647.30 496.81 C 646.87 494.98 643.45 494.65 643.87 496.96 C 643.64 517.99 643.88 539.02 643.75 560.05 C 644.05 562.72 641.58 564.92 638.98 564.60 C 630.36 564.63 621.74 564.68 613.13 564.57 C 610.68 564.72 608.62 562.49 608.88 560.07 C 608.79 520.37 608.87 480.68 608.85 440.98 Z" />
<path fill="#ffffff" opacity="1.00" d=" M 487.69 457.61 C 489.39 455.51 493.10 456.53 493.72 459.08 C 494.53 461.31 492.50 464.01 490.07 463.51 C 487.34 463.31 485.83 459.65 487.69 457.61 Z" />
<path fill="#ffffff" opacity="1.00" d=" M 146.07 607.68 C 153.85 607.84 162.12 606.27 169.52 609.33 C 179.88 613.99 181.98 628.78 175.54 637.42 C 172.54 641.47 167.59 643.53 162.69 644.00 L 146.19 644.00 C 145.80 631.90 146.03 619.78 146.07 607.68 M 155.98 616.92 C 155.91 622.85 155.74 628.80 156.10 634.73 C 159.86 634.75 164.56 635.57 167.26 632.27 C 169.82 628.68 169.84 623.27 167.43 619.60 C 164.76 616.07 159.84 616.89 155.98 616.92 Z" />
<path fill="#ffffff" opacity="1.00" d=" M 210.17 607.98 C 213.03 607.27 216.05 607.50 218.96 607.74 C 220.38 608.57 220.63 610.43 221.39 611.78 C 225.79 622.56 230.89 633.07 234.93 644.00 L 223.98 644.00 C 222.95 642.37 222.15 640.60 221.01 639.05 C 217.01 638.66 212.96 638.74 208.96 638.97 C 207.43 640.29 206.85 642.37 205.70 644.00 L 194.92 644.00 C 199.40 631.77 204.86 619.86 210.17 607.98 M 214.77 622.54 C 213.60 625.07 212.54 627.64 211.59 630.27 C 213.74 630.34 215.89 630.33 218.05 630.26 C 217.10 627.62 216.11 625.00 214.77 622.54 Z" />
<path fill="#ffffff" opacity="1.00" d=" M 252.31 607.71 C 255.57 607.55 258.84 607.55 262.11 607.70 C 262.16 619.80 262.25 631.90 262.06 644.00 L 252.49 644.00 C 251.97 631.92 252.33 619.80 252.31 607.71 Z" />
<path fill="#ffffff" opacity="1.00" d=" M 282.74 607.62 C 289.14 607.58 295.57 607.25 301.95 607.77 C 308.66 608.52 313.39 615.38 312.50 621.93 C 312.29 626.09 309.64 629.51 306.58 632.10 C 309.53 636.08 312.76 639.86 315.50 644.00 L 303.92 644.00 C 300.89 640.92 298.96 636.95 295.94 633.89 C 295.13 633.76 293.52 633.52 292.71 633.40 C 292.52 636.92 292.60 640.46 292.40 643.99 L 292.89 644.00 L 282.84 644.00 C 282.46 631.88 282.67 619.74 282.74 607.62 M 292.67 616.80 C 292.54 619.29 292.54 621.79 292.66 624.28 C 295.36 624.22 298.25 624.85 300.83 623.87 C 303.68 622.43 303.03 617.56 299.97 616.86 C 297.55 616.56 295.10 616.74 292.67 616.80 Z" />
<path fill="#ffffff" opacity="1.00" d=" M 341.30 630.44 C 337.80 622.45 331.60 615.82 328.38 607.72 C 331.91 607.52 335.47 607.40 338.99 607.78 C 341.99 611.53 343.81 616.08 346.49 620.06 C 349.26 616.12 350.99 611.49 354.04 607.77 C 357.72 607.36 361.44 607.61 365.14 607.73 C 361.51 614.15 357.47 620.33 353.60 626.61 C 349.73 631.60 352.05 638.22 351.32 644.00 L 341.70 644.00 C 341.19 639.49 341.84 634.93 341.30 630.44 Z" />
<path fill="#ffffff" opacity="1.00" d=" M 412.36 609.03 C 412.01 606.94 414.83 607.73 416.01 607.51 C 424.02 607.61 432.04 607.36 440.05 607.68 C 440.08 610.69 440.07 613.72 439.89 616.74 C 434.03 616.97 428.16 616.72 422.31 616.93 C 422.28 618.32 422.27 619.72 422.27 621.12 C 427.48 621.33 432.68 621.11 437.89 621.32 C 437.96 624.35 438.48 627.50 437.66 630.48 C 432.54 630.87 427.40 630.42 422.28 630.75 C 422.18 635.16 422.26 639.58 422.15 644.00 L 412.55 644.00 C 412.04 632.36 412.39 620.68 412.36 609.03 Z" />
<path fill="#ffffff" opacity="1.00" d=" M 458.78 607.63 C 464.83 607.51 470.90 607.39 476.95 607.64 C 483.35 607.87 488.64 613.68 488.61 620.03 C 488.99 624.86 486.26 629.18 482.62 632.10 C 485.58 636.08 488.80 639.86 491.55 644.00 L 479.95 644.00 C 476.91 640.90 475.00 636.88 471.92 633.85 C 471.13 633.75 469.53 633.55 468.74 633.45 C 468.61 636.96 468.59 640.48 468.53 644.00 L 458.88 644.00 C 458.54 631.88 458.74 619.75 458.78 607.63 M 468.72 616.81 C 468.61 619.29 468.60 621.78 468.70 624.27 C 471.41 624.22 474.31 624.86 476.90 623.86 C 479.75 622.38 479.05 617.44 475.91 616.84 C 473.52 616.56 471.11 616.74 468.72 616.81 Z" />
<path fill="#ffffff" opacity="1.00" d=" M 508.37 609.02 C 508.09 606.97 510.77 607.70 511.95 607.51 C 520.00 607.60 528.05 607.37 536.09 607.67 C 536.10 610.62 536.33 613.62 535.83 616.56 C 529.96 616.99 524.06 616.48 518.18 616.85 C 518.20 618.19 518.27 619.53 518.41 620.88 C 523.56 621.60 528.80 620.94 533.99 621.28 C 534.14 624.30 534.14 627.32 534.10 630.34 C 529.01 630.70 523.88 630.16 518.81 630.65 C 517.62 631.50 518.40 633.26 518.41 634.49 C 524.28 635.05 530.20 634.49 536.09 634.81 C 536.14 637.87 536.14 640.94 535.98 644.00 L 508.56 644.00 C 508.03 632.36 508.39 620.68 508.37 609.02 Z" />
<path fill="#ffffff" opacity="1.00" d=" M 556.25 607.68 C 565.47 607.43 574.72 607.43 583.94 607.68 C 584.01 610.65 584.02 613.63 583.88 616.61 C 577.97 616.86 572.06 616.57 566.15 616.83 C 566.15 618.25 566.17 619.68 566.20 621.11 C 571.42 621.28 576.65 621.08 581.87 621.29 C 582.02 624.29 582.01 627.31 581.95 630.33 C 576.57 630.66 571.16 630.23 565.79 630.71 C 565.95 631.99 566.18 633.27 566.47 634.55 C 572.27 634.99 578.10 634.50 583.92 634.82 C 584.02 637.88 584.01 640.94 583.87 644.00 L 556.44 644.00 C 555.89 631.91 556.28 619.78 556.25 607.68 Z" />
</g>
</svg>
