<?xml version="1.0" encoding="utf-8"?>
<!-- Generator: Adobe Illustrator 23.1.1, SVG Export Plug-In . SVG Version: 6.00 Build 0)  -->
<svg version="1.1" id="Layer_1" xmlns="http://www.w3.org/2000/svg" xmlns:xlink="http://www.w3.org/1999/xlink" x="0px" y="0px"
	 viewBox="0 0 792 792" style="enable-background:new 0 0 792 792;" xml:space="preserve">
<style type="text/css">
	.st0{fill:#FFFFFF;}
</style>
<g>
	<path class="st0" d="M532,331.5c37.5,0,73.3-0.1,109.1,0.3c2.2,0,4.9,4.3,6.4,7.1c1,1.8,0.2,4.6,0.2,6.9
		c0,72.6-0.4,145.2,0.2,217.7c0.2,25.9-9.8,47.2-26.4,65.5c-10.8,11.9-26.2,17.1-42.3,17.1c-115.5,0.2-231,0.5-346.5-0.1
		c-44.3-0.2-89.5-42.4-87.9-89.8c2.4-69.8,0.6-139.7,0.6-209.5c0-4.6,0-9.1,0-14.5c45.4,0,89.3,0,134.2,0
		c-30.4,78.6-13.5,145,58.7,188.9c51.7,31.5,107.2,26.3,154.7-13.5C549.5,460.4,559.7,400.8,532,331.5z"/>
	<path class="st0" d="M405.3,141.7c56.2,0,112.3,0.3,168.5-0.1c28.2-0.2,48.5,11.7,61.8,36.2c7.9,14.6,12.8,29.8,12.3,46.9
		c-0.6,20.7-0.6,41.4,0.1,62c0.3,9.5-3.4,12.1-12.1,12c-40.2-0.3-80.3,0.2-120.5-0.4c-5.8-0.1-12.8-3.4-17.2-7.4
		c-50.2-45.2-119.7-44-168.9-12.2c-2.3,1.5-5.2,2.6-6.6,4.8c-10.3,15.3-25.1,16.7-42,16.3c-40.1-1.1-80.3-1.2-120.5-0.8
		c-12,0.1-15.5-3.7-14.8-15.4c1-18.3,1.2-36.7,0.1-55c-2.7-41,40.5-86.7,86.8-86.8C289.8,141.6,347.6,141.7,405.3,141.7
		C405.3,141.7,405.3,141.7,405.3,141.7z M490.6,219.6c0,10.1,0.2,20.2-0.1,30.4c-0.3,10.5,4.8,16.9,14.8,17.2
		c22.1,0.6,44.3,0.5,66.5-0.1c8.7-0.2,14.6-5.4,14.6-15c0.1-21.4,0.3-42.8,0-64.2c-0.1-9.2-5.5-14.6-14.7-14.7
		c-22.2-0.3-44.4-0.4-66.5,0c-9,0.2-14.4,5.4-14.5,14.9C490.6,198.6,490.7,209.1,490.6,219.6z"/>
	<path class="st0" d="M405.9,284.2c63.8-2.1,112.1,56.8,112.2,112.7c0.1,56.3-47.3,114.2-111.5,113.6
		c-67.7-0.6-112-53.4-111.8-113.7C294.8,337.5,339.2,283.4,405.9,284.2z"/>
</g>
</svg>
