<?xml version="1.0" encoding="UTF-8" ?>
<!DOCTYPE svg PUBLIC "-//W3C//DTD SVG 1.1//EN" "http://www.w3.org/Graphics/SVG/1.1/DTD/svg11.dtd">
<svg width="1658pt" height="910pt" viewBox="0 0 1658 910" version="1.1" xmlns="http://www.w3.org/2000/svg">
<g id="#fffffffb">
<path fill="#ffffff" opacity="1.00" d=" M 429.71 5.75 C 434.24 3.49 438.67 0.01 444.01 0.37 C 447.84 0.54 450.91 3.05 454.03 4.98 C 458.26 7.73 463.14 9.18 467.69 11.31 C 479.35 16.66 489.80 24.24 499.77 32.23 C 503.70 35.32 507.27 38.91 511.64 41.40 C 514.53 43.06 517.57 44.70 519.63 47.41 C 523.13 51.79 523.75 57.60 524.13 63.00 C 525.26 85.39 526.90 107.76 528.89 130.09 C 529.40 135.82 531.33 141.53 535.03 146.00 C 540.12 152.20 547.54 155.70 554.35 159.63 C 566.83 166.76 580.31 172.33 591.60 181.38 C 595.07 184.36 600.03 185.16 604.19 183.13 C 618.99 176.48 632.39 166.67 648.14 162.15 C 655.89 160.09 661.75 154.20 668.94 150.89 C 673.52 148.67 678.61 146.37 683.82 147.18 C 689.08 149.32 693.45 153.25 698.89 155.06 C 706.20 157.49 713.39 160.32 720.25 163.85 C 735.53 171.85 750.23 180.93 764.69 190.32 C 766.05 191.08 767.71 192.39 769.26 191.23 C 794.47 178.12 819.76 165.13 844.99 152.06 C 849.02 149.91 853.74 151.28 857.34 153.65 C 871.95 162.80 886.75 171.64 901.56 180.47 C 912.23 186.99 923.33 192.91 933.10 200.80 C 955.59 189.73 977.17 176.91 999.48 165.49 C 1003.15 163.64 1007.35 162.60 1011.46 163.37 C 1023.31 165.65 1034.80 169.74 1045.33 175.67 C 1057.05 181.82 1068.43 188.60 1080.03 194.97 C 1083.08 196.36 1083.97 199.76 1084.90 202.68 C 1081.71 204.04 1078.13 204.95 1074.92 203.12 C 1062.88 197.56 1051.84 190.10 1040.19 183.81 C 1030.52 178.22 1020.11 173.42 1009.01 171.78 C 1004.02 173.02 999.66 175.95 994.97 177.97 C 979.10 185.25 964.05 194.14 949.04 203.03 C 944.71 205.66 940.13 207.89 936.12 211.01 C 936.69 212.87 937.27 214.73 937.78 216.61 C 935.58 218.47 933.58 220.83 934.11 223.93 C 934.68 246.30 935.06 268.69 935.96 291.05 C 936.05 296.71 939.07 302.14 944.02 304.97 C 964.28 317.61 983.76 331.47 1003.66 344.65 C 1014.82 336.52 1025.75 328.07 1036.85 319.87 C 1043.39 315.29 1050.64 311.86 1058.15 309.19 C 1066.74 306.07 1073.50 299.68 1081.40 295.33 C 1085.11 293.16 1088.97 295.71 1092.00 297.83 C 1090.31 271.19 1094.49 244.18 1089.08 217.81 C 1088.46 214.01 1086.64 210.43 1086.49 206.57 C 1094.36 201.56 1102.17 196.22 1111.01 193.02 C 1128.24 186.27 1143.12 175.03 1159.32 166.31 C 1164.32 163.58 1170.02 161.60 1175.79 162.43 C 1177.39 162.75 1179.60 162.73 1180.30 164.56 C 1181.80 167.62 1183.91 170.40 1187.07 171.89 C 1205.29 181.80 1222.92 192.76 1241.05 202.83 C 1244.62 204.97 1249.13 204.62 1252.72 202.71 C 1257.70 200.12 1262.35 196.93 1267.32 194.30 C 1283.07 185.43 1299.45 177.59 1314.42 167.40 C 1317.58 165.08 1321.61 165.16 1325.34 165.60 C 1322.29 143.52 1319.99 121.29 1319.59 98.98 C 1319.74 91.69 1318.95 84.31 1320.02 77.08 C 1323.28 76.40 1325.22 80.15 1327.90 81.47 C 1328.75 79.20 1329.26 76.73 1330.67 74.71 C 1333.73 71.94 1337.55 70.23 1341.08 68.13 C 1357.03 59.55 1372.51 50.10 1388.28 41.18 C 1393.10 38.60 1397.89 35.87 1403.08 34.05 C 1409.64 31.74 1416.95 33.67 1422.58 37.42 C 1437.08 47.46 1448.73 61.60 1465.00 69.00 C 1474.04 73.62 1483.05 78.31 1492.05 83.00 C 1493.55 83.63 1495.31 84.98 1496.94 83.89 C 1522.44 70.87 1543.63 50.71 1569.70 38.70 C 1571.34 37.63 1573.00 38.62 1574.40 39.62 C 1591.10 50.99 1607.64 62.63 1624.92 73.11 C 1630.38 76.66 1636.68 78.46 1642.92 80.08 C 1646.45 80.94 1650.20 83.21 1650.68 87.15 C 1651.36 92.98 1650.84 98.89 1651.57 104.73 C 1653.98 128.31 1655.34 151.99 1658.00 175.54 L 1658.00 180.67 C 1656.60 181.79 1655.23 182.93 1653.87 184.06 C 1651.98 182.59 1649.78 181.01 1649.75 178.37 C 1646.79 151.88 1644.59 125.29 1643.32 98.66 C 1643.17 95.07 1642.54 90.74 1638.74 89.23 C 1616.27 78.73 1596.36 63.77 1575.60 50.39 C 1573.88 49.42 1572.15 48.11 1570.12 48.10 C 1566.26 49.67 1562.99 52.33 1559.42 54.41 C 1542.31 64.92 1525.46 75.82 1508.39 86.38 C 1503.36 89.65 1497.58 91.97 1493.40 96.39 C 1489.97 100.00 1489.05 105.19 1489.33 110.00 C 1490.18 126.72 1491.36 143.64 1496.26 159.75 C 1497.84 164.59 1496.61 169.65 1496.25 174.57 C 1514.23 185.15 1532.23 195.72 1549.41 207.57 C 1553.03 210.37 1557.91 212.03 1560.34 216.08 C 1560.73 220.53 1554.61 221.33 1551.81 219.11 C 1531.58 206.11 1511.43 192.95 1491.36 179.69 C 1489.38 178.43 1486.77 176.56 1484.60 178.52 C 1477.06 184.30 1468.87 189.16 1460.28 193.20 C 1445.55 200.13 1430.58 206.83 1417.20 216.22 C 1414.49 218.16 1411.80 220.69 1411.29 224.16 C 1410.54 228.74 1411.00 233.40 1411.06 238.01 C 1411.94 261.56 1410.05 285.14 1411.33 308.68 C 1415.28 310.76 1419.38 312.57 1423.31 314.71 C 1428.81 317.66 1432.83 322.59 1438.00 326.01 C 1452.21 335.87 1468.62 341.88 1483.01 351.46 C 1490.50 347.22 1497.66 342.45 1505.05 338.05 C 1522.34 327.59 1539.87 317.54 1557.39 307.48 C 1559.72 306.19 1562.87 304.55 1565.24 306.73 C 1567.52 309.97 1565.83 314.69 1562.59 316.59 C 1559.47 318.44 1555.88 319.19 1552.58 320.60 C 1538.94 326.16 1527.72 336.03 1514.71 342.75 C 1507.32 346.50 1500.59 351.35 1493.42 355.46 C 1490.54 357.23 1487.03 359.27 1486.64 363.00 C 1486.38 380.32 1487.80 397.66 1489.13 414.94 C 1490.07 424.61 1490.05 434.37 1491.76 443.96 C 1492.12 447.16 1492.73 451.59 1489.44 453.51 C 1485.44 455.35 1482.24 450.01 1478.22 451.21 C 1475.62 452.08 1473.37 453.67 1471.05 455.07 C 1452.67 466.32 1434.26 477.53 1415.95 488.91 C 1409.70 492.63 1405.93 499.68 1406.03 506.93 C 1405.91 525.30 1405.00 543.65 1404.58 562.01 C 1404.34 570.33 1406.08 578.66 1405.08 586.94 C 1404.64 590.32 1401.36 594.51 1397.65 592.42 C 1395.86 590.46 1394.99 587.89 1393.80 585.57 C 1389.16 587.42 1385.02 590.25 1380.65 592.63 C 1364.03 601.83 1349.01 613.52 1333.75 624.75 C 1331.30 626.62 1328.44 628.78 1328.33 632.16 C 1327.65 634.18 1328.64 637.36 1326.28 638.38 C 1323.84 639.42 1321.27 638.03 1319.18 636.85 C 1293.61 620.80 1268.31 604.33 1242.81 588.18 C 1237.05 584.54 1233.88 577.79 1234.00 571.07 C 1233.75 544.69 1233.70 518.31 1233.92 491.94 C 1234.14 487.90 1230.76 485.19 1227.61 483.40 C 1209.77 472.92 1192.02 462.29 1174.20 451.79 C 1170.42 449.59 1166.58 446.75 1162.00 446.88 C 1153.45 446.89 1146.61 452.67 1139.32 456.31 C 1119.61 467.26 1100.11 478.59 1080.30 489.37 C 1081.73 516.79 1084.02 544.19 1085.51 571.62 C 1089.36 574.10 1093.39 576.30 1097.36 578.61 C 1111.08 586.32 1123.52 596.08 1137.32 603.66 C 1140.82 605.93 1145.09 607.14 1148.01 610.23 C 1148.62 613.85 1144.98 617.54 1141.41 615.58 C 1123.63 607.16 1107.84 595.20 1091.40 584.52 C 1087.84 582.11 1083.22 582.50 1079.59 584.49 C 1052.91 597.97 1026.10 611.21 999.29 624.43 C 996.26 638.12 998.59 652.16 998.46 666.01 C 998.37 680.65 997.86 695.29 997.57 709.94 C 1003.54 715.00 1010.05 719.41 1016.94 723.11 C 1023.01 726.51 1029.89 728.33 1035.62 732.37 C 1045.13 738.84 1054.66 745.30 1063.98 752.07 C 1066.29 753.70 1068.93 755.47 1071.93 754.97 C 1075.48 754.43 1078.47 752.25 1081.58 750.58 C 1104.14 737.86 1126.70 725.15 1149.08 712.12 C 1151.62 710.43 1155.30 708.60 1154.98 705.00 C 1154.74 700.20 1152.96 695.66 1152.07 690.98 C 1147.50 668.59 1148.88 645.63 1148.01 622.94 C 1148.25 620.85 1147.56 617.53 1150.18 616.79 C 1154.54 615.99 1159.35 617.99 1163.40 615.46 C 1179.79 606.69 1196.05 597.66 1212.95 589.91 C 1219.35 587.13 1225.65 582.70 1233.01 584.10 C 1232.89 586.99 1233.02 590.48 1230.41 592.39 C 1226.75 594.93 1222.16 595.43 1218.10 597.06 C 1198.54 604.24 1182.13 617.60 1163.29 626.27 C 1159.42 627.85 1157.11 631.84 1157.34 635.97 C 1157.22 657.62 1159.34 679.37 1164.57 700.40 C 1165.49 704.48 1167.49 708.54 1166.86 712.81 C 1165.57 716.80 1161.00 717.93 1157.66 719.64 C 1145.93 724.62 1135.45 732.15 1123.43 736.45 C 1107.79 742.72 1094.36 753.11 1080.57 762.56 C 1077.67 764.34 1076.15 767.60 1076.31 770.96 C 1075.99 795.08 1076.85 819.20 1077.67 843.31 C 1077.78 847.29 1078.25 851.33 1079.95 854.99 C 1080.64 857.12 1082.23 859.50 1081.03 861.75 C 1079.71 863.66 1077.37 864.41 1075.37 865.37 C 1065.85 869.32 1056.33 873.30 1047.33 878.33 C 1029.21 888.30 1011.12 898.33 992.77 907.87 C 989.77 909.49 985.61 910.50 982.67 908.31 C 981.90 905.42 983.64 901.98 981.47 899.53 C 975.50 891.82 966.14 888.16 957.43 884.52 C 948.98 881.13 941.49 875.88 933.69 871.27 C 924.68 865.63 915.44 860.35 906.48 854.64 C 905.14 834.37 903.25 814.16 901.79 793.90 C 900.81 784.52 900.78 775.00 899.23 765.71 C 894.62 761.58 889.18 758.49 884.28 754.72 C 865.79 741.57 847.43 728.23 828.87 715.19 C 817.05 722.55 805.65 730.57 793.69 737.69 C 780.89 745.35 767.35 751.71 754.79 759.78 C 752.06 761.38 749.27 763.36 746.01 763.55 C 742.99 763.51 740.88 761.06 738.79 759.23 C 730.84 751.28 720.43 746.66 710.61 741.53 C 696.01 734.13 680.86 726.58 669.90 714.07 C 667.60 711.09 663.64 709.66 661.69 706.51 C 658.19 689.92 658.47 672.79 659.14 655.92 C 659.95 642.97 659.74 629.96 658.95 617.02 C 658.76 613.62 655.80 611.49 653.23 609.79 C 640.18 601.56 627.17 593.26 614.38 584.65 C 606.80 578.47 599.23 572.22 591.10 566.77 C 568.35 578.74 545.73 590.96 523.07 603.12 C 516.51 606.44 511.34 612.46 503.95 614.07 C 497.81 615.43 491.88 612.40 487.05 608.91 C 480.19 603.89 472.44 600.31 465.42 595.55 C 453.30 587.43 441.02 579.49 429.56 570.43 C 426.53 568.05 423.03 565.68 418.99 565.92 C 413.69 566.14 409.25 569.40 404.61 571.59 C 383.18 582.39 361.75 593.21 340.63 604.62 C 337.37 606.28 334.30 608.37 330.83 609.56 C 327.68 608.66 325.21 606.22 322.41 604.59 C 304.43 592.89 286.38 581.29 268.44 569.53 C 264.98 567.27 261.10 565.53 256.93 565.25 C 254.60 564.75 251.48 565.35 249.99 563.05 C 247.97 559.72 248.98 555.63 249.05 551.97 C 250.40 529.32 248.52 506.66 248.05 484.01 C 247.79 476.58 250.02 469.39 250.50 462.02 C 240.08 455.78 229.37 450.07 218.64 444.39 C 205.31 437.36 192.98 428.63 180.02 420.97 C 174.95 417.73 168.35 418.30 163.35 421.36 C 148.10 430.09 133.60 440.06 119.42 450.40 C 112.29 455.63 104.38 459.66 96.42 463.46 C 90.03 467.46 83.46 462.24 78.19 458.82 C 62.33 448.71 46.64 438.33 30.83 428.13 C 26.28 425.05 20.37 425.23 15.83 422.12 C 10.68 418.74 6.47 414.15 2.23 409.73 C 1.52 408.76 -0.10 407.58 0.86 406.24 C 2.57 403.80 5.24 401.88 5.95 398.84 C 7.53 392.92 5.02 386.99 5.28 381.03 C 5.75 362.35 6.30 343.67 6.83 324.99 C 6.98 322.16 7.03 319.12 8.65 316.67 C 10.40 313.94 13.54 312.71 16.29 311.25 C 21.95 308.51 26.52 304.05 31.93 300.89 C 38.50 297.05 45.31 293.62 52.02 290.03 C 65.91 282.92 79.19 274.70 92.43 266.47 C 94.48 265.38 96.86 263.60 99.26 264.73 C 102.41 266.08 105.12 268.21 107.99 270.03 C 119.95 277.79 132.27 284.99 144.18 292.85 C 151.30 297.65 158.03 302.99 164.86 308.19 C 169.07 311.39 172.66 315.92 178.05 317.13 C 182.57 318.20 186.91 315.94 190.69 313.72 C 204.09 305.78 218.66 300.03 232.06 292.09 C 241.47 286.32 250.60 280.09 259.59 273.70 C 260.28 247.76 261.56 221.84 262.09 195.90 C 262.51 187.44 269.06 180.82 276.34 177.34 C 299.20 166.69 320.11 152.45 341.96 139.95 C 344.20 138.36 347.86 137.32 347.70 133.98 C 350.36 108.65 353.11 83.34 355.58 57.99 C 355.80 52.98 358.62 48.40 362.97 45.93 C 385.18 32.48 406.79 18.00 429.71 5.75 M 437.93 11.89 C 428.70 16.08 419.49 20.41 410.95 25.90 C 396.51 35.03 382.43 44.72 368.28 54.28 C 365.92 55.94 363.12 57.88 362.91 61.04 C 360.77 81.01 359.15 101.04 357.63 121.06 C 357.27 124.22 357.51 127.73 359.90 130.10 C 365.15 136.11 371.44 141.74 379.21 144.14 C 376.13 139.81 371.78 136.47 369.28 131.71 C 366.62 127.33 366.13 121.97 367.15 117.01 C 369.53 105.46 367.05 93.69 367.72 82.04 C 368.06 76.72 368.08 71.35 369.05 66.10 C 369.80 61.98 373.75 59.28 377.75 58.99 C 379.18 64.55 378.80 70.31 378.96 75.99 C 379.05 85.99 379.07 95.99 379.02 105.99 C 379.03 112.00 378.02 117.99 378.39 123.99 C 378.79 128.70 382.08 132.62 386.05 134.92 C 400.18 143.30 413.70 152.66 427.57 161.44 C 431.02 163.28 431.02 168.71 427.87 170.82 C 426.14 171.98 424.00 172.14 422.03 172.57 C 427.15 175.22 432.53 177.38 437.32 180.64 C 440.58 182.97 444.83 181.95 447.99 179.99 C 464.03 170.95 480.31 162.35 496.31 153.24 C 502.69 149.30 509.10 145.40 515.58 141.63 C 520.23 138.86 520.89 132.95 520.26 128.06 C 518.71 110.05 517.62 92.00 516.06 73.99 C 515.35 65.61 513.94 56.48 507.78 50.23 C 504.54 46.52 499.38 45.50 496.01 41.96 C 481.74 28.37 463.67 19.81 445.71 12.24 C 443.26 11.21 440.40 10.60 437.93 11.89 M 1401.34 44.35 C 1392.74 48.79 1383.45 51.93 1375.41 57.40 C 1371.00 60.28 1367.81 64.98 1362.59 66.55 C 1354.89 69.00 1347.20 71.85 1340.60 76.62 C 1337.01 79.34 1332.56 80.30 1328.31 81.43 C 1326.77 84.75 1325.99 88.42 1326.37 92.08 C 1328.42 114.09 1326.51 136.70 1332.89 158.14 C 1333.36 160.37 1334.85 163.75 1332.27 165.21 C 1330.12 166.02 1327.73 165.72 1325.51 165.99 C 1325.95 167.82 1327.08 169.31 1328.70 170.29 C 1342.33 179.69 1355.86 189.25 1369.82 198.15 C 1377.39 202.94 1385.71 206.33 1393.74 210.23 C 1395.26 211.05 1396.94 211.79 1398.05 213.20 C 1399.82 216.55 1396.12 221.24 1392.46 219.44 C 1382.42 214.81 1372.36 210.02 1363.23 203.74 C 1349.21 194.44 1335.57 184.60 1321.67 175.15 C 1320.45 174.08 1319.04 175.40 1317.92 175.88 C 1305.24 183.22 1292.63 190.71 1279.83 197.85 C 1273.31 201.70 1266.30 204.74 1260.11 209.12 C 1254.69 212.82 1250.76 219.22 1251.82 225.96 C 1253.03 233.25 1252.18 240.65 1252.32 247.99 C 1252.21 261.99 1251.83 275.98 1251.59 289.98 C 1251.38 296.36 1254.76 302.46 1260.00 306.02 C 1268.99 312.28 1277.55 319.13 1286.44 325.53 C 1294.68 331.52 1303.71 336.27 1312.43 341.49 C 1318.38 345.14 1326.03 345.26 1332.29 342.28 C 1338.89 339.17 1344.84 334.88 1351.06 331.09 C 1366.79 320.95 1382.77 310.74 1400.66 304.81 C 1404.44 279.01 1402.68 252.89 1401.98 226.96 C 1401.71 219.18 1405.77 211.40 1412.79 207.81 C 1433.68 196.83 1454.21 184.99 1476.14 176.13 C 1480.62 174.18 1485.61 173.19 1489.50 170.05 C 1489.68 160.46 1485.75 151.56 1484.51 142.17 C 1482.01 127.92 1482.14 113.39 1482.50 98.98 C 1482.69 94.48 1482.63 89.26 1478.99 86.01 C 1474.23 81.91 1468.21 79.69 1462.36 77.63 C 1453.04 74.06 1445.97 66.74 1438.19 60.78 C 1431.19 55.42 1424.02 50.26 1416.81 45.20 C 1412.31 42.03 1406.18 41.84 1401.34 44.35 M 358.46 142.64 C 352.19 145.16 345.83 147.57 339.97 150.97 C 319.43 162.71 299.10 174.79 278.59 186.57 C 274.47 188.84 271.70 193.25 271.72 197.99 C 271.53 209.61 272.13 221.23 271.59 232.85 C 271.20 244.25 270.41 255.64 269.85 267.03 C 269.42 272.13 272.61 276.86 277.34 278.66 C 283.94 281.85 290.31 285.52 296.41 289.59 C 310.34 298.88 324.18 308.34 337.43 318.60 C 341.94 322.04 348.01 325.45 353.71 322.72 C 357.73 320.41 361.47 317.58 365.79 315.78 C 383.94 305.03 401.95 294.04 419.86 282.90 C 422.86 281.01 425.89 278.90 427.85 275.87 C 429.35 273.58 429.51 270.76 429.80 268.12 C 430.89 254.42 429.68 240.69 428.99 227.00 C 428.55 215.97 429.80 204.98 430.52 193.99 C 431.02 190.09 428.72 186.49 425.34 184.71 C 402.90 172.45 382.18 157.34 361.15 142.86 C 360.30 142.19 359.40 142.12 358.46 142.64 M 381.91 145.91 C 383.21 148.60 385.88 150.08 388.21 151.76 C 396.83 157.83 405.43 163.94 414.16 169.86 C 415.91 171.16 418.02 171.79 420.17 172.08 C 417.46 168.43 413.78 165.68 410.46 162.61 C 402.00 155.55 392.75 148.67 381.91 145.91 M 519.60 150.56 C 493.09 165.47 466.44 180.14 440.00 195.17 C 437.06 222.59 439.59 250.20 441.31 277.61 C 461.60 285.51 479.74 297.92 496.85 311.19 C 504.44 316.88 511.51 323.26 519.14 328.86 C 522.87 327.87 525.89 325.05 529.31 323.27 C 543.04 315.25 555.89 305.87 569.20 297.20 C 573.96 293.93 579.62 291.90 583.67 287.65 C 586.91 284.34 588.10 279.51 587.85 274.98 C 586.74 253.74 585.95 232.27 589.52 211.20 C 590.61 205.18 591.42 198.45 588.15 192.94 C 585.22 187.72 579.30 185.64 574.56 182.49 C 557.60 173.23 539.78 164.86 525.45 151.62 C 523.93 149.95 521.56 148.94 519.60 150.56 M 673.38 159.51 C 667.01 161.51 662.86 167.38 656.57 169.52 C 653.22 170.65 649.70 171.19 646.36 172.36 C 631.90 177.13 619.54 186.30 605.91 192.85 C 602.66 194.20 600.54 197.51 600.45 201.00 C 598.95 219.20 596.00 237.41 597.30 255.72 C 597.76 262.34 597.75 269.00 598.60 275.59 C 599.02 278.76 600.34 282.12 603.40 283.59 C 630.13 299.45 656.90 315.31 684.63 329.37 C 685.75 330.19 687.09 329.85 688.18 329.15 C 711.96 315.26 735.78 301.45 759.57 287.59 C 761.55 286.93 761.24 284.68 761.29 283.03 C 761.01 259.03 760.70 235.02 761.20 211.01 C 761.25 206.51 760.43 201.86 757.93 198.04 C 755.34 193.96 751.15 191.38 747.22 188.78 C 730.41 177.73 712.06 169.29 693.59 161.45 C 687.29 158.75 680.05 157.33 673.38 159.51 M 834.27 167.16 C 815.05 177.19 796.17 187.87 777.01 198.02 C 772.81 200.01 769.23 204.05 769.69 208.98 C 770.58 231.66 770.52 254.37 770.02 277.06 C 769.75 281.53 772.10 285.72 775.65 288.32 C 784.69 295.25 793.24 302.82 802.60 309.34 C 815.28 317.99 828.40 325.97 840.95 334.81 C 860.66 324.53 880.48 314.46 900.19 304.17 C 903.67 302.46 907.09 300.60 910.10 298.13 C 915.11 294.12 921.21 291.88 926.63 288.54 C 927.76 286.97 927.25 284.82 927.44 283.00 C 926.67 261.67 925.19 240.38 924.44 219.05 C 924.25 215.90 924.25 212.67 923.31 209.63 C 922.22 206.39 919.43 204.13 916.57 202.48 C 893.77 189.57 872.08 174.79 849.88 160.92 C 844.44 162.19 839.41 164.99 834.27 167.16 M 1167.15 172.43 C 1163.03 173.28 1159.67 175.99 1156.21 178.21 C 1139.94 188.87 1122.85 198.29 1105.00 206.01 C 1099.24 208.43 1096.90 215.10 1097.78 220.95 C 1100.62 244.19 1100.86 267.65 1100.57 291.04 C 1100.40 295.30 1099.17 299.43 1099.10 303.71 C 1115.93 315.60 1132.57 327.76 1149.37 339.68 C 1153.51 342.50 1157.38 345.77 1161.82 348.12 C 1165.54 350.02 1169.16 347.18 1171.84 344.81 C 1176.52 340.82 1180.78 336.31 1185.99 332.96 C 1202.87 322.11 1218.39 308.90 1236.94 300.86 C 1240.56 299.52 1243.22 296.00 1243.04 292.06 C 1242.86 272.03 1243.09 252.01 1242.57 231.98 C 1242.21 226.45 1243.72 220.35 1240.66 215.34 C 1237.76 210.74 1232.40 208.79 1228.05 205.92 C 1209.38 194.67 1189.96 184.75 1170.94 174.14 C 1169.69 173.52 1168.52 172.68 1167.15 172.43 M 90.64 279.63 C 80.19 285.34 69.03 289.68 58.82 295.84 C 45.61 303.77 32.92 312.51 20.23 321.22 C 16.70 323.57 15.44 327.96 15.62 332.01 C 15.95 347.01 15.22 362.01 15.06 377.01 C 15.61 387.91 16.38 398.81 17.41 409.68 C 37.98 421.99 59.21 433.30 78.86 447.10 C 83.29 450.17 88.56 452.47 94.06 452.00 C 101.29 451.53 107.42 447.19 113.12 443.11 C 126.41 433.54 139.22 422.96 154.28 416.24 C 159.54 413.86 164.47 410.64 168.55 406.55 C 170.55 404.56 171.67 401.84 171.75 399.03 C 173.26 378.03 174.32 357.00 175.32 335.98 C 175.38 333.19 175.37 329.91 173.09 327.91 C 168.38 323.59 163.45 319.52 158.61 315.36 C 142.62 301.75 123.97 291.89 106.32 280.71 C 103.75 279.17 101.14 277.22 98.02 277.21 C 95.33 277.05 92.93 278.43 90.64 279.63 M 264.33 283.36 C 256.89 286.97 250.17 291.87 243.05 296.07 C 229.81 304.18 215.90 311.13 201.98 317.98 C 197.45 320.29 192.33 321.96 188.88 325.89 C 185.67 329.42 184.53 334.30 184.45 338.96 C 184.14 360.98 183.47 382.99 182.58 404.99 C 182.07 409.93 185.03 414.40 189.18 416.81 C 200.07 423.57 210.97 430.32 221.82 437.15 C 232.31 443.98 244.60 447.26 255.34 453.65 C 257.83 454.79 260.06 456.97 262.76 457.39 C 269.59 454.11 276.15 450.24 283.03 447.04 C 289.88 443.90 295.84 439.26 301.99 434.98 C 311.76 428.06 321.45 421.03 331.41 414.39 C 334.77 412.23 337.14 408.60 337.38 404.57 C 338.49 382.34 340.16 360.14 341.27 337.91 C 341.36 336.47 341.41 334.81 339.99 333.98 C 317.73 314.91 293.04 298.90 267.69 284.29 C 266.64 283.89 265.49 282.68 264.33 283.36 M 433.31 286.38 C 430.29 287.42 427.69 289.33 424.95 290.92 C 406.16 302.19 387.18 313.13 368.38 324.38 C 363.54 327.49 358.49 330.36 354.12 334.13 C 351.37 336.41 350.76 340.09 350.57 343.45 C 349.85 356.31 349.52 369.19 348.94 382.06 C 348.70 388.05 347.69 394.01 347.69 400.01 C 347.57 403.41 349.62 406.20 351.06 409.09 C 351.34 411.10 350.94 413.12 350.79 415.12 C 373.55 430.61 400.35 440.27 420.40 459.66 C 421.03 460.54 422.10 460.75 423.01 460.13 C 449.33 446.85 475.33 432.94 501.59 419.54 C 503.88 418.30 506.56 416.72 507.05 413.92 C 507.65 408.71 507.22 403.45 507.58 398.23 C 508.65 381.52 508.81 364.75 510.57 348.09 C 510.81 344.78 511.30 341.41 510.70 338.12 C 510.03 334.73 507.35 332.28 504.77 330.23 C 498.25 325.09 491.73 319.95 485.26 314.75 C 472.30 304.18 457.59 296.09 442.93 288.16 C 440.04 286.55 436.61 285.26 433.31 286.38 M 596.62 291.56 C 574.55 304.63 552.67 318.04 531.40 332.38 C 526.83 335.43 522.56 339.39 520.61 344.65 C 519.14 348.24 519.34 352.19 519.27 355.99 C 518.90 374.33 518.28 392.67 517.76 411.01 C 517.35 416.35 520.37 421.46 524.98 424.05 C 535.79 430.23 545.15 438.52 555.17 445.84 C 564.93 452.19 575.21 457.70 585.01 464.00 C 588.10 466.12 592.33 466.70 595.58 464.57 C 609.42 456.28 623.11 447.66 637.69 440.68 C 651.58 433.88 663.92 424.42 676.68 415.77 C 676.98 393.19 677.66 370.62 677.35 348.04 C 677.22 342.43 675.87 336.35 671.56 332.42 C 669.19 330.13 665.93 329.30 663.05 327.91 C 642.88 316.02 622.46 304.56 602.22 292.79 C 600.48 292.01 598.46 289.96 596.62 291.56 M 757.33 299.35 C 733.95 312.97 710.30 326.14 687.20 340.25 C 686.86 361.83 687.34 383.42 686.81 405.01 C 686.72 411.36 686.95 418.08 690.17 423.75 C 691.99 427.16 694.97 429.75 698.18 431.84 C 704.80 436.11 709.68 442.77 717.02 445.97 C 726.68 450.43 735.51 456.53 743.38 463.66 C 746.91 466.70 751.49 470.38 756.45 468.42 C 762.82 465.96 768.28 461.72 773.89 457.91 C 792.10 444.57 812.69 435.06 832.56 424.53 C 835.40 423.00 837.84 420.32 838.13 416.98 C 838.65 392.05 839.40 367.08 839.78 342.13 C 835.37 339.86 830.44 338.61 826.36 335.70 C 810.49 324.61 794.96 313.04 779.21 301.77 C 775.56 299.21 771.63 296.41 767.00 296.28 C 763.49 296.03 760.27 297.65 757.33 299.35 M 849.47 341.43 C 849.33 364.95 848.70 388.47 848.26 411.98 C 848.25 416.28 847.72 420.61 848.27 424.89 C 848.90 429.09 851.62 432.55 854.53 435.48 C 861.87 443.11 871.58 447.71 879.92 454.08 C 891.63 463.12 905.15 469.38 918.63 475.31 C 921.47 476.70 924.91 476.41 927.44 474.48 C 946.70 461.04 965.82 447.39 985.46 434.50 C 989.94 431.98 994.58 428.24 994.40 422.56 C 994.85 398.39 995.69 374.23 996.07 350.06 C 982.23 340.89 968.53 331.53 954.86 322.11 C 945.10 315.07 934.89 308.57 925.89 300.55 C 900.27 313.90 874.93 327.79 849.47 341.43 M 1076.04 310.06 C 1068.57 314.86 1060.22 318.01 1051.83 320.77 C 1046.16 322.54 1041.67 326.56 1037.02 330.08 C 1026.47 338.16 1015.99 346.35 1005.47 354.46 C 1003.80 355.34 1004.05 357.40 1003.87 358.99 C 1002.93 379.64 1000.99 400.31 1001.80 421.01 C 1001.93 426.51 1005.22 431.37 1009.83 434.20 C 1028.31 446.98 1048.01 457.89 1066.78 470.24 C 1068.67 471.53 1068.65 474.09 1069.38 476.06 C 1067.25 477.09 1064.86 477.94 1062.48 477.53 C 1046.84 467.15 1031.02 457.00 1015.31 446.71 C 1011.19 444.18 1007.36 441.13 1002.95 439.11 C 998.42 437.18 993.20 438.48 989.40 441.38 C 974.50 451.86 959.48 462.16 944.35 472.32 C 937.77 476.63 930.72 480.50 925.36 486.40 C 924.22 487.72 922.64 489.11 923.18 491.07 C 925.87 513.25 927.63 535.71 925.45 558.02 C 925.10 562.06 924.82 566.39 926.80 570.10 C 928.92 574.51 933.11 577.37 937.18 579.82 C 954.90 590.50 972.83 600.83 990.69 611.25 C 994.03 612.71 991.64 616.77 990.89 619.23 C 988.65 619.23 986.52 618.52 984.66 617.32 C 969.09 607.94 953.42 598.71 938.24 588.72 C 933.32 585.47 928.21 581.41 921.98 581.68 C 914.62 582.15 908.98 587.47 902.63 590.58 C 880.84 602.07 859.10 613.66 837.47 625.44 C 837.34 642.63 836.35 659.81 836.58 677.00 C 836.36 685.96 836.57 695.70 842.37 703.09 C 841.43 705.27 840.52 707.46 839.79 709.72 C 843.35 712.33 846.88 714.99 850.42 717.65 C 864.99 728.83 880.60 738.59 894.85 750.20 C 898.20 752.93 902.51 755.19 906.97 754.15 C 911.93 752.97 916.09 749.82 920.56 747.50 C 932.77 740.69 945.02 733.92 957.28 727.18 C 964.13 723.12 971.69 720.11 977.65 714.70 C 981.90 711.19 987.60 712.36 992.47 713.54 C 991.31 708.38 989.11 703.38 989.25 698.00 C 989.15 692.88 991.06 688.02 991.51 682.96 C 992.69 670.95 991.49 658.89 990.57 646.90 C 990.05 638.53 988.77 629.53 992.79 621.78 C 996.48 614.93 1004.14 612.09 1010.56 608.48 C 1029.84 598.71 1049.17 589.04 1068.58 579.53 C 1073.03 577.61 1076.02 572.95 1075.23 568.04 C 1073.09 543.75 1071.61 519.38 1071.47 494.99 C 1071.50 490.71 1071.64 486.32 1073.00 482.23 C 1074.62 480.70 1076.76 479.89 1078.70 478.83 C 1098.87 468.44 1118.66 457.36 1138.68 446.69 C 1143.37 444.03 1148.39 441.90 1152.83 438.82 C 1156.02 436.67 1156.74 432.60 1156.48 429.02 C 1155.49 406.69 1155.45 384.32 1155.81 361.99 C 1155.80 358.40 1153.60 355.24 1150.72 353.28 C 1144.70 348.97 1138.64 344.71 1132.69 340.30 C 1116.98 328.54 1099.91 317.93 1087.80 302.14 C 1083.47 304.15 1080.08 307.60 1076.04 310.06 M 1236.94 310.84 C 1218.99 320.71 1201.35 331.41 1185.73 344.74 C 1180.50 349.67 1174.45 353.58 1168.29 357.23 C 1166.95 358.27 1164.54 358.86 1164.79 360.99 C 1164.99 382.34 1165.78 403.69 1165.08 425.04 C 1164.81 432.06 1167.90 439.21 1173.77 443.25 C 1191.50 454.31 1209.93 464.25 1227.66 475.34 C 1231.09 477.48 1234.87 479.32 1239.00 479.40 C 1244.09 479.72 1248.95 477.72 1253.36 475.37 C 1271.86 465.39 1290.50 455.65 1309.26 446.13 C 1311.88 444.75 1314.94 445.26 1317.80 445.08 C 1319.84 421.45 1318.13 397.71 1318.82 374.04 C 1318.91 369.07 1319.83 363.85 1317.93 359.10 C 1315.91 353.86 1311.29 350.28 1306.79 347.25 C 1291.24 337.24 1275.80 327.03 1261.02 315.92 C 1256.96 312.89 1253.00 309.18 1247.83 308.30 C 1244.01 307.62 1240.24 309.04 1236.94 310.84 M 1379.70 323.75 C 1362.20 334.23 1345.19 345.49 1327.76 356.06 C 1327.16 376.36 1328.08 396.69 1327.71 417.01 C 1327.76 425.11 1326.41 433.91 1330.75 441.23 C 1334.25 447.72 1341.03 451.19 1347.05 454.94 C 1365.06 464.97 1383.17 474.84 1401.19 484.87 C 1402.15 485.37 1403.25 486.13 1404.31 485.27 C 1427.21 471.61 1449.64 457.15 1472.62 443.62 C 1477.49 440.93 1480.92 435.65 1480.76 430.00 C 1479.84 406.44 1477.47 382.96 1476.50 359.40 C 1470.15 355.03 1463.43 351.22 1456.95 347.05 C 1438.94 335.90 1421.09 324.49 1402.98 313.51 C 1395.06 316.52 1386.96 319.30 1379.70 323.75 M 325.87 427.87 C 308.29 440.96 290.86 454.75 270.62 463.57 C 265.98 465.54 261.49 468.61 259.29 473.30 C 256.84 478.18 257.81 483.79 258.06 489.02 C 258.87 504.03 259.49 519.03 260.22 534.04 C 260.52 540.90 260.42 547.81 261.34 554.63 C 284.76 569.07 307.76 584.23 331.19 598.63 C 337.31 596.40 342.84 592.64 348.72 589.81 C 370.27 578.52 391.75 567.10 413.32 555.88 C 413.59 541.56 411.65 527.27 412.10 512.94 C 412.57 502.91 416.13 492.95 414.09 482.89 C 413.38 478.31 408.23 476.95 405.37 473.96 C 407.54 470.88 410.08 468.08 412.27 465.02 C 409.12 461.73 405.74 458.62 401.93 456.11 C 385.47 445.83 368.66 436.11 352.18 425.86 C 348.52 423.59 344.34 421.90 339.98 422.04 C 334.72 422.10 329.98 424.82 325.87 427.87 M 501.65 428.64 C 479.59 440.63 457.55 452.66 435.32 464.30 C 431.12 466.45 425.84 468.52 424.69 473.66 C 423.79 480.07 424.80 486.60 423.92 493.02 C 421.48 513.52 423.23 534.20 425.62 554.60 C 426.84 561.27 433.45 564.38 438.86 567.18 C 457.23 582.21 478.47 593.03 498.72 605.22 C 500.52 606.72 502.38 604.78 503.96 603.92 C 526.11 588.84 551.86 580.08 573.98 564.94 C 578.37 561.77 583.71 560.52 588.70 558.63 C 588.48 549.07 588.18 539.52 587.79 529.97 C 587.20 516.95 590.26 503.99 588.90 490.97 C 588.41 486.74 589.15 482.48 588.64 478.27 C 588.04 474.49 584.62 472.25 581.57 470.48 C 562.23 459.14 543.59 446.63 525.18 433.83 C 521.80 431.56 518.72 428.76 514.96 427.10 C 510.59 425.31 505.65 426.48 501.65 428.64 M 675.68 427.69 C 662.60 435.11 650.01 443.34 637.16 451.12 C 627.73 456.75 618.05 461.97 608.57 467.51 C 602.51 470.75 599.79 477.65 598.31 483.98 C 596.17 493.35 600.70 502.61 599.10 512.01 C 597.99 518.93 597.23 525.94 597.85 532.95 C 598.02 541.38 600.45 549.61 600.05 558.06 C 599.80 562.54 603.28 565.95 606.67 568.32 C 614.35 573.64 621.96 579.04 629.56 584.47 C 640.26 591.95 650.52 600.49 662.91 605.04 C 665.51 605.86 667.42 607.86 669.30 609.74 C 673.87 607.19 678.34 604.46 683.07 602.19 C 702.92 591.98 722.76 581.74 742.71 571.73 C 745.89 570.15 749.23 567.65 749.64 563.84 C 749.96 559.05 748.89 554.31 748.62 549.54 C 747.66 534.72 747.68 519.83 748.82 505.03 C 749.28 498.34 748.63 491.64 748.70 484.94 C 748.90 480.56 745.92 476.83 742.33 474.69 C 720.93 461.18 700.00 446.75 681.14 429.81 C 679.55 428.72 677.74 425.97 675.68 427.69 M 819.18 441.17 C 815.13 444.01 810.90 446.69 806.16 448.19 C 796.14 451.50 787.74 458.10 779.53 464.50 C 772.73 469.84 765.57 474.71 758.74 480.02 C 758.72 504.34 757.62 528.69 758.93 553.00 C 759.22 557.90 759.56 563.23 762.69 567.26 C 765.73 571.27 770.74 572.76 775.06 574.92 C 782.88 578.80 790.42 583.32 797.29 588.72 C 805.87 595.55 815.71 600.51 825.27 605.78 C 830.05 608.09 834.60 611.45 840.05 611.84 C 845.66 612.22 849.99 608.08 854.69 605.72 C 872.96 595.97 891.72 587.07 909.60 576.59 C 912.77 574.83 915.81 571.90 915.69 567.99 C 916.11 544.96 917.61 521.82 915.13 498.87 C 914.15 493.51 914.42 487.52 911.03 482.97 C 908.68 479.90 904.61 479.26 901.32 477.67 C 891.95 473.50 883.76 467.22 874.95 462.07 C 860.89 453.65 847.88 443.24 837.78 430.25 C 831.46 433.67 825.06 437.01 819.18 441.17 M 1319.06 446.69 C 1318.55 449.24 1318.05 452.15 1315.55 453.53 C 1309.77 457.01 1303.42 459.46 1297.38 462.46 C 1280.68 470.01 1264.63 478.90 1248.41 487.42 C 1244.89 489.19 1242.61 493.05 1243.26 497.03 C 1244.25 508.65 1243.73 520.32 1243.19 531.96 C 1242.46 547.64 1244.26 563.26 1244.99 578.90 C 1269.33 594.58 1293.65 610.33 1318.10 625.82 C 1321.39 624.66 1323.76 621.62 1326.67 619.70 C 1341.47 607.96 1356.64 596.64 1372.82 586.85 C 1380.22 582.70 1386.87 576.41 1395.72 575.73 C 1394.81 560.50 1396.05 545.26 1396.44 530.03 C 1396.70 519.32 1397.71 508.63 1397.69 497.92 C 1397.81 495.13 1396.30 492.48 1393.97 491.02 C 1376.50 479.44 1357.55 470.31 1339.81 459.19 C 1333.22 454.51 1326.70 449.51 1319.06 446.69 M 752.00 577.04 C 727.73 589.82 703.39 602.49 678.98 614.99 C 675.46 616.93 671.35 616.88 667.49 617.54 C 667.03 636.03 666.33 654.51 666.06 673.00 C 666.00 682.14 666.16 691.60 669.83 700.15 C 672.48 706.93 677.68 712.41 683.76 716.30 C 690.91 721.77 699.07 725.63 706.82 730.15 C 719.26 736.97 731.56 744.09 744.09 750.73 C 747.30 750.05 749.40 746.13 753.04 746.46 C 758.72 746.78 764.28 745.15 769.08 742.15 C 787.66 730.89 805.58 718.59 823.83 706.81 C 827.09 705.13 828.49 701.51 828.30 698.00 C 828.53 677.32 828.10 656.62 829.26 635.96 C 829.55 630.51 829.78 624.73 827.28 619.71 C 824.84 614.63 820.01 611.24 815.00 609.00 C 807.44 605.56 799.94 601.77 793.53 596.42 C 784.07 588.39 772.91 582.79 762.09 576.86 C 758.99 574.88 755.08 575.26 752.00 577.04 M 979.26 725.27 C 972.27 729.67 965.04 733.68 957.94 737.89 C 941.75 747.10 925.77 756.71 909.11 765.06 C 909.55 773.36 910.31 781.64 910.55 789.96 C 911.92 810.40 912.40 831.18 917.99 851.01 C 921.37 853.79 925.62 855.35 929.38 857.60 C 941.81 864.18 954.28 870.67 966.70 877.29 C 972.48 880.44 978.51 883.24 983.83 887.18 C 987.55 889.79 989.14 894.23 991.29 898.04 C 997.96 894.99 1004.14 891.00 1010.62 887.58 C 1030.10 876.68 1050.01 866.58 1070.02 856.71 C 1069.54 852.73 1067.78 849.01 1067.69 844.99 C 1067.27 821.33 1067.17 797.67 1067.31 774.01 C 1067.49 768.89 1064.21 764.49 1060.04 761.89 C 1048.64 754.36 1038.13 745.52 1026.18 738.84 C 1015.85 732.60 1005.80 725.90 995.72 719.28 C 994.10 718.36 993.38 716.62 992.66 715.04 C 988.04 718.26 984.02 722.25 979.26 725.27 Z" />
<path fill="#ffffff" opacity="1.00" d=" M 1390.36 67.43 C 1393.73 65.55 1398.32 68.00 1398.25 71.96 C 1398.55 74.67 1395.64 75.77 1393.64 76.64 C 1382.20 81.07 1371.03 86.16 1359.60 90.60 C 1355.80 92.09 1351.78 94.00 1349.74 97.74 C 1347.29 101.78 1348.54 106.68 1349.10 111.06 C 1351.25 124.02 1351.97 137.20 1354.65 150.08 C 1355.54 153.77 1351.81 157.56 1348.12 156.22 C 1345.78 154.59 1344.43 151.88 1344.23 149.08 C 1342.19 132.11 1339.65 115.14 1339.46 98.01 C 1339.49 94.47 1339.64 90.16 1342.87 87.92 C 1347.19 85.14 1352.31 84.02 1357.01 82.03 C 1368.23 77.43 1379.63 73.13 1390.36 67.43 Z" />
<path fill="#ffffff" opacity="1.00" d=" M 1550.92 70.82 C 1553.41 69.54 1555.97 67.93 1558.86 67.91 C 1561.47 68.13 1562.40 71.84 1560.57 73.49 C 1555.82 78.02 1549.96 81.09 1544.35 84.39 C 1534.26 90.31 1524.11 96.12 1514.06 102.11 C 1511.32 103.88 1508.23 105.62 1506.72 108.64 C 1505.57 111.90 1506.54 115.40 1507.30 118.64 C 1511.30 134.10 1515.55 149.49 1520.03 164.82 C 1517.69 166.86 1515.44 169.79 1512.09 169.90 C 1509.47 169.76 1508.93 166.65 1508.33 164.65 C 1504.27 147.09 1500.21 129.52 1495.89 112.02 C 1495.38 109.60 1494.60 106.98 1495.60 104.58 C 1496.48 102.56 1498.50 101.41 1500.30 100.30 C 1517.23 90.57 1534.03 80.62 1550.92 70.82 Z" />
<path fill="#ffffff" opacity="1.00" d=" M 347.55 158.49 C 350.38 157.30 353.90 155.02 356.85 157.14 C 359.64 158.89 360.27 163.46 357.23 165.31 C 352.02 168.77 345.91 170.55 340.34 173.34 C 325.91 180.48 311.69 188.04 297.35 195.37 C 295.11 196.54 292.73 197.50 290.74 199.08 C 290.45 202.63 291.07 206.18 291.31 209.72 C 292.68 227.13 291.78 244.61 291.10 262.03 C 291.19 264.68 289.71 267.74 286.98 268.40 C 284.09 268.05 282.02 265.82 280.02 263.93 C 280.35 243.95 281.12 223.97 281.01 203.98 C 281.01 200.35 281.35 196.52 283.40 193.40 C 285.66 189.90 289.47 187.89 293.13 186.15 C 311.54 177.47 328.86 166.62 347.55 158.49 Z" />
<path fill="#ffffff" opacity="1.00" d=" M 506.28 167.25 C 509.78 165.63 513.57 163.69 517.55 164.47 C 521.89 165.75 521.08 172.82 517.04 174.05 C 496.05 182.01 475.07 190.77 456.55 203.66 C 455.00 204.51 455.84 206.55 455.77 207.93 C 457.87 229.33 459.89 250.74 461.94 272.15 C 458.98 272.11 455.75 272.47 453.10 270.91 C 450.79 269.44 450.53 266.48 450.26 264.02 C 448.90 243.99 446.98 224.01 445.82 203.97 C 445.71 201.23 445.53 197.84 448.04 196.05 C 452.16 193.24 457.03 191.82 461.35 189.35 C 475.97 181.29 491.25 174.52 506.28 167.25 Z" />
<path fill="#ffffff" opacity="1.00" d=" M 1631.80 180.77 C 1634.69 179.02 1637.06 175.24 1640.89 176.04 C 1643.92 176.75 1646.49 180.70 1644.53 183.58 C 1642.72 185.50 1640.34 186.72 1638.19 188.17 C 1627.72 194.75 1617.65 201.99 1606.73 207.81 C 1595.15 213.50 1583.04 218.06 1571.50 223.82 C 1573.46 235.45 1572.97 247.26 1573.22 259.01 C 1573.27 272.00 1573.67 285.00 1574.72 297.95 C 1574.93 302.37 1569.06 302.25 1565.96 302.31 C 1563.34 292.39 1563.51 282.04 1564.41 271.90 C 1565.60 258.19 1565.87 244.28 1563.24 230.71 C 1562.44 227.22 1563.54 223.57 1565.97 220.98 C 1572.84 213.19 1582.48 208.68 1591.97 204.92 C 1606.52 199.18 1618.92 189.43 1631.80 180.77 Z" />
<path fill="#ffffff" opacity="1.00" d=" M 842.38 182.57 C 844.35 181.66 847.23 181.47 848.69 183.39 C 850.46 185.33 850.90 188.89 848.46 190.51 C 844.43 193.35 839.39 194.10 834.90 195.95 C 820.05 201.61 805.37 207.69 790.57 213.48 C 789.49 214.06 787.47 214.34 787.74 216.00 C 787.02 235.35 789.15 254.67 789.34 273.99 C 789.36 278.60 782.19 279.30 780.23 275.70 C 778.96 273.36 779.11 270.59 779.01 268.02 C 779.04 249.65 779.00 231.29 779.03 212.93 C 779.19 211.46 778.94 209.33 780.61 208.64 C 801.09 199.69 822.04 191.81 842.38 182.57 Z" />
<path fill="#ffffff" opacity="1.00" d=" M 1157.96 193.95 C 1160.30 192.65 1164.21 190.96 1166.01 193.92 C 1168.17 196.54 1167.14 200.64 1163.93 201.82 C 1151.63 207.91 1139.23 213.80 1126.95 219.94 C 1123.28 222.07 1118.82 223.15 1115.70 226.03 C 1117.00 251.37 1119.16 276.69 1120.35 302.05 C 1118.13 302.88 1114.98 303.92 1113.30 301.58 C 1110.76 297.91 1109.88 293.32 1109.45 288.96 C 1108.86 273.63 1108.29 258.30 1107.86 242.97 C 1107.67 232.89 1106.77 222.69 1109.04 212.77 C 1117.02 212.96 1125.09 211.88 1132.37 208.41 C 1141.29 204.32 1149.53 198.93 1157.96 193.95 Z" />
<path fill="#ffffff" opacity="1.00" d=" M 613.11 202.98 C 613.27 199.72 616.47 198.06 618.75 196.26 C 620.03 198.38 621.84 200.39 621.99 202.98 C 622.45 208.34 622.62 213.72 623.15 219.07 C 624.52 235.28 624.18 251.80 628.36 267.64 C 628.94 270.33 631.17 272.14 633.20 273.79 C 645.37 283.44 660.10 288.90 674.40 294.54 C 676.64 295.41 679.05 295.76 681.29 296.69 C 685.51 299.13 682.74 306.77 678.00 306.47 C 674.95 306.19 672.21 304.69 669.39 303.63 C 654.03 297.48 638.83 290.47 625.53 280.51 C 622.89 278.49 619.93 276.54 618.55 273.39 C 616.35 268.59 616.45 263.16 615.99 258.00 C 615.47 246.00 614.02 234.06 613.24 222.07 C 612.85 215.72 612.30 209.32 613.11 202.98 Z" />
<path fill="#ffffff" opacity="1.00" d=" M 1261.23 215.07 C 1265.80 213.32 1271.78 217.76 1271.57 222.53 C 1268.67 226.44 1265.92 230.83 1266.29 235.93 C 1266.90 248.86 1266.74 261.85 1268.29 274.73 C 1268.89 281.10 1267.83 288.99 1273.65 293.34 C 1288.23 304.08 1302.51 315.24 1317.15 325.89 C 1319.34 327.47 1316.17 329.73 1315.13 331.12 C 1313.24 333.69 1309.68 333.48 1307.44 331.53 C 1292.26 320.43 1277.17 309.19 1262.21 297.79 C 1259.69 295.88 1257.48 293.11 1257.52 289.80 C 1257.24 269.18 1257.33 248.56 1257.31 227.94 C 1257.69 223.57 1257.80 218.23 1261.23 215.07 Z" />
<path fill="#ffffff" opacity="1.00" d=" M 944.86 225.14 C 947.46 224.21 950.04 223.19 952.79 222.76 C 953.26 239.85 953.86 256.95 953.25 274.05 C 952.81 281.57 957.21 288.61 963.42 292.59 C 972.55 298.47 981.78 304.22 991.04 309.91 C 993.77 311.42 993.49 315.00 993.80 317.68 C 991.65 318.98 988.75 320.51 986.44 318.68 C 974.90 310.94 963.49 302.99 952.60 294.36 C 950.01 292.29 947.20 290.16 946.05 286.93 C 943.81 281.23 944.67 274.98 944.61 269.01 C 944.96 254.39 944.32 239.75 944.86 225.14 Z" />
<path fill="#ffffff" opacity="1.00" d=" M 1419.40 224.42 C 1421.35 223.43 1424.74 222.64 1425.76 225.31 C 1428.66 229.19 1428.29 234.18 1428.63 238.76 C 1429.48 251.16 1430.31 263.58 1430.26 276.01 C 1429.85 282.34 1431.68 289.12 1436.76 293.25 C 1444.07 299.21 1452.04 304.48 1460.68 308.30 C 1467.51 311.47 1475.58 312.41 1481.25 317.74 C 1482.34 319.41 1482.92 321.87 1481.82 323.67 C 1480.03 325.41 1477.16 326.42 1474.88 325.06 C 1467.08 321.25 1459.31 317.40 1451.62 313.40 C 1446.20 310.53 1440.53 308.05 1435.62 304.33 C 1431.31 300.88 1424.54 300.48 1422.13 294.89 C 1419.28 287.98 1420.93 280.28 1420.85 273.04 C 1421.71 260.59 1420.25 248.18 1417.83 235.98 C 1417.25 232.20 1415.61 227.08 1419.40 224.42 Z" />
<path fill="#ffffff" opacity="1.00" d=" M 428.40 307.42 C 431.99 306.60 433.84 310.77 435.73 313.05 C 419.31 323.68 402.08 333.05 385.60 343.61 C 380.93 346.42 375.67 348.84 372.64 353.62 C 368.09 360.55 368.61 369.32 369.87 377.15 C 371.44 387.45 373.76 397.65 375.03 408.00 C 375.81 411.22 373.14 414.13 369.99 414.28 C 366.30 414.90 364.71 410.79 364.28 407.88 C 363.48 401.22 362.09 394.64 361.44 387.97 C 360.89 376.31 360.51 364.62 361.03 352.96 C 361.10 349.86 363.57 347.59 365.85 345.83 C 382.57 333.42 400.86 323.40 418.69 312.75 C 421.92 310.97 424.93 308.72 428.40 307.42 Z" />
<path fill="#ffffff" opacity="1.00" d=" M 586.02 310.00 C 588.43 308.69 590.88 306.53 593.82 307.12 C 596.61 308.17 598.12 311.05 599.09 313.71 C 579.12 325.64 559.42 338.05 540.44 351.52 C 537.63 353.34 537.89 357.07 537.83 359.99 C 538.12 373.01 538.75 386.01 539.15 399.02 C 539.11 401.25 539.23 403.79 537.69 405.62 C 536.20 407.48 533.37 407.26 531.32 406.66 C 528.13 405.14 528.11 401.08 528.03 398.05 C 528.04 383.34 527.87 368.63 528.11 353.92 C 528.07 349.82 530.19 345.84 533.78 343.79 C 540.01 340.13 546.00 336.09 551.80 331.78 C 562.68 323.72 574.47 317.03 586.02 310.00 Z" />
<path fill="#ffffff" opacity="1.00" d=" M 864.13 353.13 C 881.15 341.55 897.50 328.35 917.02 321.15 C 918.53 321.51 919.84 322.43 921.22 323.14 C 915.58 327.97 909.18 331.83 903.22 336.25 C 893.25 343.58 882.71 350.18 873.48 358.46 C 870.67 360.72 870.37 364.61 870.67 367.95 C 872.14 383.63 873.12 399.35 874.05 415.07 C 874.86 419.59 869.60 424.38 865.42 421.60 C 861.88 418.48 862.80 413.23 862.78 409.03 C 863.51 396.29 862.67 383.53 860.73 370.94 C 860.23 366.98 859.23 363.02 859.63 359.02 C 859.87 356.35 862.15 354.62 864.13 353.13 Z" />
<path fill="#ffffff" opacity="1.00" d=" M 27.51 326.41 C 31.18 324.36 33.20 329.99 32.76 332.91 C 33.30 349.28 34.77 365.61 34.59 382.00 C 34.68 386.39 34.45 390.93 35.87 395.16 C 37.18 398.95 40.90 401.06 44.32 402.69 C 49.34 404.98 54.54 406.91 59.31 409.72 C 69.15 415.44 79.38 420.45 89.65 425.35 C 91.19 426.14 92.78 426.94 93.98 428.23 C 95.51 431.72 92.25 436.77 88.23 435.56 C 70.07 428.44 53.91 417.30 36.57 408.51 C 33.18 406.58 29.41 405.17 26.49 402.53 C 23.48 399.52 23.61 394.94 23.59 391.00 C 23.83 373.99 23.15 356.99 22.94 339.99 C 22.67 335.06 24.60 330.29 27.51 326.41 Z" />
<path fill="#ffffff" opacity="1.00" d=" M 194.76 340.96 C 194.09 337.32 197.24 333.42 200.88 333.33 C 203.43 334.21 204.83 337.32 204.66 339.94 C 204.87 357.98 204.25 376.01 204.33 394.05 C 204.15 397.89 206.64 401.26 209.73 403.28 C 224.51 412.90 239.29 422.59 253.56 432.95 C 251.95 435.52 250.58 438.52 247.86 440.10 C 245.65 440.85 243.58 439.28 241.77 438.22 C 227.79 428.81 215.74 415.96 199.41 410.49 C 194.90 409.22 192.73 404.40 192.79 400.02 C 193.08 380.32 195.86 360.67 194.76 340.96 Z" />
<path fill="#ffffff" opacity="1.00" d=" M 698.22 347.01 C 700.52 345.99 703.93 346.54 704.61 349.32 C 705.26 353.50 704.52 357.75 704.44 361.96 C 703.38 375.97 703.05 390.03 703.39 404.08 C 703.52 406.76 703.42 409.69 705.05 411.99 C 707.21 415.14 710.54 417.18 713.61 419.34 C 723.57 426.08 733.58 432.74 743.63 439.32 C 746.53 441.28 750.45 442.68 751.53 446.38 C 752.09 448.03 752.32 450.54 750.29 451.28 C 747.71 452.31 744.46 452.57 742.16 450.76 C 729.17 441.74 716.09 432.84 703.03 423.90 C 696.23 419.37 693.49 410.85 694.07 402.98 C 695.14 385.72 695.41 368.44 696.51 351.18 C 696.60 349.65 697.07 348.09 698.22 347.01 Z" />
<path fill="#ffffff" opacity="1.00" d=" M 1016.22 353.05 C 1019.20 353.63 1022.53 355.44 1022.28 358.99 C 1022.45 373.31 1021.76 387.64 1021.87 401.97 C 1022.25 407.26 1022.25 413.04 1025.36 417.60 C 1027.39 420.68 1030.75 422.46 1034.01 423.99 C 1045.86 429.45 1057.00 436.27 1068.43 442.52 C 1070.71 443.88 1073.95 445.71 1073.13 448.91 C 1072.47 452.66 1067.98 453.96 1064.99 451.98 C 1050.43 444.33 1035.88 436.63 1021.65 428.38 C 1016.17 425.42 1012.87 419.22 1013.28 413.04 C 1013.77 396.01 1013.63 378.97 1013.99 361.94 C 1013.97 358.83 1015.09 355.90 1016.22 353.05 Z" />
<path fill="#ffffff" opacity="1.00" d=" M 1173.78 365.99 C 1173.44 362.68 1176.50 360.56 1179.01 359.08 C 1182.64 361.03 1183.17 365.38 1182.61 369.08 C 1181.01 384.34 1180.94 399.70 1181.00 415.02 C 1181.06 419.16 1181.30 424.35 1185.42 426.60 C 1192.25 430.34 1199.66 432.91 1206.63 436.38 C 1216.57 441.23 1226.73 445.67 1236.48 450.90 C 1234.05 453.88 1232.10 457.45 1229.02 459.78 C 1224.06 457.82 1220.29 453.86 1215.69 451.27 C 1203.14 443.09 1188.65 438.87 1174.98 433.06 C 1172.05 431.61 1170.83 428.16 1171.06 425.06 C 1171.66 405.35 1173.11 385.69 1173.78 365.99 Z" />
<path fill="#ffffff" opacity="1.00" d=" M 1346.23 359.12 C 1347.75 358.34 1350.08 358.50 1350.86 360.28 C 1351.80 362.37 1351.80 364.71 1352.03 366.96 C 1352.91 381.02 1354.61 395.02 1355.33 409.09 C 1355.79 415.05 1356.15 421.03 1357.01 426.95 C 1357.44 430.78 1360.42 433.61 1363.57 435.47 C 1373.87 441.93 1384.48 447.88 1394.96 454.04 C 1397.52 455.51 1400.34 458.56 1398.82 461.70 C 1396.45 463.75 1392.71 464.92 1389.93 463.01 C 1376.67 455.25 1363.47 447.39 1350.05 439.92 C 1347.39 438.52 1344.94 436.17 1344.72 433.01 C 1344.16 427.31 1345.29 421.64 1345.96 416.00 C 1346.48 411.68 1345.77 407.34 1345.46 403.04 C 1344.30 391.01 1343.57 378.95 1342.06 366.96 C 1341.57 363.78 1343.55 360.68 1346.23 359.12 Z" />
<path fill="#ffffff" opacity="1.00" d=" M 336.33 435.20 C 339.60 433.29 342.14 436.73 344.14 438.88 C 345.94 440.74 343.79 443.12 342.27 444.31 C 339.03 445.98 335.32 446.48 331.99 447.97 C 315.97 454.51 302.78 466.00 288.43 475.38 C 285.60 477.98 280.56 479.53 280.46 483.99 C 280.90 488.42 282.52 492.64 283.04 497.07 C 285.33 510.78 284.22 524.74 285.69 538.53 C 285.94 541.55 287.01 544.56 286.56 547.61 C 285.73 549.63 284.29 551.95 281.96 552.34 C 277.52 551.97 275.79 546.78 275.31 543.00 C 274.34 523.42 274.55 503.64 270.66 484.34 C 270.02 481.29 269.82 477.63 272.41 475.39 C 287.64 461.95 305.68 452.40 322.95 441.93 C 327.25 439.40 331.48 436.59 336.33 435.20 Z" />
<path fill="#ffffff" opacity="1.00" d=" M 660.54 447.57 C 663.08 445.71 665.61 443.09 668.99 443.18 C 671.39 443.19 673.22 444.95 675.10 446.22 C 671.44 450.55 666.90 454.03 662.56 457.64 C 651.90 466.28 641.24 474.91 630.44 483.36 C 626.53 486.40 622.05 489.33 620.18 494.15 C 617.98 499.84 619.35 506.03 619.48 511.95 C 619.73 522.95 620.56 533.95 620.43 544.96 C 620.28 548.09 619.99 552.26 616.65 553.69 C 612.26 555.00 609.03 549.78 608.71 546.04 C 608.89 530.69 608.69 515.34 608.94 500.00 C 608.76 492.92 611.09 485.37 617.10 481.14 C 631.93 470.41 646.15 458.87 660.54 447.57 Z" />
<path fill="#ffffff" opacity="1.00" d=" M 976.26 468.26 C 980.67 465.25 984.47 461.40 989.10 458.70 C 988.82 463.78 988.30 469.16 985.53 473.56 C 982.59 477.48 977.53 478.66 973.10 480.06 C 963.67 482.45 955.27 487.71 947.76 493.73 C 944.44 496.40 943.82 501.01 944.00 505.00 C 944.58 519.27 946.16 533.48 947.33 547.72 C 947.57 551.33 948.45 555.27 946.70 558.64 C 945.29 561.48 940.36 562.03 938.82 559.07 C 937.96 557.18 938.05 555.03 937.91 553.01 C 937.33 534.32 936.35 515.65 935.86 496.97 C 935.53 492.99 937.43 488.89 941.00 486.97 C 952.65 480.55 964.82 475.05 976.26 468.26 Z" />
<path fill="#ffffff" opacity="1.00" d=" M 1312.95 466.89 C 1315.74 465.14 1318.57 463.03 1321.96 462.71 C 1324.55 462.56 1325.99 465.68 1324.91 467.83 C 1323.69 472.12 1319.18 473.61 1315.88 475.92 C 1300.90 486.26 1285.84 496.49 1270.88 506.86 C 1264.87 510.88 1266.65 518.87 1266.39 524.99 C 1266.79 539.59 1264.70 554.47 1268.24 568.81 C 1268.66 571.49 1269.47 574.52 1267.97 577.02 C 1266.33 579.56 1263.17 580.33 1260.39 580.87 C 1256.80 571.87 1257.95 562.08 1257.45 552.63 C 1256.93 538.75 1257.26 524.86 1256.64 510.99 C 1256.55 506.13 1260.26 502.43 1264.15 500.11 C 1280.78 489.57 1296.68 477.96 1312.95 466.89 Z" />
<path fill="#ffffff" opacity="1.00" d=" M 1144.01 471.02 C 1147.65 469.48 1151.16 467.54 1155.02 466.55 C 1158.55 466.68 1159.28 471.08 1160.75 473.62 C 1152.54 477.78 1143.34 479.21 1134.98 482.99 C 1125.48 487.01 1116.56 492.29 1108.01 498.05 C 1105.00 499.94 1102.92 503.32 1103.49 506.97 C 1104.87 524.37 1107.76 541.62 1109.02 559.03 C 1109.76 562.88 1106.02 566.44 1102.26 565.82 C 1099.67 564.49 1098.66 561.53 1098.50 558.81 C 1097.18 541.57 1096.36 524.29 1094.26 507.13 C 1093.98 503.29 1093.37 499.04 1095.50 495.59 C 1096.87 493.24 1099.30 491.84 1101.70 490.73 C 1115.82 484.21 1129.89 477.56 1144.01 471.02 Z" />
<path fill="#ffffff" opacity="1.00" d=" M 773.28 481.04 C 776.40 479.04 779.75 483.05 779.73 486.02 C 779.66 506.01 779.70 526.00 779.52 545.99 C 779.53 549.89 779.92 554.26 782.79 557.21 C 785.76 560.41 790.40 560.80 793.93 563.13 C 807.01 572.12 821.40 578.97 835.21 586.73 C 838.33 588.23 837.61 592.43 835.67 594.62 C 833.82 597.21 830.06 596.89 827.59 595.46 C 814.22 588.34 801.17 580.63 788.19 572.84 C 782.89 569.52 776.48 567.57 772.45 562.56 C 768.95 558.19 769.46 552.27 769.61 547.04 C 769.93 538.71 770.53 530.39 770.85 522.07 C 769.31 512.46 770.26 502.69 769.91 493.00 C 770.06 488.95 769.20 483.53 773.28 481.04 Z" />
<path fill="#ffffff" opacity="1.00" d=" M 438.32 486.06 C 440.57 486.56 443.39 487.58 443.76 490.21 C 443.84 493.52 442.34 496.61 441.85 499.85 C 439.73 512.22 442.58 524.64 442.86 537.03 C 443.21 543.65 447.16 549.70 452.45 553.53 C 466.84 563.59 481.66 573.03 496.46 582.48 C 498.36 583.81 500.98 585.31 500.82 588.00 C 500.65 591.18 497.54 594.42 494.19 593.70 C 490.14 592.69 486.65 590.18 483.74 587.26 C 476.08 579.81 466.13 575.56 457.35 569.67 C 450.43 565.00 443.58 560.17 437.14 554.85 C 434.21 552.48 432.20 548.87 432.38 545.04 C 432.31 529.68 432.10 514.30 432.91 498.96 C 433.01 494.10 436.25 490.22 438.32 486.06 Z" />
<path fill="#ffffff" opacity="1.00" d=" M 913.35 594.39 C 917.08 592.68 922.85 597.11 920.05 601.04 C 917.46 603.72 913.73 604.90 910.37 606.33 C 895.66 611.56 881.11 618.00 868.80 627.77 C 863.09 632.09 857.68 638.32 858.23 645.96 C 858.90 662.31 859.29 678.68 859.95 695.03 C 859.85 697.67 860.09 701.01 857.73 702.79 C 854.42 703.78 850.22 701.59 850.40 697.83 C 850.25 680.88 849.90 663.93 849.54 646.99 C 849.41 641.76 850.08 636.33 852.82 631.78 C 855.25 627.38 859.16 624.06 863.27 621.28 C 873.26 614.33 883.45 607.49 894.72 602.79 C 901.02 600.18 906.94 596.70 913.35 594.39 Z" />
<path fill="#ffffff" opacity="1.00" d=" M 1068.18 604.15 C 1072.10 601.69 1077.12 601.15 1081.43 602.93 C 1079.67 605.33 1077.51 607.42 1074.96 608.96 C 1063.89 615.91 1052.74 622.73 1041.69 629.71 C 1035.84 633.46 1029.84 637.07 1024.47 641.50 C 1020.79 644.58 1021.06 649.75 1021.45 654.08 C 1022.39 667.73 1023.57 681.37 1024.86 695.00 C 1025.31 698.13 1024.52 701.82 1021.57 703.49 C 1019.57 703.98 1016.99 704.10 1015.56 702.38 C 1014.13 700.61 1014.15 698.19 1013.98 696.05 C 1013.32 678.03 1011.94 660.03 1011.48 642.00 C 1011.02 637.71 1014.67 634.83 1018.02 633.00 C 1034.78 623.46 1051.53 613.90 1068.18 604.15 Z" />
<path fill="#ffffff" opacity="1.00" d=" M 683.21 628.95 C 686.01 628.70 689.69 629.09 690.46 632.39 C 691.21 639.22 690.33 646.13 690.50 653.00 C 690.19 663.23 693.25 673.41 691.53 683.62 C 691.24 686.15 690.29 688.96 691.74 691.31 C 693.56 694.43 696.75 696.34 699.53 698.51 C 709.93 706.30 719.95 715.21 732.45 719.49 C 734.77 720.42 737.75 720.48 739.23 722.82 C 740.72 724.79 742.96 727.61 741.03 730.04 C 739.61 732.51 736.19 731.94 734.03 730.93 C 718.06 722.93 702.44 713.88 688.88 702.16 C 686.32 699.96 684.01 697.36 682.80 694.17 C 680.39 688.48 681.42 682.17 681.47 676.18 C 682.15 660.44 682.03 644.66 683.21 628.95 Z" />
<path fill="#ffffff" opacity="1.00" d=" M 925.34 770.43 C 928.97 770.19 931.45 773.98 931.60 777.33 C 933.78 793.49 934.31 809.82 935.06 826.10 C 935.50 834.01 941.35 840.73 948.66 843.34 C 962.25 848.25 975.72 853.50 989.15 858.84 C 991.52 859.95 994.36 860.91 995.70 863.35 C 996.68 865.65 994.57 867.73 992.61 868.57 C 989.62 870.20 986.27 868.72 983.41 867.55 C 966.46 859.55 948.88 852.98 931.83 845.18 C 928.69 843.68 925.63 840.92 925.74 837.15 C 924.84 824.09 924.06 811.02 923.50 797.94 C 923.15 789.99 922.25 782.05 922.27 774.09 C 922.16 772.29 923.83 771.01 925.34 770.43 Z" />
</g>
</svg>
