<?xml version="1.0" encoding="UTF-8" ?>
<!DOCTYPE svg PUBLIC "-//W3C//DTD SVG 1.1//EN" "http://www.w3.org/Graphics/SVG/1.1/DTD/svg11.dtd">
<svg width="207pt" height="207pt" viewBox="0 0 207 207" version="1.1" xmlns="http://www.w3.org/2000/svg">
<g id="#111111ff">
<path fill="#111111" opacity="1.00" d=" M 100.51 0.00 L 108.39 0.00 C 135.04 1.39 161.01 13.23 179.14 32.88 C 195.91 50.65 205.78 74.52 207.00 98.89 L 207.00 107.97 C 205.79 133.58 194.92 158.62 176.67 176.68 C 158.77 194.78 134.03 205.55 108.67 207.00 L 99.74 207.00 C 74.59 206.03 49.91 195.70 31.83 178.14 C 12.74 160.02 1.29 134.40 0.00 108.15 L 0.00 99.07 C 1.20 73.21 12.28 47.94 30.82 29.82 C 49.19 11.54 74.62 0.74 100.51 0.00 M 84.02 65.87 C 96.08 77.91 108.15 89.94 120.21 101.99 C 107.15 115.05 94.06 128.07 81.00 141.13 C 83.96 144.08 86.92 147.04 89.88 149.99 C 105.93 134.00 121.95 117.99 137.99 101.99 C 122.96 87.00 107.94 71.99 92.90 57.01 C 89.94 59.96 86.98 62.91 84.02 65.87 Z" />
</g>
<g id="#ffffffff">
<path fill="#ffffff" opacity="1.00" d=" M 84.02 65.87 C 86.98 62.91 89.94 59.96 92.90 57.01 C 107.94 71.99 122.96 87.00 137.99 101.99 C 121.95 117.99 105.93 134.00 89.88 149.99 C 86.92 147.04 83.96 144.08 81.00 141.13 C 94.06 128.07 107.15 115.05 120.21 101.99 C 108.15 89.94 96.08 77.91 84.02 65.87 Z" />
</g>
</svg>
