<?xml version="1.0" encoding="utf-8"?>
<!-- Generator: Adobe Illustrator 23.1.1, SVG Export Plug-In . SVG Version: 6.00 Build 0)  -->
<svg version="1.1" id="Layer_1" xmlns="http://www.w3.org/2000/svg" xmlns:xlink="http://www.w3.org/1999/xlink" x="0px" y="0px"
	 viewBox="0 0 406.1 398" style="enable-background:new 0 0 406.1 398;" xml:space="preserve">
<style type="text/css">
	.st0{fill:#FFFFFF;}
</style>
<path class="st0" d="M289.5,179c7.2-13.6,11.2-29,11.2-45.5c0-53.8-43.5-97.3-97.3-97.3c-53.8,0-97.3,43.5-97.3,97.3
	c0,17.6,4.6,34.1,12.8,48.4c16.7,29.2,56.5,58,42.8,98.8c-7.4,22.1,21.8,19,16.3-0.3c-11.4-40.4,14.1-58.8,24.4-56.6
	c10.3,2.3,18.3,79.5,7.8,111.4c-11.7,35.4,33.8,30.9,23.9,0c-11.7-36.2-11.5-111.4,7.6-112.5c13-0.8,17.3,12,26.3,2.4
	C274.2,218.7,279,194.9,289.5,179"/>
</svg>
