<?xml version="1.0" encoding="UTF-8" ?>
<!DOCTYPE svg PUBLIC "-//W3C//DTD SVG 1.1//EN" "http://www.w3.org/Graphics/SVG/1.1/DTD/svg11.dtd">
<svg width="207pt" height="207pt" viewBox="0 0 207 207" version="1.1" xmlns="http://www.w3.org/2000/svg">
<g id="#111111ff">
<path fill="#FFFFFF" opacity="1.00" d=" M 99.44 0.00 L 108.92 0.00 C 132.99 1.50 156.54 11.23 174.10 27.85 C 193.75 45.97 205.60 71.94 207.00 98.59 L 207.00 106.61 C 206.29 128.90 198.27 150.91 184.22 168.25 C 167.58 189.15 142.55 203.18 115.99 206.22 C 113.72 206.46 111.45 206.72 109.18 207.00 L 100.38 207.00 C 72.13 206.19 44.51 193.28 25.92 171.99 C 10.35 154.55 1.28 131.71 0.00 108.41 L 0.00 98.66 C 1.36 72.46 12.80 46.89 31.88 28.81 C 49.89 11.35 74.41 1.07 99.44 0.00 M 69.01 105.01 C 84.04 120.00 99.06 135.00 114.10 149.99 C 117.06 147.04 120.02 144.09 122.98 141.13 C 110.92 129.08 98.84 117.06 86.80 105.01 C 99.84 91.94 112.94 78.93 125.99 65.88 C 123.05 62.91 120.08 59.96 117.12 57.01 C 101.07 73.00 85.04 89.01 69.01 105.01 Z" />
</g>
<g id="#ffffffff">
<path fill="#000000" opacity="1.00" d=" M 69.01 105.01 C 85.04 89.01 101.07 73.00 117.12 57.01 C 120.08 59.96 123.05 62.91 125.99 65.88 C 112.94 78.93 99.84 91.94 86.80 105.01 C 98.84 117.06 110.92 129.08 122.98 141.13 C 120.02 144.09 117.06 147.04 114.10 149.99 C 99.06 135.00 84.04 120.00 69.01 105.01 Z" />
</g>
</svg>
