<?xml version="1.0" encoding="UTF-8" ?>
<!DOCTYPE svg PUBLIC "-//W3C//DTD SVG 1.1//EN" "http://www.w3.org/Graphics/SVG/1.1/DTD/svg11.dtd">
<svg width="346pt" height="584pt" viewBox="0 0 346 584" version="1.1" xmlns="http://www.w3.org/2000/svg">
<g id="#ea5361ff">
<path fill="#ea5361" opacity="1.00" d=" M 83.04 26.09 C 110.17 9.43 142.07 0.17 173.98 0.98 C 226.28 0.29 277.57 26.50 309.21 67.89 C 329.68 94.31 342.34 126.72 345.11 160.03 C 346.10 176.04 345.92 192.23 342.93 208.03 C 339.68 225.58 333.93 242.74 325.41 258.43 C 312.23 279.37 305.39 303.35 296.07 326.07 C 292.73 333.90 288.73 342.54 280.55 346.31 C 274.88 348.91 268.94 345.78 263.98 343.06 C 256.47 338.82 247.87 335.21 239.07 336.72 C 232.29 338.27 228.14 344.60 225.27 350.46 C 219.46 363.16 217.17 377.13 215.49 390.90 C 212.50 418.13 212.99 445.65 215.41 472.90 C 217.56 495.57 221.05 518.23 227.87 540.00 C 230.23 547.93 231.02 556.60 228.49 564.59 C 226.28 571.76 221.12 578.02 214.30 581.22 C 209.30 583.74 203.47 583.71 198.05 583.01 C 190.90 581.56 185.25 575.65 183.09 568.82 C 180.21 559.85 181.61 550.16 184.18 541.30 C 191.21 519.61 192.87 496.65 193.58 474.00 C 194.19 441.26 192.19 408.39 186.36 376.14 C 184.21 365.47 181.99 354.61 177.14 344.78 C 175.61 342.00 173.62 338.65 170.13 338.28 C 163.80 337.54 157.62 340.08 152.31 343.29 C 140.37 350.74 131.98 362.93 127.38 376.07 C 121.14 393.98 121.67 413.57 125.74 431.90 C 126.97 437.93 129.39 443.84 128.95 450.11 C 128.69 456.40 125.39 462.63 119.91 465.88 C 114.83 469.01 107.85 469.60 102.77 466.16 C 98.45 463.32 96.61 457.94 96.61 452.97 C 96.52 444.31 100.79 436.46 102.08 428.02 C 106.57 406.28 101.89 383.58 92.21 363.88 C 75.97 330.39 49.25 303.79 28.90 272.97 C 11.01 246.00 1.15 213.98 0.00 181.67 L 0.00 170.36 C 0.83 146.87 6.09 123.51 15.92 102.14 C 30.14 70.91 53.78 44.04 83.04 26.09 Z" />
</g>
</svg>
