<?xml version="1.0" encoding="UTF-8" ?>
<!DOCTYPE svg PUBLIC "-//W3C//DTD SVG 1.1//EN" "http://www.w3.org/Graphics/SVG/1.1/DTD/svg11.dtd">
<svg width="949pt" height="955pt" viewBox="0 0 949 955" version="1.1" xmlns="http://www.w3.org/2000/svg">
<g id="#1a1717be">
<path fill="#1a1718" opacity="1" d=" M 26.94 0.00 L 46.94 0.00 C 48.55 38.59 43.97 77.78 52.26 115.83 C 54.65 146.43 49.88 178.03 56.45 208.19 C 59.71 198.02 61.10 183.68 73.32 180.26 C 82.86 177.21 96.29 181.23 99.33 191.66 C 103.15 216.06 94.44 240.26 97.30 264.68 C 100.49 272.81 111.56 272.31 118.69 272.72 C 129.12 265.46 135.00 253.38 143.83 244.38 C 138.59 241.06 131.79 240.03 127.26 235.69 C 123.96 217.70 124.85 197.91 117.54 180.51 C 115.36 175.21 117.45 169.81 122.27 167.20 C 99.82 115.52 91.53 55.73 77.87 0.00 L 101.94 0.00 C 105.10 15.44 111.17 30.30 111.61 46.41 C 121.43 62.81 120.74 82.75 124.87 101.13 C 128.00 122.57 135.10 143.20 138.41 164.65 C 141.94 173.72 149.03 159.12 153.79 156.62 C 152.92 104.20 144.11 52.44 142.92 0.00 L 204.88 0.00 C 209.79 22.58 218.45 44.84 217.88 68.05 C 225.59 79.44 227.25 93.54 226.16 107.09 C 228.05 126.74 236.74 144.88 240.03 164.03 C 251.82 177.23 273.50 169.38 288.43 176.56 C 292.05 179.11 302.84 181.99 298.67 188.27 C 329.01 200.10 360.44 219.10 383.97 243.16 C 389.78 239.46 397.49 231.68 390.44 225.57 C 388.22 217.83 378.52 218.39 375.11 211.89 C 369.07 199.98 355.31 195.86 346.41 186.61 C 314.87 151.30 266.77 132.02 243.65 89.32 C 240.14 76.36 252.16 66.22 258.03 56.04 C 276.50 34.89 304.52 25.58 327.86 11.57 C 324.42 5.73 313.55 4.59 307.32 0.00 L 372.73 0.00 C 381.44 8.62 385.45 20.44 391.11 31.03 C 389.36 39.96 378.74 36.34 372.76 39.75 C 364.83 47.84 372.73 61.26 367.29 70.27 C 364.94 74.01 360.21 71.23 358.97 68.03 C 356.20 59.69 359.54 48.67 352.63 42.10 C 338.87 42.18 326.96 50.20 314.11 54.13 C 301.77 59.75 288.09 67.31 281.79 79.85 C 276.97 101.83 295.86 116.74 308.58 131.43 C 338.04 160.95 369.21 188.84 397.26 219.78 C 403.37 228.94 411.92 214.10 417.02 209.85 C 403.89 172.74 404.98 132.71 400.94 94.00 C 400.82 84.94 405.48 70.30 415.76 70.07 C 420.92 78.27 426.36 87.63 426.62 97.61 C 422.76 113.90 413.54 128.75 412.72 145.81 C 410.08 166.53 416.41 186.96 422.01 206.69 C 432.03 204.19 441.36 197.68 452.05 199.50 C 439.72 133.57 446.62 65.22 429.68 0.00 L 487.43 0.00 C 491.74 8.90 502.94 11.73 507.86 20.21 C 517.24 36.71 516.44 56.50 524.46 73.60 C 534.90 97.85 541.00 124.69 557.25 145.89 C 565.00 145.54 559.06 131.62 561.22 126.16 C 567.85 90.35 559.97 53.09 569.68 17.69 C 572.37 12.97 572.36 4.60 579.00 3.92 C 585.35 5.32 588.39 14.46 594.74 14.88 C 598.29 10.39 600.50 5.01 603.22 0.00 L 645.31 0.00 C 628.59 23.89 615.85 49.93 604.87 76.87 C 593.56 98.63 595.09 124.59 584.51 146.51 C 582.93 160.01 583.62 173.78 582.71 187.22 C 586.97 199.64 595.80 209.77 601.66 221.38 C 602.76 230.50 585.01 234.18 591.29 243.70 C 602.98 255.23 620.86 253.32 635.93 254.88 C 641.28 253.57 649.61 253.43 651.13 247.00 C 649.71 238.39 633.62 246.05 632.97 237.06 C 642.69 225.50 659.74 232.14 668.89 240.02 C 663.77 250.05 676.20 244.83 680.19 240.18 C 687.74 234.90 697.20 233.30 705.91 230.78 C 702.28 237.94 699.24 246.47 690.47 248.50 C 684.50 250.25 688.56 259.38 682.70 260.63 C 680.10 260.83 676.75 259.33 674.86 261.81 C 669.99 274.29 651.12 272.38 646.02 284.98 C 641.22 297.79 648.32 311.34 646.43 324.35 C 645.19 328.18 639.51 329.37 637.76 325.23 C 632.65 312.26 642.68 294.44 631.08 283.93 C 607.35 282.23 584.46 269.96 569.80 251.24 C 562.48 243.53 566.61 231.72 558.61 224.43 C 555.60 220.67 555.45 210.96 552.56 210.28 C 553.64 229.85 531.26 230.59 519.29 239.26 C 514.51 243.58 508.27 242.77 502.39 242.20 C 497.95 250.75 486.97 252.52 482.80 261.62 C 507.22 269.72 533.17 267.11 558.01 273.12 C 574.02 277.04 592.90 276.77 605.82 288.15 C 616.55 298.90 616.90 315.52 609.01 327.98 C 604.73 336.86 619.46 337.58 623.94 342.03 C 628.47 347.38 635.36 345.08 640.58 348.45 C 650.56 356.39 661.75 345.21 664.57 335.61 C 670.91 311.60 697.49 303.45 719.75 307.94 C 719.13 284.46 726.22 262.08 725.63 238.66 C 727.14 228.01 734.61 219.85 739.87 210.90 C 743.03 201.34 744.15 191.15 748.05 181.80 C 741.33 185.92 741.77 197.75 733.08 199.01 C 723.85 196.09 741.10 178.83 727.45 181.45 C 708.80 190.17 690.77 200.45 676.23 215.17 C 667.02 224.51 652.91 222.08 643.90 214.12 C 640.21 203.06 650.88 193.89 658.96 187.95 C 685.55 168.75 714.51 152.09 745.52 141.39 C 754.91 137.50 748.94 155.71 759.02 152.21 C 752.24 129.57 727.11 123.48 715.83 104.20 C 713.12 99.62 707.15 99.66 703.11 96.85 C 692.52 91.07 685.26 80.77 674.86 74.73 C 665.22 95.22 660.47 117.90 654.70 139.71 C 641.58 144.57 618.73 128.22 629.78 112.84 C 638.89 75.47 646.32 37.56 654.90 0.00 L 728.26 0.00 C 732.37 13.23 715.50 22.17 723.19 36.18 C 728.53 28.93 730.44 19.47 737.13 13.19 C 742.38 10.16 748.88 13.35 754.57 12.82 C 755.83 8.07 758.15 3.74 761.34 0.00 L 853.89 0.00 C 853.87 3.41 853.90 6.82 854.13 10.22 C 858.56 8.06 856.55 3.32 854.83 0.00 L 890.22 0.00 C 887.12 3.54 882.09 7.04 884.45 12.60 C 893.41 43.32 899.53 75.11 910.97 104.98 C 911.72 110.57 922.31 113.61 919.32 105.69 C 921.01 93.45 909.17 84.21 915.18 72.00 C 902.01 65.15 904.73 47.41 903.08 35.02 C 903.75 23.07 900.44 11.51 897.78 0.00 L 949.00 0.00 L 949.00 177.67 C 938.58 180.06 943.57 196.51 949.00 202.55 L 949.00 429.13 C 937.64 428.91 926.51 426.48 915.29 425.10 C 897.87 447.16 891.46 475.28 892.95 503.00 C 893.54 532.20 890.27 571.09 919.09 588.99 C 929.34 584.12 938.04 576.14 949.00 572.56 L 949.00 573.52 C 943.14 575.26 943.61 580.57 949.00 575.79 L 949.00 654.42 C 943.69 650.61 939.51 645.56 934.62 641.30 C 915.67 641.22 900.19 653.48 883.12 659.05 C 878.56 659.10 884.05 650.84 879.45 653.33 C 877.54 664.95 873.04 676.80 872.87 688.08 C 877.77 692.05 868.51 691.08 869.70 686.19 C 871.25 678.85 867.34 671.01 871.87 664.48 C 866.89 640.61 888.74 620.95 901.94 603.23 C 896.60 599.55 892.84 594.26 888.20 589.87 C 872.52 613.89 866.44 643.11 847.91 665.10 C 850.99 669.88 862.91 663.71 864.57 666.57 C 852.69 669.30 855.63 679.55 855.50 688.39 C 845.84 687.03 837.90 693.55 836.83 703.00 C 844.19 704.23 850.30 699.43 857.57 700.19 C 865.81 697.00 866.94 706.56 871.48 710.48 C 881.31 714.72 891.16 719.03 900.24 724.79 C 905.07 726.57 909.48 733.40 915.09 730.14 C 921.52 729.81 915.93 738.97 922.04 739.97 C 926.93 743.78 933.41 743.45 939.14 741.98 C 931.09 736.48 921.36 733.78 914.31 726.70 C 910.51 724.94 908.75 719.01 904.09 719.51 C 894.07 704.36 890.38 685.40 886.54 668.00 C 885.19 662.76 894.75 668.42 893.97 663.27 C 891.61 661.96 888.98 661.13 886.86 659.42 C 890.45 658.03 894.14 656.72 897.13 654.21 C 899.46 656.71 890.86 670.38 898.22 668.42 C 890.97 678.07 898.66 691.09 904.12 699.86 C 909.69 709.42 920.44 713.00 928.08 720.25 C 925.02 720.45 922.46 715.16 920.04 718.43 C 922.49 719.66 924.68 721.31 926.46 723.42 C 933.23 718.69 941.92 725.17 949.00 727.29 L 949.00 734.07 C 947.41 734.68 947.41 735.30 949.00 735.92 L 949.00 760.28 C 941.16 764.91 937.11 777.42 949.00 778.29 L 949.00 792.08 C 942.14 789.68 942.17 795.30 949.00 792.91 L 949.00 855.48 C 942.57 849.86 935.59 826.41 924.96 839.02 C 919.95 851.25 928.64 864.89 929.55 877.46 C 936.84 901.65 936.29 928.29 949.00 950.54 L 949.00 954.02 C 932.16 952.71 913.63 956.53 897.79 952.19 C 854.45 955.64 806.77 953.26 761.90 953.92 C 763.76 945.20 771.40 939.96 779.28 937.12 C 761.16 942.35 744.40 932.25 726.35 934.21 C 722.80 941.21 725.16 947.84 729.02 954.06 C 704.15 953.99 679.29 953.94 654.42 954.10 C 654.03 951.98 656.53 945.87 653.21 948.30 C 640.36 960.51 619.84 951.27 603.89 953.91 C 608.14 943.58 614.88 934.47 621.02 925.21 C 609.04 927.11 596.99 914.89 599.43 902.50 C 590.32 903.97 581.95 901.02 574.92 895.09 C 572.25 876.12 571.97 855.74 564.47 837.54 C 561.72 831.89 568.54 829.84 570.04 825.98 C 565.14 817.20 563.88 806.73 557.82 798.30 C 557.28 781.46 547.61 767.64 538.50 754.43 C 531.84 741.38 528.61 726.85 522.81 713.39 C 515.81 714.03 502.90 714.27 505.17 725.05 C 507.37 731.34 501.40 737.66 495.85 733.23 C 488.05 754.43 511.66 767.77 506.84 787.86 C 495.05 802.06 502.34 821.39 501.04 838.01 C 499.69 855.46 505.02 871.98 510.95 888.03 C 507.75 898.36 491.61 897.71 483.00 901.02 C 457.48 896.74 452.89 864.94 444.73 844.91 C 434.37 859.89 449.56 876.89 452.94 892.03 C 459.49 900.97 446.86 905.62 440.00 906.95 C 432.56 904.06 422.42 902.17 421.23 892.74 C 418.99 902.26 415.46 911.37 410.40 919.73 C 412.44 923.17 416.55 925.98 414.84 930.69 C 410.86 935.61 403.54 935.33 398.17 933.06 C 400.08 937.94 396.31 949.33 390.20 942.80 C 386.42 935.77 387.78 925.09 378.97 921.06 C 353.30 906.10 340.55 877.34 335.79 849.14 C 324.57 859.02 309.91 861.98 295.94 865.31 C 288.83 866.44 280.47 861.54 274.72 867.74 C 267.92 875.12 260.29 881.60 252.66 888.09 C 279.65 906.20 308.53 921.34 338.00 935.00 C 349.23 941.52 363.12 944.32 372.30 953.92 C 343.48 950.98 311.56 961.74 285.29 945.77 C 256.75 932.28 227.95 917.05 205.26 894.80 C 203.22 887.55 195.33 886.42 191.15 892.35 C 193.87 913.22 201.95 933.04 205.01 953.91 C 184.04 954.00 163.05 954.20 142.09 953.87 C 141.34 934.54 142.55 915.24 142.95 895.96 C 123.90 894.46 127.48 916.28 129.53 928.52 C 130.72 932.08 131.12 943.76 124.75 941.30 C 117.08 927.72 132.70 896.36 110.21 891.72 C 103.52 890.65 87.89 887.00 88.00 897.05 C 94.56 915.74 93.25 935.77 102.08 953.89 C 94.13 953.90 86.12 954.58 78.20 953.80 C 74.81 946.44 72.62 938.63 69.79 931.07 C 61.28 947.03 44.32 956.52 27.17 953.94 C 26.42 941.92 13.03 932.40 12.43 918.52 C 11.08 900.67 8.63 882.42 0.00 866.43 L 0.00 779.81 C 7.24 782.30 14.66 784.35 22.11 786.06 C 18.92 774.71 12.14 762.38 0.00 758.96 L 0.00 731.75 C 3.20 733.41 3.12 729.73 0.00 730.18 L 0.00 726.84 C 9.34 726.44 19.03 726.57 28.04 724.06 C 36.19 712.32 52.52 709.69 58.03 695.06 C 71.55 678.45 73.86 656.96 72.31 636.35 C 76.76 636.54 76.22 628.54 72.67 633.14 C 70.02 619.89 69.09 606.17 63.49 593.69 C 62.42 587.26 58.99 596.74 57.80 598.83 C 47.43 615.97 44.85 637.50 29.26 651.24 C 22.54 659.87 9.25 660.48 0.00 656.01 L 0.00 618.55 C 5.66 615.54 11.02 611.85 15.22 606.96 C 9.78 608.60 4.56 611.04 0.00 614.46 L 0.00 592.03 C 11.49 588.64 23.37 584.63 33.46 578.26 C 21.43 579.17 11.29 586.13 0.00 589.44 L 0.00 570.91 C 2.55 569.81 12.99 567.73 6.96 571.89 C -3.36 578.99 29.65 569.05 13.94 569.05 C 11.80 566.57 35.64 570.56 22.77 572.45 C 26.68 577.24 37.18 566.68 28.70 568.73 C 33.46 561.91 47.97 575.73 45.96 562.20 C 33.64 545.31 18.95 529.22 0.00 519.75 L 0.00 465.24 C 18.19 464.30 36.04 453.77 54.06 457.96 C 76.20 468.77 68.01 495.58 73.02 515.00 C 78.28 530.82 75.86 547.62 77.40 563.74 C 77.76 568.91 89.65 567.41 85.42 573.52 C 91.37 579.45 100.05 590.25 103.95 600.93 C 95.51 601.63 102.48 610.73 100.12 616.26 C 112.30 602.09 115.58 582.95 122.17 566.19 C 128.61 563.06 132.38 549.63 140.06 556.98 C 141.59 535.86 143.63 512.62 136.36 491.65 C 130.73 482.22 120.32 476.13 116.43 465.57 C 117.34 456.03 111.21 443.02 121.28 436.28 C 138.99 426.07 158.87 435.29 177.47 436.58 C 190.91 438.00 205.18 450.58 201.20 465.17 C 198.56 478.76 179.28 474.56 175.97 488.00 C 164.58 502.92 164.35 521.79 164.37 539.66 C 170.96 555.23 152.96 573.47 168.73 586.16 C 174.08 566.83 177.47 546.65 185.15 528.11 C 193.56 534.41 193.87 511.44 201.90 515.48 C 203.97 512.14 211.84 506.32 213.52 512.67 C 227.80 540.95 212.19 570.43 211.33 599.98 C 210.54 605.97 206.67 624.20 216.68 617.70 C 225.70 608.63 238.23 604.00 246.87 594.92 C 255.08 594.25 245.36 583.90 249.29 579.33 C 254.07 565.76 274.49 563.59 281.71 576.25 C 285.61 583.79 301.12 577.00 298.63 588.56 C 292.28 599.26 282.63 624.26 267.92 610.93 C 250.24 617.41 234.26 627.63 218.13 637.20 C 199.30 644.85 202.27 667.72 197.96 684.08 C 221.62 680.96 244.37 672.59 265.37 661.42 C 278.63 657.70 284.03 634.48 300.11 642.83 C 303.29 642.68 307.95 631.22 301.80 633.51 C 305.26 616.19 320.14 601.69 313.86 582.80 C 311.69 586.08 312.45 590.40 310.78 593.94 C 303.47 594.68 308.43 582.71 301.90 581.11 C 284.02 578.38 273.15 563.38 259.23 553.73 C 250.84 545.22 231.16 544.28 233.10 529.15 C 237.00 514.45 254.94 525.03 264.55 523.55 C 278.35 522.25 297.85 530.62 305.95 514.96 C 313.65 507.10 313.98 487.44 328.83 490.16 C 341.35 492.38 361.59 497.91 366.92 481.98 C 370.88 472.10 385.82 473.46 388.35 462.37 C 396.70 446.81 379.47 435.69 366.50 432.47 C 360.07 428.29 354.51 440.80 350.47 432.39 C 339.76 431.29 347.59 449.95 345.97 455.98 C 344.93 462.43 350.24 480.21 338.32 478.89 C 331.74 463.32 342.78 442.57 331.67 428.20 C 314.95 426.84 328.91 455.69 314.21 454.98 C 310.92 446.73 315.54 436.11 310.28 428.63 C 294.19 426.06 270.34 449.31 289.19 462.76 C 297.58 464.37 308.47 465.03 310.95 475.08 C 315.64 486.80 307.90 499.64 296.68 503.68 C 290.91 506.13 297.42 513.79 293.72 516.86 C 289.36 518.72 291.15 511.82 289.92 510.00 C 289.62 503.69 281.73 502.85 278.97 497.98 C 276.07 475.17 242.76 479.63 235.37 459.59 C 232.17 446.66 255.56 451.82 253.10 439.01 C 254.96 426.24 236.28 413.83 247.20 402.19 C 260.44 395.45 276.15 403.42 289.54 406.45 C 318.29 407.15 346.92 411.99 374.69 419.34 C 390.57 422.14 400.74 440.00 397.19 455.15 C 396.15 460.96 391.29 465.94 391.23 471.65 C 403.55 480.86 418.14 487.13 432.99 490.05 C 448.80 485.86 447.46 465.26 459.16 456.16 C 479.82 439.08 520.39 442.07 529.96 470.02 C 541.97 509.61 518.89 551.59 532.91 591.12 C 540.38 612.96 540.39 636.69 549.59 658.28 C 551.34 671.97 557.81 684.49 558.37 698.52 C 556.91 708.07 567.06 713.72 565.82 723.07 C 564.45 730.69 571.43 736.34 570.55 743.81 C 570.07 759.50 584.03 770.01 591.90 782.11 C 595.17 784.49 596.44 789.85 600.87 790.17 C 600.64 783.86 600.53 777.51 599.71 771.26 C 597.95 768.27 588.52 774.12 590.16 768.37 C 596.28 766.93 590.78 758.88 597.82 757.58 C 595.11 750.90 599.12 735.19 591.35 734.07 C 593.88 741.50 587.96 736.89 584.95 736.81 C 585.83 731.49 586.15 721.30 594.95 725.81 C 594.21 696.54 589.05 667.42 589.98 638.00 C 590.10 616.83 589.70 595.28 585.41 574.50 C 572.71 560.12 578.86 539.38 569.62 523.36 C 566.45 512.29 559.38 501.94 548.81 497.20 C 545.57 481.63 537.32 468.48 532.24 453.87 C 529.92 447.05 522.10 447.89 516.38 446.53 C 490.91 438.65 464.38 431.96 437.64 434.43 C 429.20 425.32 419.07 415.90 416.82 402.97 C 409.05 404.17 401.22 409.61 393.34 405.62 C 387.28 401.34 381.80 410.29 375.17 407.82 C 364.28 405.59 348.74 406.43 343.64 394.33 C 340.66 385.99 335.32 378.06 335.26 368.95 C 337.59 355.20 319.45 353.15 314.64 342.15 C 291.60 335.54 301.45 366.23 300.08 377.99 C 298.73 381.94 303.86 397.57 295.70 394.34 C 294.38 380.31 294.12 365.71 294.66 351.47 C 295.41 343.13 287.33 339.30 280.35 338.57 C 271.84 336.11 270.86 327.03 266.43 320.85 C 259.57 339.37 260.06 360.85 246.66 376.57 C 246.95 385.12 242.99 396.25 231.99 394.12 C 225.33 395.24 223.41 382.84 217.11 387.28 C 217.06 393.47 226.18 395.07 229.19 399.91 C 224.07 411.31 208.52 408.79 198.60 410.59 C 189.03 414.72 201.70 431.25 192.99 434.10 C 183.77 430.28 193.53 412.40 183.49 407.63 C 170.15 406.06 156.09 396.62 153.08 383.05 C 154.47 371.51 144.72 364.46 139.15 355.83 C 136.66 351.32 133.71 357.68 130.98 358.92 C 123.78 364.35 110.43 355.47 106.99 365.96 C 88.46 403.73 124.09 444.36 107.42 482.44 C 90.83 493.93 98.61 515.82 98.41 532.52 C 96.99 543.83 104.22 557.69 97.73 567.94 C 88.35 569.56 92.17 557.04 91.21 551.59 C 87.70 533.24 92.18 514.25 88.94 496.08 C 85.81 486.04 69.79 482.98 73.52 470.59 C 89.04 448.95 76.69 420.69 78.52 396.38 C 73.37 379.78 71.48 362.12 66.28 345.72 C 52.14 339.84 34.22 337.79 19.06 340.29 C 18.91 351.17 23.03 361.76 25.75 372.22 C 36.30 376.12 50.53 377.92 55.11 389.94 C 66.25 406.43 44.94 420.63 31.82 427.69 C 21.31 430.39 24.20 442.23 19.83 448.85 C 5.05 455.54 14.84 430.13 0.00 430.60 L 0.00 220.47 C 11.31 227.13 14.82 242.40 11.37 254.39 C 9.46 259.88 5.56 264.89 6.09 271.03 C 6.89 279.59 0.99 295.67 13.86 297.18 C 29.74 296.78 47.71 301.68 62.83 295.84 C 66.95 275.73 54.75 255.65 54.91 235.16 C 46.69 237.60 38.82 243.79 29.82 240.19 C 11.28 234.15 8.71 212.29 0.00 197.51 L 0.00 47.38 C -0.01 58.82 8.10 61.76 18.25 61.29 C 14.52 64.69 8.89 63.63 4.34 64.03 C 11.66 91.85 16.89 120.21 24.07 147.97 C 28.31 158.99 32.72 144.14 31.65 139.53 C 31.05 96.22 21.67 53.09 24.73 9.74 C 27.22 6.98 27.89 3.59 26.94 0.00 M 171.25 2.31 C 167.58 4.06 169.50 9.04 168.94 11.99 C 167.98 55.75 176.10 99.32 172.16 143.06 C 170.76 149.49 172.14 161.46 181.97 158.17 C 196.48 156.29 206.98 172.56 221.69 165.73 C 222.80 160.00 226.96 148.10 217.01 149.72 C 222.11 126.00 206.43 105.86 203.76 83.28 C 190.20 57.88 186.08 25.84 171.25 2.31 M 690.25 7.89 C 688.44 19.42 685.95 30.82 683.21 42.16 C 681.32 48.48 692.99 44.48 695.98 46.02 C 708.24 48.37 701.44 32.68 702.79 26.28 C 693.50 23.52 696.24 12.87 690.25 7.89 M 713.28 25.27 C 709.97 30.51 712.00 40.59 713.02 45.00 C 713.72 40.83 714.28 28.36 713.28 25.27 M 796.40 29.21 C 794.30 30.97 790.12 33.92 794.75 35.30 C 799.33 40.76 788.98 45.20 787.17 38.06 C 781.66 50.50 789.68 66.50 777.29 76.26 C 766.20 85.09 755.64 97.91 743.14 103.01 C 764.10 120.84 793.85 108.35 815.72 97.71 C 814.95 91.27 819.86 85.01 821.07 94.11 C 833.64 85.95 835.87 67.02 826.16 55.78 C 818.33 45.65 811.63 27.75 796.40 29.21 M 818.23 33.23 C 816.18 38.95 823.58 33.07 818.23 33.23 M 866.09 35.02 C 863.22 46.86 862.77 59.91 869.27 70.70 C 873.55 79.75 866.52 90.83 856.31 88.32 C 853.69 93.49 850.86 98.60 848.84 104.04 C 855.74 101.27 860.80 93.47 868.76 94.04 C 872.22 100.38 870.63 109.12 868.71 115.73 C 861.64 122.41 849.71 122.04 842.00 125.05 C 856.51 125.01 870.94 122.64 885.35 121.33 C 894.17 116.04 894.89 102.16 886.35 95.82 C 892.67 87.91 882.29 79.43 882.54 70.79 C 879.00 58.36 881.27 40.48 866.09 35.02 M 738.10 50.26 C 736.56 53.29 741.37 50.44 738.10 50.26 M 712.99 60.03 C 715.42 69.88 714.71 81.98 721.02 90.20 C 717.22 80.60 716.26 67.27 712.99 60.03 M 701.35 62.30 C 698.02 63.17 694.64 64.81 692.95 67.96 C 689.20 75.74 701.42 79.46 707.03 82.11 C 704.57 76.40 708.67 62.32 701.35 62.30 M 724.98 69.97 C 727.04 78.14 729.63 86.38 734.63 93.27 C 738.05 94.25 746.71 90.88 743.06 85.92 C 737.68 79.97 730.62 75.73 724.98 69.97 M 29.10 75.26 C 27.57 78.29 32.38 75.44 29.10 75.26 M 481.15 81.01 C 477.38 118.85 478.87 157.03 482.16 194.88 C 502.93 196.29 523.15 188.77 544.03 191.02 C 537.26 177.31 527.76 165.24 519.65 152.34 C 504.95 130.07 495.24 105.11 483.68 81.19 C 483.05 81.14 481.78 81.05 481.15 81.01 M 728.89 104.84 C 731.88 109.28 736.34 112.69 741.11 115.05 C 740.69 109.46 733.01 107.64 728.89 104.84 M 728.30 112.22 C 726.87 117.44 733.21 112.13 728.30 112.22 M 744.10 123.26 C 742.56 126.29 747.37 123.44 744.10 123.26 M 881.47 142.53 C 864.65 146.15 847.39 144.50 830.36 145.26 C 827.31 146.04 827.23 149.64 825.88 151.96 C 814.95 169.36 841.97 181.73 837.09 199.99 C 833.74 213.40 840.17 227.53 836.43 240.41 C 829.69 250.39 843.98 258.20 839.28 268.34 C 837.00 272.85 845.03 272.58 843.70 276.68 C 836.95 283.36 837.56 294.00 838.68 302.35 C 852.18 311.57 868.90 314.89 883.33 322.69 C 887.99 326.13 908.14 330.39 901.89 336.87 C 877.91 338.16 925.64 363.40 917.10 343.22 C 922.56 340.91 933.26 342.67 928.58 332.41 C 923.68 313.06 922.30 293.12 919.66 273.39 C 918.22 269.03 913.56 272.86 912.69 275.66 C 908.38 287.45 904.47 300.14 893.67 307.71 C 880.65 312.43 867.85 302.21 863.70 290.33 C 861.69 275.84 857.53 260.42 862.00 245.96 C 868.96 234.49 883.10 223.31 897.19 229.67 C 909.20 231.12 912.72 242.88 919.97 250.16 C 924.01 243.73 925.24 233.51 925.19 225.86 C 911.90 200.34 906.80 171.70 898.62 144.37 C 895.31 138.70 886.58 143.22 881.47 142.53 M 29.10 159.26 C 27.57 162.29 32.38 159.44 29.10 159.26 M 798.33 179.26 C 786.26 186.44 778.70 199.02 771.98 210.99 C 762.64 232.77 753.08 254.92 752.08 279.01 C 747.31 298.06 754.43 317.10 757.09 335.92 C 759.08 341.33 761.70 353.29 769.68 348.69 C 783.53 335.72 777.93 315.66 788.00 301.00 C 801.26 277.90 806.18 251.27 814.44 226.41 C 823.61 214.29 812.26 199.50 806.81 188.22 C 804.40 185.31 803.22 178.13 798.33 179.26 M 147.33 186.14 C 141.61 192.06 147.67 205.90 152.95 210.00 C 155.53 204.26 158.94 185.04 147.33 186.14 M 184.46 187.53 C 164.67 186.33 173.13 212.84 172.14 225.00 C 188.88 220.40 207.09 221.55 222.00 231.01 C 226.39 233.02 236.28 241.96 236.79 231.86 C 243.22 217.18 231.62 205.39 223.90 194.09 C 213.33 184.38 197.42 187.59 184.46 187.53 M 254.42 187.39 C 248.16 187.59 247.75 194.48 250.13 199.07 C 254.81 194.60 259.66 190.43 265.20 187.08 C 262.51 187.16 257.12 187.31 254.42 187.39 M 544.30 194.20 C 537.84 198.83 547.40 202.29 551.22 203.87 C 548.93 200.85 548.09 194.45 544.30 194.20 M 295.43 228.48 C 289.21 229.84 281.48 232.72 279.09 239.09 C 270.33 251.42 287.39 260.15 291.06 271.04 C 286.96 277.97 276.71 272.62 270.09 273.06 C 271.48 283.99 267.06 295.30 269.11 305.99 C 274.46 303.27 278.14 297.99 283.96 296.00 C 301.66 292.95 319.26 283.76 337.38 291.55 C 343.65 293.63 355.35 302.45 359.01 292.92 C 355.92 275.61 346.04 258.76 330.97 249.03 C 319.92 241.42 310.33 227.42 295.43 228.48 M 433.99 252.15 C 432.47 252.87 429.43 254.32 427.91 255.04 C 433.00 262.81 439.07 270.06 445.01 277.19 C 443.99 269.08 443.94 253.47 433.99 252.15 M 420.43 263.30 C 417.38 265.95 414.30 268.59 411.40 271.39 C 405.07 279.21 415.65 288.45 422.78 291.23 C 434.02 300.20 425.77 315.89 425.19 327.70 C 435.61 332.65 427.52 344.34 429.27 353.18 C 428.22 362.03 418.18 358.71 413.17 355.13 C 407.70 361.13 417.78 369.41 412.41 376.39 C 406.18 383.02 405.95 397.49 417.67 396.97 C 416.91 389.33 426.80 385.99 431.81 391.24 C 441.29 410.62 463.84 414.01 482.17 420.04 C 474.21 411.91 463.27 407.13 453.73 401.25 C 446.38 396.16 449.82 382.10 459.02 381.99 C 477.22 384.93 496.02 386.06 514.37 384.40 C 527.78 377.52 527.52 358.05 540.09 351.02 C 553.95 354.29 567.89 351.99 581.25 348.18 C 584.08 342.35 587.09 335.95 594.00 334.00 C 604.44 331.28 609.37 317.82 605.70 308.28 C 595.20 292.01 573.81 292.41 556.86 289.18 C 539.25 289.27 518.99 287.68 504.17 299.24 C 494.73 306.68 499.11 323.77 510.99 325.04 C 533.43 322.82 534.36 358.64 515.04 364.03 C 503.78 369.97 493.37 360.21 492.73 349.26 C 483.04 342.21 472.01 336.95 461.21 331.74 C 452.73 328.49 447.78 314.70 457.88 310.75 C 450.12 302.28 446.23 291.26 438.01 282.99 C 432.47 276.44 429.94 264.35 420.43 263.30 M 185.45 270.48 C 174.84 273.41 161.28 278.26 156.21 287.67 C 168.46 290.18 184.45 282.83 193.81 273.76 C 196.24 267.91 188.49 270.39 185.45 270.48 M 465.29 284.69 C 464.33 292.30 460.60 301.38 466.37 307.92 C 473.59 302.45 469.44 291.08 465.29 284.69 M 482.04 286.93 C 477.08 298.80 490.28 287.87 482.04 286.93 M 481.30 299.22 C 479.87 304.44 486.21 299.13 481.30 299.22 M 168.30 327.15 C 163.77 330.07 165.07 335.55 167.75 339.27 C 173.56 355.77 194.68 355.67 202.31 370.65 C 205.02 373.51 211.23 372.74 214.03 370.02 C 224.11 361.15 227.06 346.77 228.05 334.10 C 209.31 327.14 188.28 326.47 168.30 327.15 M 876.31 329.22 C 870.92 331.57 879.42 337.69 882.29 335.33 C 887.03 332.13 879.49 328.38 876.31 329.22 M 709.45 332.47 C 698.68 335.37 684.27 339.28 682.14 351.99 C 684.51 361.60 672.70 358.43 669.93 364.97 C 662.79 379.16 661.63 397.14 669.84 411.16 C 670.54 421.65 663.63 431.26 666.06 441.97 C 671.78 482.76 663.19 524.59 672.01 565.00 C 673.36 570.43 667.28 582.32 661.31 575.68 C 655.99 544.48 655.51 512.60 657.01 481.00 C 657.04 454.47 658.51 423.78 639.44 402.64 C 635.20 383.93 620.60 365.69 599.61 368.49 C 588.17 370.76 582.35 384.28 585.00 395.01 C 587.91 415.93 564.23 422.98 553.94 436.82 C 563.82 438.56 573.42 443.60 583.57 442.62 C 592.72 441.52 593.02 425.69 584.31 423.71 C 576.16 417.99 585.45 404.16 593.93 409.05 C 605.49 420.21 623.56 428.49 625.11 446.90 C 628.18 453.33 633.88 463.15 623.96 466.86 C 615.75 466.86 617.28 479.10 610.02 479.07 C 609.31 475.37 611.89 472.46 612.06 468.96 C 607.70 467.08 605.60 476.10 602.94 471.03 C 598.02 467.46 592.49 475.67 591.97 480.02 C 593.36 491.38 598.97 501.75 600.97 512.99 C 606.94 518.09 614.79 520.18 621.99 522.99 C 629.91 526.93 624.45 537.81 629.22 543.77 C 635.43 549.48 644.24 553.43 646.79 562.18 C 654.44 593.72 665.56 624.83 680.00 653.99 C 681.93 655.71 684.52 663.79 687.82 659.78 C 688.95 640.47 692.80 621.48 690.97 602.00 C 692.56 583.24 689.82 562.01 700.17 545.24 C 706.85 538.48 712.89 559.23 718.20 550.20 C 723.57 541.43 727.64 531.90 733.48 523.40 C 743.21 512.40 736.90 496.91 739.74 483.85 C 739.80 472.45 744.52 462.04 748.91 451.80 C 739.33 457.72 719.70 462.98 715.77 448.26 C 713.53 443.32 707.94 439.37 709.45 433.43 C 714.55 417.27 732.40 407.16 730.58 388.44 C 736.31 375.28 723.72 363.88 729.76 350.91 C 731.28 339.79 720.63 328.95 709.45 332.47 M 830.38 341.21 C 825.71 343.52 826.97 349.20 828.98 353.02 C 836.23 373.64 861.00 365.08 875.80 373.20 C 879.72 389.31 903.71 387.14 910.01 375.07 C 901.87 365.18 888.13 361.70 876.84 356.23 C 861.38 351.47 846.87 340.77 830.38 341.21 M 370.27 352.11 C 363.79 356.27 366.12 364.50 365.05 371.01 C 360.90 382.69 388.57 390.31 381.45 373.47 C 379.25 366.09 383.37 348.68 370.27 352.11 M 735.17 359.17 C 734.15 363.80 739.79 358.15 735.17 359.17 M 860.46 375.49 C 857.48 375.90 854.54 376.71 851.88 378.10 C 856.63 384.67 867.35 380.39 874.01 381.98 C 875.53 374.83 865.13 374.90 860.46 375.49 M 737.10 379.26 C 735.56 382.29 740.37 379.44 737.10 379.26 M 86.28 389.18 C 82.95 392.17 83.21 397.77 86.22 400.91 C 93.97 403.23 92.26 388.80 86.28 389.18 M 511.36 399.39 C 504.19 401.22 493.14 401.74 491.96 410.93 C 498.08 420.08 510.54 421.54 518.97 428.03 C 525.88 433.28 537.30 435.57 543.85 428.73 C 544.32 422.09 536.17 419.88 532.27 415.70 C 525.97 408.00 519.50 422.28 513.32 422.73 C 505.56 417.85 515.45 402.17 511.36 399.39 M 428.13 408.36 C 427.36 412.33 432.12 407.75 428.13 408.36 M 792.41 409.23 C 771.10 430.10 751.72 457.55 749.91 488.20 C 755.49 460.24 769.91 433.05 791.28 413.30 C 794.82 410.87 802.72 409.26 792.41 409.23 M 431.13 412.39 C 429.51 417.55 436.04 412.57 431.13 412.39 M 800.30 415.27 C 777.91 435.97 758.79 464.64 758.29 496.29 C 764.08 492.48 770.12 487.43 777.59 488.39 C 784.69 489.42 786.26 498.26 790.22 503.07 C 794.92 498.91 796.66 492.30 800.28 487.28 C 809.01 475.08 825.42 477.47 838.31 474.63 C 822.34 470.91 801.76 461.12 801.39 442.41 C 800.38 435.70 817.33 433.16 808.96 428.93 C 802.06 426.86 808.72 412.67 800.30 415.27 M 877.29 417.16 C 874.21 420.81 871.04 424.38 867.85 427.94 C 881.69 437.14 877.26 460.16 864.90 468.83 C 868.26 469.11 871.57 470.12 874.84 470.95 C 875.71 452.63 885.65 436.40 893.00 420.16 C 887.80 418.89 882.67 417.29 877.29 417.16 M 89.17 421.94 C 87.18 428.97 88.66 437.23 91.11 444.03 C 97.01 438.89 96.26 426.41 89.17 421.94 M 824.10 423.26 C 822.56 426.29 827.37 423.44 824.10 423.26 M 905.33 423.29 C 894.25 438.20 885.59 456.38 884.98 475.26 C 889.86 458.24 894.24 440.17 905.58 425.65 C 906.25 424.36 908.06 421.81 905.33 423.29 M 265.09 425.94 C 265.69 428.28 262.75 435.09 265.90 434.93 C 263.24 430.08 272.17 428.14 265.09 425.94 M 265.16 438.42 C 262.99 442.14 268.78 439.44 265.16 438.42 M 542.77 452.03 C 545.13 458.78 551.40 456.90 542.77 452.03 M 263.26 459.10 C 263.44 462.37 266.29 457.56 263.26 459.10 M 146.25 460.14 C 142.83 464.39 152.61 459.12 146.25 460.14 M 546.28 460.28 C 545.60 466.27 552.27 459.60 546.28 460.28 M 138.10 462.26 C 136.56 465.29 141.38 462.44 138.10 462.26 M 156.26 469.18 C 150.83 477.04 161.49 470.71 156.26 469.18 M 492.45 471.45 C 478.92 474.24 463.64 482.20 463.83 497.85 C 449.77 498.69 448.61 515.50 447.17 526.14 C 444.22 539.51 459.75 552.29 449.79 564.75 C 444.68 567.36 436.68 566.89 434.04 560.96 C 425.65 549.33 420.79 535.93 414.99 522.99 C 408.52 511.06 393.27 505.96 380.37 507.24 C 371.45 511.91 366.06 522.21 368.08 532.31 C 373.29 523.51 377.34 512.87 386.99 507.95 C 394.53 511.99 399.35 519.72 405.73 525.28 C 420.01 539.91 417.02 561.96 422.81 580.15 C 427.63 601.32 432.00 622.63 436.17 643.89 C 448.59 642.67 460.68 646.17 473.01 645.98 C 467.73 604.15 480.25 562.20 474.41 520.70 C 474.69 507.55 482.92 495.38 493.96 488.92 C 501.87 496.20 507.60 506.19 515.08 514.15 C 513.46 507.51 508.62 501.21 512.10 494.10 C 517.42 481.95 505.16 467.41 492.45 471.45 M 884.16 478.42 C 881.98 482.14 887.77 479.44 884.16 478.42 M 27.49 484.56 C 21.30 486.27 10.05 484.66 7.14 489.78 C 14.68 491.85 22.75 492.25 29.88 495.89 C 28.15 491.63 36.01 481.24 27.49 484.56 M 519.30 485.22 C 517.87 490.43 524.21 485.13 519.30 485.22 M 749.17 490.12 C 748.60 495.15 748.22 500.21 748.06 505.27 C 752.22 502.05 749.86 492.56 749.17 490.12 M 39.10 495.26 C 37.57 498.29 42.38 495.44 39.10 495.26 M 841.46 497.54 C 836.76 498.86 828.66 497.37 826.13 501.85 C 833.60 503.65 841.57 505.57 849.03 508.07 C 846.60 500.58 856.48 492.99 841.46 497.54 M 519.10 498.26 C 517.56 501.29 522.37 498.44 519.10 498.26 M 857.30 507.22 C 855.87 512.43 862.20 507.12 857.30 507.22 M 12.26 508.10 C 12.44 511.37 15.29 506.56 12.26 508.10 M 15.35 508.88 C 14.73 516.03 25.31 510.32 15.35 508.88 M 34.35 515.25 C 33.31 521.31 40.38 513.74 34.35 515.25 M 795.87 521.05 C 798.74 548.29 789.26 574.78 783.06 600.79 C 803.10 612.81 827.38 602.53 847.00 593.98 C 861.33 588.63 872.27 572.76 865.65 557.34 C 856.87 544.03 849.65 527.53 833.88 521.11 C 821.49 520.41 807.44 528.42 795.87 521.05 M 854.15 527.23 C 849.94 531.48 859.38 528.93 854.15 527.23 M 519.10 530.26 C 517.56 533.29 522.37 530.44 519.10 530.26 M 764.33 535.34 C 753.06 541.67 761.38 555.09 760.26 565.34 C 762.80 556.01 768.14 541.68 764.33 535.34 M 295.68 538.17 C 288.28 539.79 275.31 540.91 275.12 550.77 C 284.55 559.79 297.73 563.29 308.34 570.68 C 314.79 571.97 312.61 559.84 319.19 557.99 C 310.64 552.19 306.09 540.87 295.68 538.17 M 367.44 544.19 C 362.62 555.38 352.40 562.05 343.20 569.20 C 343.73 573.87 346.68 579.59 352.19 576.97 C 348.27 578.76 347.33 581.47 351.10 584.74 C 360.77 581.23 371.10 583.95 380.05 588.09 C 381.04 580.73 377.16 575.39 373.01 572.97 C 381.25 575.82 373.84 566.50 369.03 567.90 C 365.61 564.53 373.22 567.02 375.21 567.86 C 373.26 559.79 370.03 552.06 367.44 544.19 M 748.93 555.02 C 750.18 564.59 749.92 576.35 756.01 584.20 C 752.61 574.78 751.15 563.41 748.93 555.02 M 740.41 569.47 C 732.36 589.63 719.67 608.24 716.79 629.84 C 713.39 649.40 704.57 667.23 706.36 687.52 C 704.00 702.21 717.87 712.13 722.07 725.01 C 720.80 729.42 716.84 732.51 713.77 735.74 C 706.92 740.00 722.07 752.62 720.53 740.41 C 722.19 735.33 728.55 732.69 728.99 727.02 C 724.67 717.34 726.14 706.16 733.20 698.21 C 742.14 691.94 751.94 702.82 756.94 709.21 C 771.93 690.08 795.22 679.49 816.13 667.84 C 796.74 658.37 792.05 634.62 776.09 621.93 C 771.61 629.84 770.22 640.58 767.65 649.63 C 768.26 664.69 747.43 654.12 743.96 646.06 C 742.15 628.62 759.09 608.82 747.88 592.12 C 744.85 585.09 742.24 574.41 740.41 569.47 M 893.90 577.83 C 896.89 585.74 903.81 594.16 912.14 596.09 C 905.98 590.13 898.66 585.31 893.90 577.83 M 936.21 582.05 C 932.69 585.76 940.95 582.44 936.21 582.05 M 937.02 588.08 C 938.86 592.99 947.04 585.57 937.02 588.08 M 355.28 593.36 C 355.93 598.60 361.74 590.42 355.28 593.36 M 899.12 593.05 C 895.21 598.61 905.23 596.41 899.12 593.05 M 84.30 602.73 C 87.72 607.48 77.42 605.18 83.12 607.81 C 90.19 609.04 78.06 616.44 86.86 616.86 C 99.24 617.95 88.47 606.02 84.30 602.73 M 157.32 603.07 C 151.58 614.08 153.68 627.38 153.17 639.35 C 155.88 635.55 155.76 630.57 157.35 626.34 C 159.08 618.82 168.27 606.60 157.32 603.07 M 199.26 606.10 C 199.44 609.37 202.29 604.56 199.26 606.10 M 200.28 609.22 C 193.70 614.56 206.30 610.12 200.28 609.22 M 359.91 608.84 C 366.55 631.09 373.88 653.30 379.20 675.98 C 384.10 673.37 398.30 671.34 392.01 663.04 C 386.59 653.73 382.91 641.97 373.78 636.24 C 369.76 626.73 364.89 617.73 359.91 608.84 M 329.37 609.74 C 328.89 619.14 317.60 622.85 321.07 633.94 C 333.97 628.47 341.71 637.40 345.08 648.17 C 342.87 634.38 335.01 622.32 329.37 609.74 M 909.26 611.17 C 902.14 617.34 917.84 610.92 909.26 611.17 M 914.37 612.08 C 913.19 614.56 912.24 618.18 908.84 616.27 C 900.91 612.11 903.55 621.75 897.85 622.82 C 894.01 631.03 887.56 637.82 884.22 646.22 C 881.03 655.51 890.62 648.36 894.34 647.34 C 902.91 644.04 882.39 644.41 897.35 642.24 C 893.74 639.07 896.27 623.81 904.05 628.11 C 899.97 630.27 896.72 639.01 904.31 636.34 C 912.25 631.84 899.12 644.93 905.32 641.25 C 910.44 635.02 930.25 632.75 923.01 621.99 C 916.76 611.26 913.36 633.37 906.97 633.06 C 909.94 628.66 904.49 623.48 912.18 623.27 C 909.57 616.74 923.51 617.82 914.37 612.08 M 104.29 614.35 C 100.54 617.73 107.64 616.87 104.29 614.35 M 779.17 617.17 C 778.15 621.80 783.79 616.15 779.17 617.17 M 194.33 618.36 C 194.42 622.41 200.61 615.72 194.33 618.36 M 84.23 619.12 C 79.19 625.43 92.38 618.30 84.23 619.12 M 499.17 618.92 C 497.56 623.88 496.37 629.08 497.11 634.34 C 499.12 630.13 502.22 622.44 499.17 618.92 M 91.06 620.08 C 88.48 621.56 80.56 625.58 86.77 627.37 C 80.12 632.61 90.31 652.18 90.61 635.65 C 90.45 630.66 98.67 620.30 91.06 620.08 M 830.34 620.37 C 826.33 622.68 816.31 625.04 820.08 631.04 C 823.99 628.39 838.70 619.08 830.34 620.37 M 80.10 621.26 C 78.57 624.29 83.38 621.44 80.10 621.26 M 306.10 626.26 C 304.56 629.29 309.37 626.44 306.10 626.26 M 510.10 630.26 C 508.56 633.29 513.37 630.44 510.10 630.26 M 502.09 630.92 C 500.58 636.35 498.42 641.62 497.16 647.13 C 510.43 652.39 507.28 636.64 502.09 630.92 M 137.17 637.17 C 136.15 641.79 141.80 636.15 137.17 637.17 M 74.17 638.44 C 72.42 643.08 78.56 638.44 74.17 638.44 M 496.10 638.26 C 494.56 641.29 499.37 638.44 496.10 638.26 M 898.88 638.05 C 899.36 644.76 906.64 635.29 898.88 638.05 M 114.10 639.26 C 112.57 642.29 117.38 639.44 114.10 639.26 M 135.42 641.16 C 136.44 644.77 139.14 638.98 135.42 641.16 M 141.10 642.26 C 139.56 645.29 144.38 642.44 141.10 642.26 M 311.29 643.42 C 308.83 649.09 314.57 647.00 311.29 643.42 M 803.26 643.06 C 799.29 647.69 809.16 644.68 803.26 643.06 M 899.26 643.10 C 899.43 646.37 902.28 641.56 899.26 643.10 M 85.20 644.18 C 80.88 647.36 89.07 647.23 85.20 644.18 M 74.17 646.25 C 70.67 650.08 79.10 647.84 74.17 646.25 M 113.02 646.95 C 111.38 654.80 119.82 648.63 113.02 646.95 M 136.92 651.88 C 135.83 655.55 144.15 657.45 143.03 653.17 C 140.68 654.08 138.84 653.13 136.92 651.88 M 115.22 657.38 C 108.57 665.34 104.80 675.22 98.52 683.45 C 92.65 698.73 79.55 710.78 75.37 726.70 C 81.62 736.64 85.23 750.57 97.99 754.02 C 113.81 753.11 130.19 751.52 145.32 757.52 C 158.05 761.15 168.49 772.11 182.62 770.36 C 190.81 774.96 195.75 784.35 199.42 792.71 C 203.82 793.79 199.08 786.06 202.71 785.48 C 207.94 787.06 201.23 781.81 203.35 779.35 C 204.39 774.68 211.41 766.00 201.99 767.01 C 203.85 767.55 206.39 762.44 204.47 760.48 C 209.05 753.48 214.94 741.29 218.00 731.29 C 211.38 731.90 219.41 723.46 222.64 725.61 C 228.50 717.28 226.82 705.77 230.80 697.93 C 225.47 691.19 211.99 696.97 204.00 702.07 C 201.84 701.33 199.13 696.82 197.32 700.31 C 194.71 715.67 195.01 731.65 191.42 746.62 C 196.16 756.69 183.41 755.03 178.91 751.12 C 177.23 745.33 169.59 753.28 168.21 747.51 C 158.52 746.13 168.01 734.08 157.95 733.08 C 149.38 728.03 129.35 734.17 129.94 720.06 C 124.47 718.16 124.35 707.06 121.88 701.11 C 119.17 687.12 118.42 669.24 115.22 657.38 M 136.26 658.33 C 137.09 663.67 142.65 656.22 136.26 658.33 M 189.28 659.19 C 188.47 660.84 186.84 667.60 185.62 663.02 C 179.29 669.73 177.25 678.84 175.97 688.02 C 189.85 690.73 188.92 673.69 189.55 664.83 C 190.14 663.09 192.89 658.13 189.28 659.19 M 315.34 660.33 C 301.85 668.46 309.64 685.88 315.11 696.97 C 322.96 696.25 332.90 696.71 339.09 691.19 C 322.59 691.10 322.64 668.54 315.34 660.33 M 137.04 661.82 C 137.14 664.35 135.96 667.93 138.96 669.18 C 138.85 666.64 140.04 663.07 137.04 661.82 M 620.08 662.86 C 623.94 689.28 619.43 721.34 639.06 741.99 C 636.80 750.97 626.16 746.30 620.20 750.17 C 621.86 765.65 620.51 781.25 621.09 796.79 C 633.97 793.43 631.46 816.08 619.87 812.25 C 624.36 824.19 642.33 815.31 651.04 823.96 C 661.14 833.78 674.33 821.25 670.31 810.77 C 659.78 811.67 669.40 798.89 664.66 793.35 C 664.73 779.70 658.08 768.27 654.19 755.81 C 650.35 751.33 654.17 743.88 649.46 741.32 C 639.17 716.43 633.11 686.23 620.08 662.86 M 106.43 666.37 C 104.78 667.48 102.91 668.87 102.90 671.07 C 105.29 671.76 107.72 665.74 106.43 666.37 M 655.05 668.80 C 660.17 683.80 661.48 698.17 665.89 714.08 C 664.66 721.42 664.35 731.12 670.90 735.67 C 679.56 732.24 682.22 743.34 678.52 749.40 C 668.76 766.04 679.27 784.90 682.07 802.11 C 694.01 791.03 703.12 777.19 712.87 764.22 C 703.43 757.81 693.53 749.68 691.09 738.00 C 683.26 713.52 670.98 689.46 655.05 668.80 M 138.25 671.28 C 136.07 673.70 134.64 680.26 139.99 679.03 C 139.44 677.38 140.15 669.29 138.25 671.28 M 442.26 674.33 C 443.09 679.67 448.64 672.22 442.26 674.33 M 243.33 675.35 C 236.25 680.00 251.42 675.11 243.33 675.35 M 300.40 675.66 C 290.55 684.80 277.35 690.11 267.80 699.95 C 280.59 696.64 293.79 695.12 306.93 697.14 C 305.84 694.26 304.45 691.51 303.39 688.63 C 301.16 684.04 308.53 673.78 300.40 675.66 M 339.10 678.26 C 337.56 681.29 342.37 678.44 339.10 678.26 M 234.99 679.97 C 237.48 687.71 244.04 677.79 234.99 679.97 M 355.33 681.36 C 353.56 683.36 346.99 687.76 352.99 688.07 C 358.15 688.82 358.64 682.17 355.33 681.36 M 221.30 684.20 C 216.29 689.88 228.68 684.75 221.30 684.20 M 212.26 685.07 C 207.59 689.88 217.90 686.48 212.26 685.07 M 827.32 690.26 C 818.53 694.23 810.22 699.45 801.78 704.02 C 810.41 702.87 818.99 701.41 827.79 701.90 C 829.70 698.62 833.56 690.58 827.32 690.26 M 233.26 695.10 C 233.44 698.37 236.29 693.56 233.26 695.10 M 463.46 695.52 C 458.29 698.29 452.45 696.23 446.95 696.08 C 448.39 709.80 451.81 723.26 455.28 736.59 C 462.30 739.16 469.06 742.41 476.02 745.10 C 473.93 729.56 471.10 713.97 472.77 698.18 C 470.16 696.21 466.92 694.28 463.46 695.52 M 174.26 705.26 C 173.92 710.16 179.53 703.05 174.26 705.26 M 394.34 707.33 C 384.81 706.38 389.67 730.40 397.45 721.49 C 402.00 719.15 399.64 705.14 394.34 707.33 M 354.41 711.44 C 350.32 713.72 336.36 712.96 343.75 718.31 C 347.37 720.79 358.00 710.55 354.41 711.44 M 917.26 715.10 C 917.43 718.37 920.28 713.56 917.26 715.10 M 278.88 716.14 C 276.82 716.64 272.70 717.65 270.64 718.16 C 273.04 722.15 283.27 718.61 278.88 716.14 M 373.15 717.39 C 368.01 720.36 363.49 724.35 359.78 728.98 C 361.73 733.44 367.74 727.50 371.00 729.97 C 380.12 733.56 375.05 719.57 373.15 717.39 M 308.48 722.53 C 287.00 726.22 265.21 730.70 243.35 728.25 C 228.38 756.14 214.15 791.91 228.47 822.61 C 233.69 836.99 256.43 859.12 268.76 840.76 C 278.79 828.42 287.72 814.82 292.71 799.64 C 293.84 796.95 290.53 795.53 289.27 793.66 C 280.17 787.79 282.25 767.57 295.03 776.06 C 287.33 759.50 307.70 740.65 322.07 753.08 C 319.20 744.70 317.39 735.89 313.63 727.78 C 312.92 724.39 315.55 718.65 308.48 722.53 M 929.35 723.17 C 920.89 730.64 943.82 721.42 929.35 723.17 M 932.39 726.39 C 920.56 729.96 941.13 735.47 940.15 731.08 C 930.74 727.67 941.84 728.34 946.18 730.05 C 942.99 726.61 936.78 726.34 932.39 726.39 M 220.21 727.01 C 216.56 730.96 225.60 727.77 220.21 727.01 M 402.23 727.43 C 399.40 727.92 396.80 729.21 394.21 730.38 C 397.68 742.62 399.41 755.78 406.18 766.79 C 407.27 769.69 413.11 771.97 414.00 767.94 C 410.45 761.63 415.11 753.45 408.85 748.15 C 403.68 741.77 414.11 729.06 402.23 727.43 M 814.50 727.37 C 812.19 728.98 807.43 733.39 809.76 727.82 C 800.08 729.69 788.89 732.59 783.74 741.83 C 790.44 735.63 799.56 734.41 807.94 731.82 C 807.29 744.39 790.42 743.85 790.82 755.97 C 779.28 751.01 775.14 769.89 780.95 777.04 C 784.20 786.39 794.24 779.15 800.34 777.35 C 809.27 774.76 827.87 779.02 823.00 792.00 C 818.34 799.54 823.71 807.45 829.18 812.92 C 840.75 815.22 843.24 800.90 842.72 792.68 C 849.10 790.34 849.51 783.05 844.11 779.06 C 852.65 778.09 864.06 779.20 870.85 774.98 C 859.21 761.09 849.34 745.52 840.20 729.84 C 832.32 726.40 822.96 726.54 814.50 727.37 M 6.26 733.10 C 6.44 736.37 9.29 731.56 6.26 733.10 M 363.26 733.10 C 363.44 736.37 366.29 731.56 363.26 733.10 M 355.41 735.87 C 344.40 745.39 359.30 765.23 354.07 775.00 C 357.91 777.34 351.40 781.20 357.12 782.97 C 365.17 781.41 374.45 784.04 381.73 779.66 C 388.48 772.39 386.80 761.57 380.00 755.08 C 386.15 749.58 378.59 743.77 378.73 737.30 C 371.97 735.17 362.90 736.84 355.41 735.87 M 173.26 744.29 C 165.63 748.70 179.34 748.27 173.26 744.29 M 214.26 745.10 C 214.44 748.37 217.29 743.56 214.26 745.10 M 597.26 763.10 C 597.44 766.37 600.29 761.56 597.26 763.10 M 598.10 766.26 C 596.56 769.29 601.37 766.44 598.10 766.26 M 220.29 770.23 C 218.16 772.58 218.30 776.18 217.97 779.18 C 219.60 777.28 223.26 769.55 220.29 770.23 M 117.45 774.47 C 102.27 778.10 94.61 794.75 82.72 803.72 C 64.77 821.11 73.72 847.16 82.36 866.62 C 98.87 880.85 121.39 885.11 142.34 881.32 C 144.07 874.84 139.59 866.58 142.98 859.95 C 146.43 853.52 151.91 840.52 160.10 848.97 C 161.16 839.18 150.99 833.68 149.39 824.58 C 145.54 812.32 156.11 800.12 149.73 788.35 C 142.21 779.03 129.23 774.28 117.45 774.47 M 215.94 781.03 C 215.14 789.33 223.23 779.74 215.94 781.03 M 727.39 782.34 C 710.51 792.02 701.20 810.47 687.78 823.97 C 703.66 839.81 733.86 825.37 748.06 844.95 C 744.19 853.10 731.13 847.42 724.10 848.73 C 715.30 847.26 692.03 841.17 697.33 857.59 C 704.67 864.31 706.37 874.50 711.26 882.78 C 717.36 883.52 723.54 882.92 729.68 882.84 C 739.50 870.70 746.52 855.53 758.98 845.96 C 754.48 832.84 748.84 819.99 744.14 806.88 C 740.63 798.72 740.30 780.76 727.39 782.34 M 203.26 788.31 C 201.22 793.34 207.50 787.61 203.26 788.31 M 215.21 788.10 C 214.66 790.19 214.16 792.44 215.37 794.41 C 215.39 803.06 221.52 785.45 215.21 788.10 M 4.28 795.10 C 1.78 796.05 3.93 798.67 5.83 797.73 C 13.28 795.88 18.19 803.67 25.08 804.30 C 22.02 810.63 16.30 802.79 11.68 805.08 C 18.18 810.88 31.08 810.29 26.87 798.34 C 24.88 791.92 15.91 801.98 18.72 794.78 C 14.42 799.36 9.36 793.63 4.28 795.10 M 203.28 797.09 C 199.30 801.49 208.65 798.40 203.28 797.09 M 212.28 800.07 C 205.03 808.15 226.32 797.84 212.28 800.07 M 201.13 801.36 C 200.36 805.33 205.12 800.74 201.13 801.36 M 382.48 801.55 C 374.22 802.02 366.14 804.07 357.86 804.13 C 365.96 815.97 375.88 828.47 391.96 824.00 C 397.33 817.15 396.26 795.99 382.48 801.55 M 472.26 803.07 C 468.94 805.53 473.17 809.39 474.12 812.07 C 479.88 811.31 481.49 797.95 472.26 803.07 M 787.36 803.23 C 782.71 805.02 779.93 810.01 780.15 814.85 C 783.54 824.63 787.85 843.09 801.81 836.80 C 810.94 831.95 805.35 821.82 802.20 814.86 C 804.83 805.07 794.86 801.94 787.36 803.23 M 215.30 804.22 C 213.87 809.43 220.21 804.12 215.30 804.22 M 775.17 804.17 C 774.15 808.79 779.79 803.15 775.17 804.17 M 202.29 810.42 C 199.83 816.09 205.57 814.00 202.29 810.42 M 598.45 810.17 C 597.88 817.57 588.74 811.53 585.08 815.25 C 585.67 819.41 584.70 825.77 589.19 827.72 C 593.59 827.27 593.54 820.74 597.86 819.81 C 602.26 819.03 604.53 808.70 598.45 810.17 M 10.02 812.89 C 9.38 817.36 17.51 814.09 19.32 815.91 C 16.36 814.56 13.21 813.51 10.02 812.89 M 879.32 813.34 C 863.27 822.74 852.29 839.27 842.01 853.91 C 851.00 867.63 859.16 882.13 864.26 897.87 C 879.23 893.66 893.31 877.20 880.75 862.26 C 876.06 863.34 866.96 858.78 872.20 853.19 C 884.74 850.26 867.98 835.63 874.83 826.86 C 874.50 822.21 884.86 812.59 879.32 813.34 M 205.16 815.42 C 202.99 819.13 208.78 816.44 205.16 815.42 M 320.26 815.07 C 315.59 819.88 325.90 816.48 320.26 815.07 M 477.10 819.26 C 475.56 822.28 480.37 819.44 477.10 819.26 M 210.37 820.28 C 211.73 824.86 215.83 819.21 210.37 820.28 M 358.89 820.99 C 359.83 823.40 361.31 828.01 364.67 826.75 C 370.61 824.87 362.10 819.61 358.89 820.99 M 855.30 821.30 C 847.13 829.08 839.15 837.10 832.00 845.84 C 839.61 849.45 842.31 835.96 848.25 833.24 C 849.75 830.79 859.70 822.00 855.30 821.30 M 205.04 823.92 C 203.10 832.02 212.42 825.21 205.04 823.92 M 212.26 828.25 C 208.47 829.81 211.83 834.87 214.72 835.31 C 212.23 838.23 214.33 840.74 215.10 843.77 C 209.61 845.09 206.42 841.41 205.88 836.11 C 211.83 839.54 208.23 827.89 205.20 834.27 C 205.42 843.35 205.11 858.17 215.63 861.43 C 221.11 864.84 224.81 873.85 232.36 871.40 C 240.50 868.93 247.03 863.12 253.03 857.34 C 246.29 855.73 241.03 848.26 233.88 851.03 C 239.97 844.46 226.53 848.26 226.45 841.48 C 217.65 841.22 219.70 828.14 212.26 828.25 M 355.85 831.13 C 358.43 840.67 360.62 851.12 367.16 858.85 C 375.53 869.72 394.78 866.33 399.98 854.01 C 404.03 847.09 400.24 838.78 395.73 833.17 C 382.38 835.89 368.50 837.23 355.85 831.13 M 308.08 831.97 C 299.36 837.14 306.22 838.67 308.08 831.97 M 311.17 834.11 C 307.63 836.43 314.51 836.20 311.17 834.11 M 306.41 837.47 C 304.01 838.61 300.53 838.86 299.03 841.09 C 299.21 842.84 310.97 836.88 306.41 837.47 M 596.32 845.25 C 587.76 850.16 596.64 864.22 600.01 870.08 C 604.36 864.69 606.18 846.04 596.32 845.25 M 628.45 847.47 C 625.58 847.97 621.65 848.36 620.62 851.63 C 617.91 873.73 617.97 897.33 627.30 918.02 C 632.87 911.63 638.76 905.57 645.73 900.65 C 641.52 882.56 644.17 863.29 653.15 847.10 C 644.91 846.97 636.64 846.58 628.45 847.47 M 668.31 851.99 C 664.51 861.30 660.90 870.92 660.95 881.15 C 667.03 872.90 677.58 874.41 686.24 876.79 C 681.12 868.18 676.91 857.47 668.31 851.99 M 758.37 868.37 C 751.78 872.35 746.86 878.64 742.99 885.20 C 749.92 882.68 751.74 873.20 759.15 871.21 C 762.16 871.09 761.34 866.10 758.37 868.37 M 190.40 875.38 C 187.11 875.65 184.95 877.49 187.56 880.40 C 193.86 886.14 204.12 872.86 190.40 875.38 M 759.25 879.34 C 757.78 881.38 750.54 886.90 756.61 887.49 C 762.44 891.29 759.48 878.54 759.25 879.34 M 85.41 883.22 C 86.59 888.24 91.24 881.55 85.41 883.22 M 383.31 901.14 C 380.10 903.61 385.00 910.32 388.92 909.99 C 396.38 907.01 390.41 897.51 383.31 901.14 M 682.05 901.95 C 680.10 909.61 689.43 903.11 682.05 901.95 M 831.02 902.98 C 832.29 908.65 839.69 901.86 831.02 902.98 M 740.43 904.25 C 732.54 912.20 750.63 909.69 753.17 904.06 C 748.92 903.82 744.64 903.92 740.43 904.25 M 728.23 905.17 C 722.74 914.68 735.32 904.34 728.23 905.17 M 890.40 915.44 C 884.72 919.11 878.02 920.64 872.24 924.04 C 873.08 927.09 873.88 930.17 875.07 933.11 C 880.03 927.51 886.76 924.72 893.86 922.72 C 893.57 920.28 894.27 913.59 890.40 915.44 M 803.30 923.15 C 803.08 928.03 792.06 938.07 802.34 934.40 C 809.17 935.89 809.10 921.98 803.30 923.15 M 51.28 924.14 C 50.45 926.80 47.46 930.62 50.25 932.92 C 57.45 936.87 58.71 921.06 51.28 924.14 M 808.10 925.26 C 806.56 928.28 811.37 925.43 808.10 925.26 M 815.12 926.04 C 809.97 934.96 825.03 928.98 815.12 926.04 M 698.74 928.26 C 700.20 931.45 701.94 934.82 704.69 937.03 C 707.07 931.32 707.91 925.93 698.74 928.26 M 838.75 930.13 C 843.74 933.61 847.55 938.23 851.00 943.20 C 851.48 935.39 848.35 926.14 838.75 930.13 M 717.17 931.94 C 716.28 934.64 715.65 937.42 715.14 940.24 C 718.83 939.97 720.47 933.38 717.17 931.94 Z" />
<path fill="#1a1717" opacity="0.75" d=" M 336.72 106.10 C 351.93 107.38 367.18 109.27 382.13 112.26 C 368.12 118.33 348.82 115.56 336.72 106.10 Z" />
<path fill="#1a1717" opacity="0.75" d=" M 76.31 113.19 C 84.97 113.25 86.24 124.43 88.67 130.84 C 85.32 137.20 64.41 137.70 67.97 126.00 C 69.41 121.12 72.69 116.76 76.31 113.19 Z" />
<path fill="#1a1717" opacity="0.75" d=" M 618.30 169.15 C 624.10 169.58 630.91 167.50 636.34 169.69 C 639.78 177.40 634.15 185.69 627.92 190.03 C 619.52 188.26 616.57 175.48 618.30 169.15 Z" />
<path fill="#1a1717" opacity="0.75" d=" M 729.82 204.09 C 732.39 206.30 730.48 209.72 728.52 211.59 C 721.39 217.82 715.18 225.23 706.80 229.88 C 711.48 218.80 719.64 210.31 729.82 204.09 Z" />
<path fill="#1a1717" opacity="0.75" d=" M 801.24 209.11 C 805.22 207.32 809.38 213.17 805.75 215.89 C 801.56 217.48 798.17 212.38 801.24 209.11 Z" />
<path fill="#1a1717" opacity="0.75" d=" M 537.34 247.27 C 542.30 248.69 529.61 253.01 527.21 251.96 C 522.55 246.53 534.65 247.96 537.34 247.27 Z" />
<path fill="#1a1717" opacity="0.75" d=" M 592.33 303.20 C 599.11 300.32 599.44 317.83 592.36 311.64 C 588.30 310.04 590.76 305.75 592.33 303.20 Z" />
<path fill="#1a1717" opacity="0.75" d=" M 576.39 321.39 C 587.71 319.01 581.57 330.78 573.88 327.21 C 567.66 327.10 569.86 318.96 576.39 321.39 Z" />
<path fill="#1a1717" opacity="0.75" d=" M 202.18 414.34 C 214.68 416.48 194.67 420.04 202.18 414.34 Z" />
<path fill="#1a1717" opacity="0.75" d=" M 925.08 495.11 C 928.80 483.02 935.74 469.25 949.00 465.52 L 949.00 518.69 C 946.38 517.50 945.17 515.02 944.41 512.41 C 935.16 512.39 921.60 506.68 925.08 495.11 Z" />
<path fill="#1a1717" opacity="0.75" d=" M 624.17 478.17 C 628.80 477.15 623.15 482.80 624.17 478.17 Z" />
<path fill="#1a1717" opacity="0.75" d=" M 703.33 481.12 C 713.74 482.34 718.34 496.47 725.02 504.08 C 722.13 516.85 703.90 510.10 697.14 503.83 C 686.99 495.90 698.43 487.80 703.33 481.12 Z" />
<path fill="#1a1717" opacity="0.75" d=" M 177.42 502.16 C 181.14 499.98 178.44 505.77 177.42 502.16 Z" />
<path fill="#1a1717" opacity="0.75" d=" M 548.26 519.10 C 551.29 517.56 548.44 522.37 548.26 519.10 Z" />
<path fill="#1a1717" opacity="0.75" d=" M 824.28 528.08 C 830.20 525.47 832.99 532.78 828.78 535.91 C 824.39 537.74 820.14 531.00 824.28 528.08 Z" />
<path fill="#1a1717" opacity="0.75" d=" M 903.26 622.06 C 909.15 623.68 899.28 626.69 903.26 622.06 Z" />
<path fill="#1a1717" opacity="0.75" d=" M 254.39 636.35 C 260.79 634.96 268.19 640.92 265.98 647.91 C 264.21 654.65 253.98 657.39 249.73 651.28 C 243.95 646.57 247.64 637.53 254.39 636.35 Z" />
<path fill="#1a1717" opacity="0.75" d=" M 40.25 663.09 C 43.07 662.72 47.71 664.51 44.92 668.75 C 41.80 673.03 36.16 665.69 40.25 663.09 Z" />
<path fill="#1a1717" opacity="0.75" d=" M 867.20 670.18 C 871.07 673.23 862.87 673.36 867.20 670.18 Z" />
<path fill="#1a1717" opacity="0.75" d=" M 859.25 676.11 C 863.55 673.71 866.33 681.05 861.91 682.02 C 858.18 683.41 856.39 677.98 859.25 676.11 Z" />
<path fill="#1a1717" opacity="0.75" d=" M 18.27 690.19 C 22.64 688.94 25.60 698.39 20.01 698.06 C 15.90 698.65 15.43 691.90 18.27 690.19 Z" />
<path fill="#1a1717" opacity="0.75" d=" M 871.10 692.26 C 874.37 692.44 869.56 695.29 871.10 692.26 Z" />
<path fill="#1a1717" opacity="0.75" d=" M 872.84 697.97 C 877.11 696.68 878.30 700.88 879.09 704.14 C 877.00 702.08 874.93 700.01 872.84 697.97 Z" />
<path fill="#1a1717" opacity="0.75" d=" M 221.23 700.14 C 233.15 698.25 217.21 707.76 221.23 700.14 Z" />
<path fill="#1a1717" opacity="0.75" d=" M 215.25 702.35 C 221.31 701.30 213.74 708.38 215.25 702.35 Z" />
<path fill="#1a1717" opacity="0.75" d=" M 209.17 704.17 C 213.80 703.15 208.15 708.79 209.17 704.17 Z" />
<path fill="#1a1717" opacity="0.75" d=" M 221.45 705.41 C 235.35 704.09 207.96 710.90 221.45 705.41 Z" />
<path fill="#1a1717" opacity="0.75" d=" M 206.23 709.12 C 215.63 707.41 202.50 714.43 206.23 709.12 Z" />
<path fill="#1a1717" opacity="0.75" d=" M 883.26 712.10 C 886.28 710.56 883.43 715.37 883.26 712.10 Z" />
<path fill="#1a1717" opacity="0.75" d=" M 94.26 718.06 C 101.31 713.66 101.85 726.62 96.10 725.00 C 93.12 724.47 91.58 719.92 94.26 718.06 Z" />
<path fill="#1a1717" opacity="0.75" d=" M 219.10 722.26 C 222.38 722.44 217.56 725.29 219.10 722.26 Z" />
<path fill="#1a1717" opacity="0.75" d=" M 573.06 726.12 C 584.13 727.89 568.73 733.61 573.06 726.12 Z" />
<path fill="#1a1717" opacity="0.75" d=" M 637.10 729.26 C 640.37 729.44 635.56 732.29 637.10 729.26 Z" />
<path fill="#1a1717" opacity="0.75" d=" M 645.10 741.26 C 648.37 741.44 643.56 744.29 645.10 741.26 Z" />
<path fill="#1a1717" opacity="0.75" d=" M 588.10 742.26 C 591.37 742.44 586.56 745.29 588.10 742.26 Z" />
<path fill="#1a1717" opacity="0.75" d=" M 625.34 757.25 C 630.67 755.70 625.93 760.76 623.57 761.57 C 619.96 763.12 624.08 758.18 625.34 757.25 Z" />
<path fill="#1a1717" opacity="0.75" d=" M 647.22 760.08 C 657.20 760.49 642.80 767.89 647.22 760.08 Z" />
<path fill="#1a1717" opacity="0.75" d=" M 584.44 766.17 C 589.08 764.41 584.45 770.55 584.44 766.17 Z" />
<path fill="#1a1717" opacity="0.75" d=" M 536.41 768.46 C 541.32 771.00 533.33 771.50 530.01 771.02 C 529.97 768.17 534.69 770.00 536.41 768.46 Z" />
<path fill="#1a1717" opacity="0.75" d=" M 515.12 769.19 C 519.95 770.25 511.94 772.53 515.12 769.19 Z" />
<path fill="#1a1717" opacity="0.75" d=" M 646.12 769.19 C 650.95 770.25 642.94 772.53 646.12 769.19 Z" />
<path fill="#1a1717" opacity="0.75" d=" M 641.26 770.10 C 644.29 768.56 641.44 773.37 641.26 770.10 Z" />
<path fill="#1a1717" opacity="0.75" d=" M 843.26 788.10 C 846.28 786.56 843.44 791.37 843.26 788.10 Z" />
<path fill="#1a1717" opacity="0.75" d=" M 529.35 816.30 C 536.88 817.44 539.73 827.95 540.81 834.70 C 535.54 839.00 517.39 841.00 520.06 829.11 C 521.81 824.02 525.06 819.53 529.35 816.30 Z" />
<path fill="#1a1717" opacity="0.75" d=" M 225.13 844.36 C 229.12 843.74 224.36 848.33 225.13 844.36 Z" />
<path fill="#1a1717" opacity="0.75" d=" M 214.32 845.32 C 219.90 844.44 213.45 850.89 214.32 845.32 Z" />
<path fill="#1a1717" opacity="0.75" d=" M 217.17 850.17 C 221.80 849.15 216.15 854.79 217.17 850.17 Z" />
<path fill="#1a1717" opacity="0.75" d=" M 219.26 854.10 C 222.29 852.56 219.44 857.37 219.26 854.10 Z" />
<path fill="#1a1717" opacity="0.75" d=" M 223.39 854.13 C 228.55 852.51 223.57 859.04 223.39 854.13 Z" />
<path fill="#1a1717" opacity="0.75" d=" M 531.30 902.18 C 535.55 900.68 537.91 908.37 532.69 908.79 C 529.09 909.42 527.49 903.56 531.30 902.18 Z" />
<path fill="#1a1717" opacity="0.75" d=" M 436.33 920.29 C 445.16 923.28 455.63 919.60 463.09 925.89 C 469.89 930.08 479.49 929.72 484.68 936.32 C 487.28 941.67 485.68 948.18 486.89 953.94 C 467.62 953.99 448.33 954.15 429.07 953.90 C 426.71 944.10 423.79 924.84 436.33 920.29 Z" />
</g>
</svg>
